<svg version="1.1" id="Layer_1" xmlns="http://www.w3.org/2000/svg" xmlns:xlink="http://www.w3.org/1999/xlink" x="0px" y="0px"
	 width="100%" viewBox="0 0 1262 335" enable-background="new 0 0 1262 335" xml:space="preserve">
<path fill="none" opacity="1.000000" stroke="#000000" stroke-linecap="round" stroke-linejoin="round" stroke-width="3.000000"
	d="
M1061.750000,71.000000 
	C1060.511230,74.533287 1062.708740,75.740181 1065.504639,75.931435 
	C1068.818115,76.158089 1072.143433,76.243439 1075.504028,76.158760 
	C1090.161377,75.789436 1104.833374,75.996696 1119.500000,76.020866 
	C1119.833618,76.021416 1120.166870,76.333031 1121.000000,76.749138 
	C1121.000000,79.984146 1120.953613,83.492790 1121.007690,86.999878 
	C1121.270142,103.999046 1120.643433,120.998688 1121.403198,138.004318 
	C1121.789307,146.646301 1121.018555,155.334213 1121.070190,163.999588 
	C1121.092041,167.665909 1118.991211,167.522354 1116.500000,167.514679 
	C1105.500000,167.480759 1094.500000,167.500000 1083.500000,167.500000 
"/>
<path fill="none" opacity="1.000000" stroke="#000000" stroke-linecap="round" stroke-linejoin="round" stroke-width="4.000000"
	d="
M1136.500000,138.500000 
	C1137.002930,140.607269 1137.910034,141.989853 1140.506104,141.535019 
	C1144.482788,140.838318 1148.500000,142.876266 1152.500000,141.499817 
	C1152.500000,128.000000 1152.386108,114.498390 1152.576904,101.001083 
	C1152.627197,97.435333 1151.571289,95.934036 1147.999634,96.497337 
	C1146.835571,96.680916 1145.635742,97.086617 1144.506226,96.948662 
	C1141.943481,96.635597 1138.808838,95.200470 1137.185059,97.624016 
	C1135.925781,99.503639 1135.799683,102.564224 1136.091553,104.988991 
	C1137.415649,115.993446 1134.973877,127.020599 1136.500000,138.000000 
"/>
<path fill="none" opacity="1.000000" stroke="#000000" stroke-linecap="round" stroke-linejoin="round" stroke-width="4.000000"
	d="
M989.500000,192.500000 
	C989.500000,222.333328 989.470520,252.166748 989.550598,281.999878 
	C989.557739,284.667542 988.648682,287.333344 989.500000,290.000000 
"/>
<path fill="none" opacity="1.000000" stroke="#000000" stroke-linecap="round" stroke-linejoin="round" stroke-width="4.000000"
	d="
M889.500000,190.500000 
	C890.430664,195.666672 889.597351,200.831070 889.568848,206.000381 
	C889.420898,232.832886 889.494629,259.666656 889.521118,286.499969 
	C889.522095,287.500153 889.833374,288.500000 890.000000,289.500000 
"/>
<path fill="none" opacity="1.000000" stroke="#000000" stroke-linecap="round" stroke-linejoin="round" stroke-width="4.000000"
	d="
M1038.500000,192.000000 
	C1038.500000,221.000000 1038.500000,250.000000 1038.500000,279.000000 
"/>
<path fill="none" opacity="1.000000" stroke="#000000" stroke-linecap="round" stroke-linejoin="round" stroke-width="4.000000"
	d="
M301.500000,192.000000 
	C301.500000,219.666672 301.541290,247.333481 301.441986,274.999786 
	C301.430939,278.077881 301.878815,280.033630 305.500000,279.500000 
"/>
<path fill="none" opacity="1.000000" stroke="#000000" stroke-linecap="round" stroke-linejoin="round" stroke-width="4.000000"
	d="
M202.500000,192.500000 
	C202.500000,221.166672 202.500000,249.833328 202.500000,278.500000 
"/>
<path fill="none" opacity="1.000000" stroke="#000000" stroke-linecap="round" stroke-linejoin="round" stroke-width="4.000000"
	d="
M762.000000,76.500000 
	C760.731140,74.943550 762.066895,73.126648 761.223511,71.403717 
	C756.527527,70.506851 751.499207,71.091980 746.499573,71.054848 
	C744.122681,71.037186 741.503479,75.983208 741.502686,80.000000 
	C741.497437,105.500000 741.503784,131.000000 741.494080,156.500000 
	C741.493103,159.010834 741.004883,161.161621 739.759949,163.631058 
	C737.848083,167.423676 735.622498,167.341354 732.500000,166.500000 
"/>
<path fill="none" opacity="1.000000" stroke="#000000" stroke-linecap="round" stroke-linejoin="round" stroke-width="3.000000"
	d="
M691.500000,192.750000 
	C690.270874,197.548981 692.062683,202.231583 692.044617,207.000168 
	C691.949402,232.166473 692.000000,257.333344 692.000000,282.500000 
"/>
<path fill="none" opacity="1.000000" stroke="#000000" stroke-linecap="round" stroke-linejoin="round" stroke-width="4.000000"
	d="
M1071.500000,77.500000 
	C1071.500000,103.000000 1071.349976,128.501663 1071.633301,153.998520 
	C1071.686523,158.792099 1071.085571,163.812988 1073.000000,168.500000 
"/>
<path fill="none" opacity="1.000000" stroke="#000000" stroke-linecap="round" stroke-linejoin="round" stroke-width="4.000000"
	d="
M387.500000,73.500000 
	C387.181427,72.660759 388.306946,71.005852 386.500671,71.037971 
	C373.834442,71.263199 361.153961,70.388100 348.501678,71.518883 
	C348.162384,71.549217 347.848145,71.860146 347.500000,72.052490 
	C347.500000,90.000000 347.500000,108.000000 347.500000,126.000000 
	C347.500000,138.333328 347.490234,150.666687 347.510284,162.999985 
	C347.513367,164.907974 347.576965,166.801865 346.500000,168.500000 
"/>
<path fill="none" opacity="1.000000" stroke="#000000" stroke-linecap="round" stroke-linejoin="round" stroke-width="4.000000"
	d="
M879.500000,195.500000 
	C878.932007,190.011322 878.402771,189.683975 872.998779,189.977753 
	C851.509033,191.146133 829.996704,190.077194 808.502625,190.607529 
	C806.087402,190.667130 801.688843,187.496216 801.500000,193.500000 
"/>
<path fill="none" opacity="1.000000" stroke="#000000" stroke-linecap="round" stroke-linejoin="round" stroke-width="2.000000"
	d="
M642.500000,290.500000 
	C684.500000,290.500000 726.500000,290.500000 768.500000,290.500000 
	C807.166687,290.500000 845.833313,290.500000 884.500000,290.500000 
	C931.166687,290.500000 977.833313,290.500000 1024.500000,290.500000 
	C1054.833374,290.500000 1085.166626,290.505676 1115.500000,290.486115 
	C1117.338623,290.484924 1119.228149,290.843353 1121.000000,290.000000 
"/>
<path fill="none" opacity="1.000000" stroke="#000000" stroke-linecap="round" stroke-linejoin="round" stroke-width="3.000000"
	d="
M502.500000,264.000000 
	C505.501404,263.092896 503.542450,260.748413 503.359039,259.521057 
	C501.713745,248.511047 502.685364,237.514877 502.932465,226.498489 
	C503.111725,218.506241 502.783356,210.495102 502.447968,202.502182 
	C502.293610,198.822693 503.714508,195.166672 502.591614,191.000000 
	C491.171570,191.000000 479.835693,191.023987 468.500092,190.977493 
	C466.499451,190.969299 464.500000,190.666672 462.500000,190.500000 
"/>
<path fill="none" opacity="1.000000" stroke="#000000" stroke-linecap="round" stroke-linejoin="round" stroke-width="4.000000"
	d="
M978.500000,190.000000 
	C970.394836,191.840057 962.166565,190.664093 954.000122,191.002823 
	C949.167847,191.203262 944.304749,190.504547 939.500000,191.479263 
	C939.500000,205.833328 939.840515,220.177094 939.401978,234.496994 
	C938.983093,248.177582 939.526184,261.835083 939.635132,275.498932 
	C939.667419,279.550720 939.881531,283.529785 939.000000,287.500000 
"/>
<path fill="none" opacity="1.000000" stroke="#000000" stroke-linecap="round" stroke-linejoin="round" stroke-width="2.000000"
	d="
M550.500000,187.500000 
	C551.513428,194.392136 554.156128,200.836212 555.992981,207.501938 
	C559.874512,221.587311 563.745911,235.672089 568.429810,249.523743 
	C569.167419,251.705048 568.972473,254.201706 569.203369,256.500000 
	C572.500000,256.500000 575.500000,256.500000 578.500000,256.500000 
"/>
<path fill="none" opacity="1.000000" stroke="#000000" stroke-linecap="round" stroke-linejoin="round" stroke-width="2.000000"
	d="
M1112.500000,288.500000 
	C1135.747681,292.162567 1159.162476,290.084015 1182.500977,290.435486 
	C1202.996338,290.744171 1223.500000,290.500000 1244.157959,290.500000 
	C1243.653198,251.500763 1244.529297,212.496307 1243.500000,173.500000 
"/>
<path fill="none" opacity="1.000000" stroke="#000000" stroke-linecap="round" stroke-linejoin="round" stroke-width="4.000000"
	d="
M741.500000,192.000000 
	C741.500000,221.000000 741.500000,250.000000 741.500000,279.000000 
"/>
<path fill="none" opacity="1.000000" stroke="#000000" stroke-linecap="round" stroke-linejoin="round" stroke-width="5.000000"
	d="
M401.000000,192.500000 
	C401.000000,221.500000 401.000000,250.500000 401.000000,279.500000 
"/>
<path fill="none" opacity="1.000000" stroke="#000000" stroke-linecap="round" stroke-linejoin="round" stroke-width="3.000000"
	d="
M411.500000,13.000000 
	C405.748016,11.242805 399.822662,11.974878 394.001709,12.087936 
	C383.151917,12.298666 372.325073,13.240406 361.491943,11.551764 
	C356.660278,10.798621 349.862793,13.988352 348.672089,18.050444 
	C347.669128,21.471964 348.081329,25.331892 348.019348,29.000326 
	C347.917969,35.002918 348.451691,41.022938 347.495148,46.999222 
	C347.181183,48.960804 348.217285,50.657467 348.561615,52.398109 
	C353.816772,53.098347 359.277100,51.399944 364.500000,53.500000 
"/>
<path fill="none" opacity="1.000000" stroke="#000000" stroke-linecap="round" stroke-linejoin="round" stroke-width="3.000000"
	d="
M350.999969,192.000000 
	C351.166656,202.500000 351.748169,213.013519 351.406677,223.496964 
	C350.836426,241.000992 351.225159,258.500702 350.977844,275.999695 
	C350.918945,280.168457 352.391083,284.333344 351.000000,288.500000 
"/>
<path fill="none" opacity="1.000000" stroke="#000000" stroke-linecap="round" stroke-linejoin="round" stroke-width="3.000000"
	d="
M413.500000,69.500000 
	C413.396301,71.561714 414.827332,71.010231 416.000000,71.008614 
	C426.666656,70.993927 437.333405,70.976532 447.999969,71.009880 
	C453.345886,71.026596 453.865509,71.429382 452.373718,76.462570 
	C451.618683,79.010017 452.749908,81.128311 452.590149,83.506058 
	C451.292633,102.820244 452.064606,122.168655 452.117889,141.499680 
	C452.140839,149.819214 450.984955,158.233932 453.000000,166.500000 
"/>
<path fill="none" opacity="1.000000" stroke="#000000" stroke-linecap="round" stroke-linejoin="round" stroke-width="2.000000"
	d="
M160.500000,70.500000 
	C163.727249,71.894173 167.283844,69.994865 170.672653,71.838608 
	C170.129608,80.007591 168.494232,88.601250 169.256699,96.976631 
	C170.337830,108.852501 168.890579,120.659309 169.752411,132.517990 
	C170.264969,139.570801 170.764023,146.858765 169.503586,154.000641 
	C169.475067,154.162277 169.516129,154.335129 169.497696,154.499741 
	C168.249054,165.645264 169.441406,166.943756 180.499847,167.022095 
	C186.667389,167.065796 192.868759,167.009552 198.980469,167.678421 
	C201.074844,167.907639 202.651215,166.996613 204.500000,167.000000 
"/>
<path fill="none" opacity="1.000000" stroke="#000000" stroke-linecap="round" stroke-linejoin="round" stroke-width="4.000000"
	d="
M1138.000000,192.500000 
	C1138.890503,204.656754 1138.903198,216.857086 1138.364990,228.994019 
	C1137.661865,244.851776 1138.457397,260.666656 1138.464966,276.500031 
	C1138.465576,277.768097 1139.553711,279.537140 1136.509521,279.689880 
	C1134.261475,279.802643 1136.397827,282.195557 1134.486328,284.154724 
	C1137.350952,283.525238 1138.748779,283.176422 1140.000000,284.000000 
"/>
<path fill="none" opacity="1.000000" stroke="#000000" stroke-linecap="round" stroke-linejoin="round" stroke-width="3.000000"
	d="
M585.000000,40.000000 
	C584.161804,38.517078 582.733521,39.048553 581.499695,39.009037 
	C571.669128,38.694221 561.817993,39.617043 551.998901,38.510006 
	C550.721558,38.365997 549.830750,39.161446 548.993042,39.963005 
	C551.207825,51.704945 548.573059,54.636433 537.013489,52.909515 
	C535.084290,52.621304 533.333313,52.399761 531.500000,53.000000 
"/>
<path fill="none" opacity="1.000000" stroke="#000000" stroke-linecap="round" stroke-linejoin="round" stroke-width="2.000000"
	d="
M927.500000,70.500000 
	C926.500000,70.500000 925.500000,70.500000 924.500732,70.500137 
	C923.430725,72.199532 923.496338,74.101273 923.496643,76.000000 
	C923.501526,105.333336 923.495850,134.666672 923.521179,163.999985 
	C923.521912,164.833145 923.071167,165.819092 924.000000,166.500000 
"/>
<path fill="none" opacity="1.000000" stroke="#000000" stroke-linecap="round" stroke-linejoin="round" stroke-width="2.000000"
	d="
M1116.500000,75.500000 
	C1116.500000,73.999229 1116.500000,72.498459 1116.500000,70.500000 
	C1102.003906,70.500000 1088.000732,70.400520 1074.000732,70.565186 
	C1070.175781,70.610176 1066.241821,68.729332 1062.500000,71.000000 
"/>
<path fill="none" opacity="1.000000" stroke="#000000" stroke-linecap="round" stroke-linejoin="round" stroke-width="5.000000"
	d="
M400.500000,74.500000 
	C401.543884,103.333336 400.791931,132.166672 401.065918,161.444687 
	C404.571777,162.039505 404.773651,165.142944 404.500000,168.500000 
"/>
<path fill="none" opacity="1.000000" stroke="#000000" stroke-linecap="round" stroke-linejoin="round" stroke-width="4.000000"
	d="
M314.500000,14.500000 
	C314.500000,25.166666 314.340332,35.837830 314.640503,46.496044 
	C314.697571,48.523640 314.936707,50.500000 314.382660,53.000000 
	C308.833130,53.000000 303.166565,53.000000 297.500000,53.000000 
"/>
<path fill="none" opacity="1.000000" stroke="#000000" stroke-linecap="round" stroke-linejoin="round" stroke-width="3.000000"
	d="
M728.000000,73.500000 
	C728.081055,72.318039 728.038635,71.213951 726.500183,70.998871 
	C724.902710,70.775528 723.551270,71.576653 723.590393,72.997513 
	C723.673096,76.003326 721.753418,75.409882 720.000793,75.513206 
	C702.841248,76.524818 685.666077,75.773132 668.499512,75.956612 
	C667.836487,75.963699 667.166687,75.333344 666.500000,75.000008 
"/>
<path fill="none" opacity="1.000000" stroke="#000000" stroke-linecap="round" stroke-linejoin="round" stroke-width="2.000000"
	d="
M350.500000,290.500000 
	C334.500000,290.500000 318.500000,290.500000 302.500000,290.500000 
"/>
<path fill="none" opacity="1.000000" stroke="#000000" stroke-linecap="round" stroke-linejoin="round" stroke-width="3.000000"
	d="
M837.500000,72.000000 
	C836.195068,77.633186 837.293457,83.334503 837.090515,89.003242 
	C836.756714,98.324623 837.000000,107.666664 837.000000,117.000000 
	C837.000000,124.166664 836.981140,131.333420 837.013733,138.499939 
	C837.021545,140.213623 836.539612,142.058746 838.000000,143.500000 
"/>
<path fill="none" opacity="1.000000" stroke="#000000" stroke-linecap="round" stroke-linejoin="round" stroke-width="4.000000"
	d="
M853.500000,19.500000 
	C853.500000,30.335897 853.500000,41.171795 853.500000,52.500000 
	C848.178162,52.500000 843.339050,52.500000 838.500000,52.500000 
"/>
<path fill="none" opacity="1.000000" stroke="#000000" stroke-linecap="round" stroke-linejoin="round" stroke-width="2.000000"
	d="
M449.500000,290.500000 
	C433.833344,290.500000 418.166656,290.500000 402.500000,290.500000 
"/>
<path fill="none" opacity="1.000000" stroke="#000000" stroke-linecap="round" stroke-linejoin="round" stroke-width="3.000000"
	d="
M1170.500000,81.500000 
	C1169.212036,87.971252 1170.295776,94.500816 1170.083740,101.002731 
	C1169.763306,110.825615 1170.075928,120.667419 1169.978149,130.499786 
	C1169.885254,139.833618 1170.604370,149.178558 1169.530151,158.503479 
	C1169.203613,161.338089 1167.726196,164.036423 1168.692383,167.196350 
	C1169.727661,168.012451 1171.176636,167.253769 1172.500000,167.500000 
"/>
<path fill="none" opacity="1.000000" stroke="#000000" stroke-linecap="round" stroke-linejoin="round" stroke-width="2.000000"
	d="
M200.500000,290.500000 
	C185.166672,290.500000 169.833328,290.500000 154.500000,290.500000 
"/>
<path fill="none" opacity="1.000000" stroke="#000000" stroke-linecap="round" stroke-linejoin="round" stroke-width="3.000000"
	d="
M645.500000,101.500000 
	C645.333313,109.500000 645.054321,117.499588 645.025146,125.500092 
	C644.975830,139.002335 643.958069,152.491257 644.642395,166.071701 
	C644.833191,166.166992 645.159180,166.461807 645.501038,166.481430 
	C657.159546,167.150574 668.815247,168.100189 680.500000,167.000000 
"/>
<path fill="none" opacity="1.000000" stroke="#000000" stroke-linecap="round" stroke-linejoin="round" stroke-width="3.000000"
	d="
M97.000000,189.500000 
	C99.380165,190.599182 101.810356,191.090057 104.500687,191.058548 
	C116.165749,190.921951 127.833344,191.006424 139.499985,190.987427 
	C140.403107,190.985962 140.902969,190.402969 141.000000,189.500000 
"/>
<path fill="none" opacity="1.000000" stroke="#000000" stroke-linecap="round" stroke-linejoin="round" stroke-width="2.000000"
	d="
M570.000000,257.500000 
	C573.144836,262.742371 572.924500,269.070312 575.474670,274.511871 
	C575.824890,275.259186 575.708801,276.216827 576.020935,276.991577 
	C577.623596,280.969330 578.455627,284.375153 574.635254,288.137360 
	C570.693237,292.019287 567.833313,297.000000 564.500000,301.500000 
"/>
<path fill="none" opacity="1.000000" stroke="#000000" stroke-linecap="round" stroke-linejoin="round" stroke-width="4.000000"
	d="
M993.000000,73.500000 
	C993.137390,71.362610 992.534729,70.390701 989.998962,70.427841 
	C978.668091,70.593826 967.333252,70.513756 956.000061,70.483704 
	C954.473633,70.479652 953.042053,70.396370 953.000000,72.500000 
"/>
<path fill="none" opacity="1.000000" stroke="#000000" stroke-linecap="round" stroke-linejoin="round" stroke-width="4.000000"
	d="
M252.500000,192.500000 
	C252.500000,222.166672 252.500000,251.833328 252.500000,281.500000 
"/>
<path fill="none" opacity="1.000000" stroke="#000000" stroke-linecap="round" stroke-linejoin="round" stroke-width="2.000000"
	d="
M465.000000,71.000000 
	C476.850677,69.935806 488.753265,71.464043 500.484772,71.058846 
	C516.671265,70.499786 532.837463,71.071457 549.001465,70.545357 
	C553.158325,70.410072 557.333313,70.833328 561.500000,71.000000 
"/>
<path fill="none" opacity="1.000000" stroke="#000000" stroke-linecap="round" stroke-linejoin="round" stroke-width="3.000000"
	d="
M1243.000000,190.500000 
	C1239.038330,191.586533 1234.992676,190.988937 1231.000488,190.948425 
	C1220.500488,190.841858 1209.985596,191.570953 1199.500000,190.500000 
"/>
<path fill="none" opacity="1.000000" stroke="#000000" stroke-linecap="round" stroke-linejoin="round" stroke-width="4.000000"
	d="
M658.500000,190.000000 
	C653.165344,190.488510 647.830750,190.977020 642.310242,191.482559 
	C640.886047,209.476288 641.724304,227.497986 641.500000,245.500000 
"/>
<path fill="none" opacity="1.000000" stroke="#000000" stroke-linecap="round" stroke-linejoin="round" stroke-width="3.000000"
	d="
M438.500000,190.500000 
	C430.851624,191.507828 423.166412,190.921204 415.499817,190.970367 
	C400.000458,191.069778 384.500000,191.008423 369.000000,190.988815 
	C367.163208,190.986481 365.326630,190.830704 362.964355,190.721848 
	C362.022430,191.427887 361.433807,192.800247 361.500000,194.500000 
"/>
<path fill="none" opacity="1.000000" stroke="#000000" stroke-linecap="round" stroke-linejoin="round" stroke-width="3.000000"
	d="
M136.500000,73.500000 
	C136.500000,76.500000 136.500000,79.500000 136.500000,82.216957 
	C147.306473,83.706490 158.190552,82.390617 169.000000,83.500000 
"/>
<path fill="none" opacity="1.000000" stroke="#000000" stroke-linecap="round" stroke-linejoin="round" stroke-width="3.000000"
	d="
M810.500000,71.000000 
	C798.333313,71.000000 786.166504,70.972572 774.000244,71.041473 
	C772.752991,71.048546 770.826233,70.039032 770.500000,72.500000 
"/>
<path fill="none" opacity="1.000000" stroke="#000000" stroke-linecap="round" stroke-linejoin="round" stroke-width="4.000000"
	d="
M221.500000,167.000000 
	C232.485168,168.145203 243.512085,167.568008 254.494431,167.284454 
	C258.137573,167.190384 261.899231,168.616302 265.500000,167.000000 
"/>
<path fill="none" opacity="1.000000" stroke="#000000" stroke-linecap="round" stroke-linejoin="round" stroke-width="3.000000"
	d="
M622.000000,13.000000 
	C622.000000,26.000000 622.000000,39.000000 622.000000,52.000000 
"/>
<path fill="none" opacity="1.000000" stroke="#000000" stroke-linecap="round" stroke-linejoin="round" stroke-width="3.000000"
	d="
M460.500000,8.000000 
	C456.667419,7.816179 452.799713,8.439680 448.354584,7.357728 
	C445.807770,14.775506 447.208130,22.481869 447.088379,30.001408 
	C446.971741,37.325459 446.396271,44.687962 447.500000,52.000000 
"/>
<path fill="none" opacity="1.000000" stroke="#000000" stroke-linecap="round" stroke-linejoin="round" stroke-width="3.000000"
	d="
M513.500000,13.000000 
	C512.748657,26.000000 512.649353,39.000000 513.500000,52.000000 
"/>
<path fill="none" opacity="1.000000" stroke="#000000" stroke-linecap="round" stroke-linejoin="round" stroke-width="4.000000"
	d="
M60.500000,12.500000 
	C63.333332,10.440737 66.165276,12.567327 69.000244,12.512792 
	C79.832809,12.304407 90.667999,13.088067 101.507050,12.075469 
	C106.298569,11.627840 111.166672,12.000000 116.500000,12.000000 
	C116.500000,25.662447 116.500000,38.831223 116.500000,52.000000 
"/>
<path fill="none" opacity="1.000000" stroke="#000000" stroke-linecap="round" stroke-linejoin="round" stroke-width="4.000000"
	d="
M381.500000,10.500000 
	C381.500000,24.333334 381.500000,38.166668 381.500000,52.000000 
"/>
<path fill="none" opacity="1.000000" stroke="#000000" stroke-linecap="round" stroke-linejoin="round" stroke-width="3.000000"
	d="
M1118.500000,8.500000 
	C1117.371460,13.467937 1118.114380,18.501774 1118.040649,23.500599 
	C1117.900269,32.998528 1118.000000,42.500000 1118.000000,52.000000 
"/>
<path fill="none" opacity="1.000000" stroke="#000000" stroke-linecap="round" stroke-linejoin="round" stroke-width="4.000000"
	d="
M694.500000,8.500000 
	C690.568115,7.039449 688.523987,7.853748 688.515564,11.000042 
	C688.479248,24.499945 688.500000,38.000000 688.500000,51.500000 
"/>
<path fill="none" opacity="1.000000" stroke="#000000" stroke-linecap="round" stroke-linejoin="round" stroke-width="4.000000"
	d="
M755.500000,8.500000 
	C755.500000,22.833334 755.500000,37.166668 755.500000,51.500000 
"/>
<path fill="none" opacity="1.000000" stroke="#000000" stroke-linecap="round" stroke-linejoin="round" stroke-width="4.000000"
	d="
M905.500000,7.500002 
	C909.000000,7.666668 912.566650,8.324568 915.981201,7.861478 
	C919.377502,7.400865 919.897583,8.568495 920.056458,11.496936 
	C920.779663,24.828686 920.327576,38.166740 920.500000,51.500000 
"/>
<path fill="none" opacity="1.000000" stroke="#000000" stroke-linecap="round" stroke-linejoin="round" stroke-width="4.000000"
	d="
M820.500000,8.500000 
	C820.500000,22.833334 820.500000,37.166668 820.500000,51.500000 
"/>
<path fill="none" opacity="1.000000" stroke="#000000" stroke-linecap="round" stroke-linejoin="round" stroke-width="3.000000"
	d="
M584.500000,18.500000 
	C584.925659,21.259005 583.915771,22.147127 580.998169,22.078869 
	C571.836487,21.864532 562.666565,21.978542 553.500122,22.027092 
	C552.351257,22.033175 550.625366,21.250685 550.500000,23.500000 
"/>
<path fill="none" opacity="1.000000" stroke="#000000" stroke-linecap="round" stroke-linejoin="round" stroke-width="3.000000"
	d="
M457.500000,168.000000 
	C452.131531,165.496368 446.498627,167.668594 440.981689,167.230301 
	C432.216919,166.534012 423.333344,167.333328 414.500000,167.500000 
"/>
<path fill="none" opacity="1.000000" stroke="#000000" stroke-linecap="round" stroke-linejoin="round" stroke-width="4.000000"
	d="
M90.000000,8.000000 
	C87.712395,6.594468 85.683983,8.558439 83.523521,8.504878 
	C83.170914,22.833334 84.789734,37.166668 83.500000,51.500000 
"/>
<path fill="none" opacity="1.000000" stroke="#000000" stroke-linecap="round" stroke-linejoin="round" stroke-width="3.000000"
	d="
M1058.500000,7.500000 
	C1051.725098,8.212734 1051.986694,8.214380 1051.940918,15.499628 
	C1051.865356,27.499239 1052.613647,39.513153 1051.500000,51.500000 
"/>
<path fill="none" opacity="1.000000" stroke="#000000" stroke-linecap="round" stroke-linejoin="round" stroke-width="4.000000"
	d="
M986.500000,13.500000 
	C986.500000,26.166666 986.500000,38.833332 986.500000,51.500000 
"/>
<path fill="none" opacity="1.000000" stroke="#000000" stroke-linecap="round" stroke-linejoin="round" stroke-width="5.000000"
	d="
M150.500000,13.500000 
	C149.690109,26.166666 149.690109,38.833332 150.500000,51.500000 
"/>
<path fill="none" opacity="1.000000" stroke="#000000" stroke-linecap="round" stroke-linejoin="round" stroke-width="3.000000"
	d="
M779.500000,190.000000 
	C773.000000,190.333328 766.502441,190.881836 759.999512,190.954987 
	C746.667847,191.104965 733.332458,191.086823 720.000427,190.954132 
	C715.164307,190.906006 710.333313,190.333267 705.500000,190.000076 
	C704.318054,189.918594 703.209839,189.960831 703.000000,191.500000 
"/>
<path fill="none" opacity="1.000000" stroke="#000000" stroke-linecap="round" stroke-linejoin="round" stroke-width="3.000000"
	d="
M1175.500000,190.500000 
	C1166.015503,191.552856 1156.494629,190.652847 1147.001221,191.029953 
	C1138.995361,191.347961 1130.988403,189.593246 1123.005981,191.032974 
	C1120.009155,191.573471 1117.462769,189.232773 1114.500000,190.000000 
"/>
<path fill="none" opacity="1.000000" stroke="#000000" stroke-linecap="round" stroke-linejoin="round" stroke-width="3.000000"
	d="
M340.500000,194.500000 
	C340.256927,193.344254 341.024292,192.044144 340.049194,191.000000 
	C324.333344,191.000000 308.666626,191.009140 293.000031,190.978561 
	C291.999725,190.976608 291.000000,190.666672 290.000000,190.500000 
"/>
<path fill="none" opacity="1.000000" stroke="#000000" stroke-linecap="round" stroke-linejoin="round" stroke-width="4.000000"
	d="
M265.000000,88.000000 
	C269.834259,88.000000 274.668488,88.000000 280.012787,88.000000 
	C280.750000,90.026039 281.162537,92.779427 280.954620,95.496529 
	C279.973145,108.325745 280.753571,121.167793 280.500000,134.000000 
"/>
<path fill="none" opacity="1.000000" stroke="#000000" stroke-linecap="round" stroke-linejoin="round" stroke-width="2.000000"
	d="
M1217.500000,168.500000 
	C1205.166626,168.500000 1192.833374,168.500000 1180.500000,168.500000 
"/>
<path fill="none" opacity="1.000000" stroke="#000000" stroke-linecap="round" stroke-linejoin="round" stroke-width="3.000000"
	d="
M263.000000,166.500000 
	C264.148224,155.848663 263.313446,145.165802 263.446777,134.499329 
	C263.565521,124.997215 263.584473,115.501389 263.894409,105.996559 
	C264.215118,96.161102 264.576538,86.253166 262.540833,76.000000 
	C254.673752,76.000000 246.836884,76.000000 239.000000,76.000000 
	C228.000000,76.000000 216.999878,76.021660 206.000259,75.956841 
	C205.164993,75.951912 204.333328,75.333336 203.500000,75.000008 
"/>
<path fill="none" opacity="1.000000" stroke="#000000" stroke-linecap="round" stroke-linejoin="round" stroke-width="3.000000"
	d="
M297.500000,71.000000 
	C310.833344,71.000000 324.166656,71.000000 337.500000,71.000000 
"/>
<path fill="none" opacity="1.000000" stroke="#000000" stroke-linecap="round" stroke-linejoin="round" stroke-width="5.000000"
	d="
M183.500000,16.500000 
	C181.775772,23.127728 183.853989,29.802008 183.236969,36.521759 
	C182.770004,41.607491 182.703125,46.834511 182.500000,52.000000 
"/>
<path fill="none" opacity="1.000000" stroke="#000000" stroke-linecap="round" stroke-linejoin="round" stroke-width="4.000000"
	d="
M50.500000,11.500000 
	C50.500000,25.000000 50.500000,38.500000 50.500000,52.000000 
"/>
<path fill="none" opacity="1.000000" stroke="#000000" stroke-linecap="round" stroke-linejoin="round" stroke-width="3.000000"
	d="
M718.500000,12.500000 
	C713.683533,11.844354 708.932556,11.283832 703.988586,11.910101 
	C694.040039,13.170334 683.998779,12.432668 674.000244,12.406993 
	C671.023376,12.399349 668.036682,11.770278 664.997803,11.966346 
	C661.838989,12.170159 659.861938,11.934911 657.916321,16.235973 
	C656.245300,19.929878 656.311096,23.114626 656.084839,26.505659 
	C655.530029,34.819099 656.619141,43.185715 655.500000,51.500000 
"/>
<path fill="none" opacity="1.000000" stroke="#000000" stroke-linecap="round" stroke-linejoin="round" stroke-width="3.000000"
	d="
M887.500000,17.000000 
	C886.694092,28.666666 886.657776,40.333332 887.500000,52.000000 
"/>
<path fill="none" opacity="1.000000" stroke="#000000" stroke-linecap="round" stroke-linejoin="round" stroke-width="3.000000"
	d="
M151.500000,97.000000 
	C153.946655,97.860008 154.208267,99.206902 154.213058,101.999634 
	C154.232529,113.327995 153.163666,124.703156 154.931564,136.010696 
	C155.184067,137.625671 154.516556,139.384506 154.246887,141.272430 
	C149.568344,142.255951 144.979813,141.026398 140.478775,141.889313 
	C138.603256,142.248886 137.621155,140.846375 137.395660,138.510071 
	C136.698700,131.289108 139.635208,124.224648 138.019318,116.995682 
	C136.562164,110.476860 138.470032,104.003502 138.402374,97.416130 
	C142.402588,95.997696 146.484055,96.641937 150.500000,96.500000 
"/>
<path fill="none" opacity="1.000000" stroke="#000000" stroke-linecap="round" stroke-linejoin="round" stroke-width="3.000000"
	d="
M1251.500000,12.500000 
	C1242.166626,12.528915 1232.841309,13.604429 1223.494507,12.549120 
	C1221.140015,12.283287 1218.016479,17.275417 1218.008057,21.000019 
	C1217.984741,31.333300 1218.000000,41.666668 1218.000000,52.000000 
"/>
<path fill="none" opacity="1.000000" stroke="#000000" stroke-linecap="round" stroke-linejoin="round" stroke-width="4.000000"
	d="
M906.500000,89.500000 
	C907.916443,94.058632 905.199951,98.294312 905.770874,103.027641 
	C906.885437,112.266747 906.666687,121.666664 907.000061,131.000000 
"/>
<path fill="none" opacity="1.000000" stroke="#000000" stroke-linecap="round" stroke-linejoin="round" stroke-width="4.000000"
	d="
M850.500000,14.500000 
	C850.150146,13.879137 851.204346,12.615509 849.997253,12.551006 
	C844.670288,12.266334 839.323975,11.883489 834.001953,12.059353 
	C823.150940,12.417920 812.341492,13.181045 801.475769,11.675043 
	C798.670959,11.286298 795.496155,11.824405 792.504822,12.060677 
	C791.010254,12.178719 790.369019,13.515745 790.514221,14.998611 
	C790.746033,17.367535 788.975647,16.237207 788.000000,16.500000 
"/>
<path fill="none" opacity="1.000000" stroke="#000000" stroke-linecap="round" stroke-linejoin="round" stroke-width="4.000000"
	d="
M481.000000,12.000000 
	C480.155365,25.324860 480.613800,38.666004 480.500000,52.000000 
"/>
<path fill="none" opacity="1.000000" stroke="#000000" stroke-linecap="round" stroke-linejoin="round" stroke-width="4.000000"
	d="
M787.500000,13.000000 
	C787.500000,25.833334 787.500000,38.666668 787.500000,51.500000 
"/>
<path fill="none" opacity="1.000000" stroke="#000000" stroke-linecap="round" stroke-linejoin="round" stroke-width="2.000000"
	d="
M1232.500000,160.500000 
	C1215.833374,160.457031 1199.166626,161.658279 1182.500000,160.500000 
"/>
<path fill="none" opacity="1.000000" stroke="#000000" stroke-linecap="round" stroke-linejoin="round" stroke-width="4.000000"
	d="
M724.500000,15.500000 
	C722.151672,17.460659 721.336914,19.842688 721.415161,23.002102 
	C721.650452,32.496273 721.500000,42.000000 721.500000,51.500000 
"/>
<path fill="none" opacity="1.000000" stroke="#000000" stroke-linecap="round" stroke-linejoin="round" stroke-width="4.000000"
	d="
M414.500000,14.500000 
	C414.500000,26.833334 414.500000,39.166668 414.500000,51.500000 
"/>
<path fill="none" opacity="1.000000" stroke="#000000" stroke-linecap="round" stroke-linejoin="round" stroke-width="3.000000"
	d="
M1085.500000,11.500000 
	C1084.551636,23.155500 1085.197754,34.833813 1084.989380,46.499809 
	C1084.956543,48.339794 1085.343384,50.228184 1084.500000,52.000000 
"/>
<path fill="none" opacity="1.000000" stroke="#000000" stroke-linecap="round" stroke-linejoin="round" stroke-width="4.000000"
	d="
M953.500000,14.500000 
	C951.675781,21.429007 952.728149,28.496880 952.530945,35.500870 
	C952.376282,40.996517 952.500000,46.500000 952.500000,52.000000 
"/>
<path fill="none" opacity="1.000000" stroke="#000000" stroke-linecap="round" stroke-linejoin="round" stroke-width="2.000000"
	d="
M967.500000,257.500000 
	C974.112976,263.944458 973.978882,264.423370 970.060486,274.024689 
	C965.956360,284.080841 962.333374,294.333344 958.500000,304.500000 
"/>
<path fill="none" opacity="1.000000" stroke="#000000" stroke-linecap="round" stroke-linejoin="round" stroke-width="3.000000"
	d="
M842.500000,168.500000 
	C828.853210,166.703369 815.190857,166.184204 801.500000,168.000000 
"/>
<path fill="none" opacity="1.000000" stroke="#000000" stroke-linecap="round" stroke-linejoin="round" stroke-width="4.000000"
	d="
M1017.500000,167.500000 
	C1006.833313,167.836716 996.166687,166.296005 985.500000,167.500000 
"/>
<path fill="none" opacity="1.000000" stroke="#000000" stroke-linecap="round" stroke-linejoin="round" stroke-width="3.000000"
	d="
M1156.500000,83.500000 
	C1149.691528,82.314957 1142.830078,83.514191 1135.996826,83.046898 
	C1132.181274,82.785980 1128.333374,83.000000 1124.500000,83.000000 
"/>
<path fill="none" opacity="1.000000" stroke="#000000" stroke-linecap="round" stroke-linejoin="round" stroke-width="3.000000"
	d="
M98.500000,160.500000 
	C97.253654,160.920319 95.811760,161.183746 96.005592,162.999405 
	C97.411316,176.167191 95.946831,189.333176 95.987144,202.500046 
	C96.039703,219.666550 95.552361,236.848999 96.152695,253.994659 
	C96.573822,266.022339 95.921577,278.000000 96.003624,290.500000 
	C100.487999,290.500000 104.994003,290.496033 109.499992,290.502930 
	C110.557762,290.504547 111.785660,290.793121 111.503769,288.999420 
	C111.107361,286.476990 113.094002,287.589874 114.002113,287.554779 
	C117.496902,287.419739 121.000000,287.500000 124.500000,287.500000 
"/>
<path fill="none" opacity="1.000000" stroke="#000000" stroke-linecap="round" stroke-linejoin="round" stroke-width="3.000000"
	d="
M612.500061,197.499985 
	C612.833435,198.833313 613.166748,200.166641 613.496948,201.487259 
	C622.671265,201.706558 631.877258,200.959564 641.000000,202.500000 
"/>
<path fill="none" opacity="1.000000" stroke="#000000" stroke-linecap="round" stroke-linejoin="round" stroke-width="3.000000"
	d="
M1060.000000,71.000000 
	C1054.956421,68.759514 1049.638672,70.270752 1044.496460,70.152252 
	C1031.673706,69.856773 1018.833374,70.421989 1005.999939,70.429825 
	C1003.227112,70.431519 1001.964600,71.253761 1001.995605,74.000046 
	C1002.018188,75.999794 1002.000000,78.000000 1002.000000,80.500000 
	C1000.501526,80.500000 999.000793,80.500000 997.500000,80.500000 
"/>
<path fill="none" opacity="1.000000" stroke="#000000" stroke-linecap="round" stroke-linejoin="round" stroke-width="4.000000"
	d="
M9.500000,22.000000 
	C11.493661,22.035173 12.440192,23.911322 12.875379,25.047724 
	C16.459732,34.407543 22.436649,42.706432 24.831587,52.344040 
	C27.843441,52.745682 30.671721,53.122841 33.500000,53.500000 
"/>
<path fill="none" opacity="1.000000" stroke="#000000" stroke-linecap="round" stroke-linejoin="round" stroke-width="3.000000"
	d="
M651.500000,12.000000 
	C637.155090,11.172393 622.825256,13.418439 608.508728,12.379620 
	C602.750305,11.961786 597.151428,12.314839 591.500000,13.000000 
"/>
<path fill="none" opacity="1.000000" stroke="#000000" stroke-linecap="round" stroke-linejoin="round" stroke-width="4.000000"
	d="
M773.500000,12.000000 
	C771.138428,14.242668 768.490784,12.398932 765.998962,12.446593 
	C758.335083,12.593182 750.666016,12.562940 743.000244,12.479520 
	C737.165771,12.416029 731.333313,12.166667 725.500000,12.000001 
"/>
<path fill="none" opacity="1.000000" stroke="#000000" stroke-linecap="round" stroke-linejoin="round" stroke-width="2.000000"
	d="
M537.500000,142.500000 
	C537.458801,147.468643 539.953369,151.800476 541.086060,156.479172 
	C542.711243,163.191971 545.313232,169.655518 546.500000,176.500000 
"/>
<path fill="none" opacity="1.000000" stroke="#000000" stroke-linecap="round" stroke-linejoin="round" stroke-width="3.000000"
	d="
M881.500000,71.500000 
	C881.662903,81.017738 883.519714,90.439346 883.024902,100.001289 
	C882.723450,105.827652 882.666626,111.666664 882.499939,117.500000 
"/>
<path fill="none" opacity="1.000000" stroke="#000000" stroke-linecap="round" stroke-linejoin="round" stroke-width="2.000000"
	d="
M505.500000,290.500000 
	C495.833344,290.500000 486.166656,290.500000 476.500000,290.500000 
"/>
<path fill="none" opacity="1.000000" stroke="#000000" stroke-linecap="round" stroke-linejoin="round" stroke-width="3.000000"
	d="
M1237.500000,73.500000 
	C1237.879883,76.879829 1236.612061,78.446808 1232.994385,78.051651 
	C1230.523804,77.781799 1227.988159,77.844559 1225.502563,78.033691 
	C1220.910156,78.383141 1216.571167,77.696892 1212.500000,75.500000 
"/>
<path fill="none" opacity="1.000000" stroke="#000000" stroke-linecap="round" stroke-linejoin="round" stroke-width="3.000000"
	d="
M241.000000,192.500000 
	C240.577499,191.589157 240.685211,190.629028 239.014786,190.394623 
	C234.100266,189.704956 229.343597,190.460373 224.491135,190.902679 
	C217.527969,191.537399 210.310349,191.945374 203.536011,191.180923 
	C190.469879,189.706421 177.465866,192.164352 164.500000,190.500000 
"/>
<path fill="none" opacity="1.000000" stroke="#000000" stroke-linecap="round" stroke-linejoin="round" stroke-width="3.000000"
	d="
M873.500000,77.499992 
	C872.965698,75.509201 872.431396,73.518402 871.822632,71.250000 
	C854.336487,71.250000 836.668213,71.250000 818.887939,71.250000 
	C817.586304,74.166664 819.652344,77.333336 819.000000,80.500000 
"/>
<path fill="none" opacity="1.000000" stroke="#000000" stroke-linecap="round" stroke-linejoin="round" stroke-width="3.000000"
	d="
M470.500000,145.500000 
	C473.833344,146.911774 477.166656,144.820847 480.750000,145.653610 
	C480.750000,148.675385 480.750000,151.850739 480.750000,155.213943 
	C485.157288,155.485657 489.328644,155.742828 493.500000,156.000000 
"/>
<path fill="none" opacity="1.000000" stroke="#000000" stroke-linecap="round" stroke-linejoin="round" stroke-width="3.000000"
	d="
M1213.000000,12.500000 
	C1205.166626,11.469347 1197.312012,12.639917 1189.505981,12.343521 
	C1181.507324,12.039819 1173.427612,13.673088 1165.494385,11.520636 
	C1164.372070,11.216156 1163.353394,12.383123 1162.501587,12.372726 
	C1160.518066,12.348514 1158.323364,14.286246 1156.500000,12.000000 
"/>
<path fill="none" opacity="1.000000" stroke="#000000" stroke-linecap="round" stroke-linejoin="round" stroke-width="2.000000"
	d="
M694.500000,70.500000 
	C685.502625,70.809273 676.482239,69.875298 667.500000,71.000000 
"/>
<path fill="none" opacity="1.000000" stroke="#000000" stroke-linecap="round" stroke-linejoin="round" stroke-width="3.000000"
	d="
M1016.500000,12.500000 
	C1004.522522,10.713890 992.550842,13.424232 980.465454,12.412213 
	C974.410400,11.905167 967.738464,10.478195 961.481689,12.953767 
	C960.106628,13.497813 958.500000,11.196238 957.000000,13.000000 
"/>
<path fill="none" opacity="1.000000" stroke="#000000" stroke-linecap="round" stroke-linejoin="round" stroke-width="3.000000"
	d="
M911.500000,71.000000 
	C901.833313,71.000000 892.166687,71.000000 882.500000,71.000000 
"/>
<path fill="none" opacity="1.000000" stroke="#000000" stroke-linecap="round" stroke-linejoin="round" stroke-width="4.000000"
	d="
M642.000000,252.500000 
	C641.355530,261.333344 641.068481,270.166656 642.000000,279.000000 
"/>
<path fill="none" opacity="1.000000" stroke="#000000" stroke-linecap="round" stroke-linejoin="round" stroke-width="3.000000"
	d="
M466.500000,12.000000 
	C459.333344,12.000000 452.103943,11.404956 445.016022,12.151956 
	C436.329071,13.067474 427.596466,10.841182 419.000000,13.000000 
"/>
<path fill="none" opacity="1.000000" stroke="#000000" stroke-linecap="round" stroke-linejoin="round" stroke-width="2.000000"
	d="
M923.500000,288.500000 
	C914.833313,288.500000 906.166687,288.500000 897.500000,288.500000 
"/>
<path fill="none" opacity="1.000000" stroke="#000000" stroke-linecap="round" stroke-linejoin="round" stroke-width="3.000000"
	d="
M490.500000,164.500000 
	C488.500000,162.278564 485.416504,163.398224 484.681702,164.610168 
	C480.860931,170.911804 475.105865,167.264389 469.974731,168.903107 
	C470.175537,160.494156 468.675018,153.035828 470.265228,145.085083 
	C464.381531,147.160797 459.120911,144.414520 454.000000,146.000000 
"/>
<path fill="none" opacity="1.000000" stroke="#000000" stroke-linecap="round" stroke-linejoin="round" stroke-width="4.000000"
	d="
M246.000000,13.000000 
	C240.174515,12.558496 234.380524,12.242319 228.498230,12.292726 
	C218.014511,12.382564 207.499039,13.185781 196.965134,11.757010 
	C193.976059,11.351584 190.116898,11.057099 187.000000,13.000000 
"/>
<path fill="none" opacity="1.000000" stroke="#000000" stroke-linecap="round" stroke-linejoin="round" stroke-width="3.000000"
	d="
M843.000000,72.000000 
	C843.035461,84.008278 843.306458,96.001190 843.793884,108.008369 
	C844.225037,118.628258 842.834351,129.314621 842.913818,140.000641 
	C842.925903,141.625229 843.065063,143.876434 840.008423,144.110031 
	C837.409180,144.308670 837.117249,147.064682 837.083374,149.001465 
	C836.978394,154.998672 836.674927,161.018295 837.500000,167.000000 
"/>
<path fill="none" opacity="1.000000" stroke="#000000" stroke-linecap="round" stroke-linejoin="round" stroke-width="2.000000"
	d="
M554.500000,75.500000 
	C553.247681,80.775894 554.877991,86.231956 553.501465,91.500092 
	C550.500000,91.500000 547.500000,91.500000 544.500000,91.500000 
"/>
<path fill="none" opacity="1.000000" stroke="#000000" stroke-linecap="round" stroke-linejoin="round" stroke-width="2.000000"
	d="
M617.500000,145.500000 
	C609.166687,145.500000 600.833313,145.500000 592.500000,145.500000 
"/>
<path fill="none" opacity="1.000000" stroke="#000000" stroke-linecap="round" stroke-linejoin="round" stroke-width="2.000000"
	d="
M539.500000,255.500000 
	C531.374573,258.765564 522.855591,257.111450 514.500000,257.500000 
"/>
<path fill="none" opacity="1.000000" stroke="#000000" stroke-linecap="round" stroke-linejoin="round" stroke-width="3.000000"
	d="
M681.000000,194.500000 
	C680.940613,193.153259 681.303223,191.753769 679.953064,190.408188 
	C673.500000,192.029282 666.500000,190.247101 659.500000,190.500000 
"/>
<path fill="none" opacity="1.000000" stroke="#000000" stroke-linecap="round" stroke-linejoin="round" stroke-width="3.000000"
	d="
M87.500000,70.500000 
	C98.500000,70.660629 109.500000,70.074638 121.558403,71.134377 
	C120.025269,83.341660 120.767609,96.167244 120.959419,109.000610 
	C121.146233,121.500023 121.000000,134.004410 121.000000,146.046906 
	C119.398201,147.759476 117.904572,147.451630 116.500000,147.500000 
"/>
<path fill="none" opacity="1.000000" stroke="#000000" stroke-linecap="round" stroke-linejoin="round" stroke-width="3.000000"
	d="
M348.000000,166.000000 
	C349.769897,166.682190 351.562256,167.010208 353.499298,167.042282 
	C363.999237,167.216080 374.511597,166.547729 385.002563,167.470932 
	C385.649536,167.527878 386.333344,167.166656 387.000000,167.000000 
"/>
<path fill="none" opacity="1.000000" stroke="#000000" stroke-linecap="round" stroke-linejoin="round" stroke-width="3.000000"
	d="
M1151.500122,14.500001 
	C1151.333374,27.000002 1151.166748,39.500000 1151.000122,52.000000 
"/>
<path fill="none" opacity="1.000000" stroke="#000000" stroke-linecap="round" stroke-linejoin="round" stroke-width="4.000000"
	d="
M644.500000,72.500000 
	C644.500000,78.333336 644.344482,84.172287 644.555054,89.998009 
	C644.693848,93.837868 643.183105,95.240509 639.500000,94.500000 
"/>
<path fill="none" opacity="1.000000" stroke="#000000" stroke-linecap="round" stroke-linejoin="round" stroke-width="2.000000"
	d="
M474.500000,290.500000 
	C466.833344,290.500000 459.166656,290.500000 451.500000,290.500000 
"/>
<path fill="none" opacity="1.000000" stroke="#000000" stroke-linecap="round" stroke-linejoin="round" stroke-width="3.000000"
	d="
M1077.500000,194.500000 
	C1077.894897,191.438400 1076.775391,190.022415 1073.496582,190.475388 
	C1067.174927,191.348709 1060.855591,190.933960 1054.494141,190.619461 
	C1047.353149,190.266434 1040.166870,190.949112 1032.999878,190.963699 
	C1027.166870,190.975586 1021.333313,190.666656 1015.500000,190.500000 
"/>
<path fill="none" opacity="1.000000" stroke="#000000" stroke-linecap="round" stroke-linejoin="round" stroke-width="2.000000"
	d="
M375.500000,290.500000 
	C367.833344,290.500000 360.166656,290.500000 352.500000,290.500000 
"/>
<path fill="none" opacity="1.000000" stroke="#000000" stroke-linecap="round" stroke-linejoin="round" stroke-width="2.000000"
	d="
M300.500000,290.500000 
	C292.833344,290.500000 285.166656,290.500000 277.500000,290.500000 
"/>
<path fill="none" opacity="1.000000" stroke="#000000" stroke-linecap="round" stroke-linejoin="round" stroke-width="4.000000"
	d="
M289.500000,168.500000 
	C281.845276,167.892120 274.191315,167.266205 266.500000,167.500000 
"/>
<path fill="none" opacity="1.000000" stroke="#000000" stroke-linecap="round" stroke-linejoin="round" stroke-width="3.000000"
	d="
M591.000000,228.500000 
	C589.492981,234.770630 587.989441,240.998734 587.222656,247.467133 
	C586.839050,250.703644 584.965027,253.949585 585.000000,257.500000 
"/>
<path fill="none" opacity="1.000000" stroke="#000000" stroke-linecap="round" stroke-linejoin="round" stroke-width="2.000000"
	d="
M595.500000,275.500000 
	C600.346191,278.430847 605.796692,279.927246 611.009766,281.975098 
	C618.471375,284.906158 626.000000,287.666656 633.500000,290.500000 
"/>
<path fill="none" opacity="1.000000" stroke="#000000" stroke-linecap="round" stroke-linejoin="round" stroke-width="2.000000"
	d="
M251.500000,290.500000 
	C244.166672,290.500000 236.833328,290.500000 229.500000,290.500000 
"/>
<path fill="none" opacity="1.000000" stroke="#000000" stroke-linecap="round" stroke-linejoin="round" stroke-width="2.000000"
	d="
M399.500000,290.500000 
	C392.166656,290.500000 384.833344,290.500000 377.500000,290.500000 
"/>
<path fill="none" opacity="1.000000" stroke="#000000" stroke-linecap="round" stroke-linejoin="round" stroke-width="2.000000"
	d="
M275.500000,290.500000 
	C268.166656,290.500000 260.833344,290.500000 253.500000,290.500000 
"/>
<path fill="none" opacity="1.000000" stroke="#000000" stroke-linecap="round" stroke-linejoin="round" stroke-width="3.000000"
	d="
M89.000000,76.500000 
	C93.858910,78.410896 98.957024,77.937698 104.000046,77.995819 
	C106.166428,78.020782 108.333336,78.000000 110.500000,78.000000 
"/>
<path fill="none" opacity="1.000000" stroke="#000000" stroke-linecap="round" stroke-linejoin="round" stroke-width="3.000000"
	d="
M1081.500000,12.000000 
	C1071.647949,11.780329 1061.825439,12.432833 1052.000000,13.000000 
"/>
<path fill="none" opacity="1.000000" stroke="#000000" stroke-linecap="round" stroke-linejoin="round" stroke-width="3.000000"
	d="
M1185.000000,13.000000 
	C1185.000000,24.000000 1185.022827,35.000095 1184.977539,45.999908 
	C1184.970093,47.833900 1184.666748,49.666676 1184.500122,51.500008 
"/>
<path fill="none" opacity="1.000000" stroke="#000000" stroke-linecap="round" stroke-linejoin="round" stroke-width="3.000000"
	d="
M259.500000,197.500000 
	C260.166656,197.000000 261.410706,196.501663 261.412140,195.999741 
	C261.429779,189.878708 265.790863,190.892319 269.499176,191.023407 
	C275.165375,191.223679 280.851868,190.445862 286.506348,191.464828 
	C287.921509,191.719833 288.846283,191.191452 289.654297,189.577240 
	C290.344818,188.197861 290.402222,186.009995 292.500000,185.500000 
"/>
<path fill="none" opacity="1.000000" stroke="#000000" stroke-linecap="round" stroke-linejoin="round" stroke-width="2.000000"
	d="
M224.500000,281.500000 
	C225.687347,281.760956 227.259308,280.675751 228.082596,283.369568 
	C223.167725,293.045837 215.632553,301.942474 209.922775,312.443359 
	C215.115799,316.996155 218.631729,323.301300 223.500000,328.500000 
"/>
<path fill="none" opacity="1.000000" stroke="#000000" stroke-linecap="round" stroke-linejoin="round" stroke-width="4.000000"
	d="
M533.750000,11.000000 
	C532.366760,12.629416 530.579895,13.259445 528.500977,12.992535 
	C517.041870,11.521357 505.418427,13.876410 494.000000,11.500000 
	C491.361877,14.677321 487.246582,10.837914 484.500000,13.500000 
"/>
<path fill="none" opacity="1.000000" stroke="#000000" stroke-linecap="round" stroke-linejoin="round" stroke-width="2.000000"
	d="
M1137.000000,155.500000 
	C1143.833374,155.500000 1150.666626,155.500000 1157.500000,155.500000 
"/>
<path fill="none" opacity="1.000000" stroke="#000000" stroke-linecap="round" stroke-linejoin="round" stroke-width="3.000000"
	d="
M1035.500000,71.499992 
	C1035.845337,72.830215 1036.190674,74.160439 1036.668213,76.000000 
	C1042.833130,76.000000 1049.166626,76.020897 1055.499878,75.986206 
	C1057.213623,75.976814 1059.058716,76.460381 1060.500000,75.000000 
"/>
<path fill="none" opacity="1.000000" stroke="#000000" stroke-linecap="round" stroke-linejoin="round" stroke-width="2.000000"
	d="
M155.500000,155.500000 
	C148.995728,155.500000 142.491455,155.500000 135.589615,155.500000 
	C137.529449,160.112152 137.132751,164.301361 136.500000,168.500000 
"/>
<path fill="none" opacity="1.000000" stroke="#000000" stroke-linecap="round" stroke-linejoin="round" stroke-width="4.000000"
	d="
M280.500000,12.500000 
	C273.823090,12.371272 267.106262,13.041676 260.500000,11.500000 
"/>
<path fill="none" opacity="1.000000" stroke="#000000" stroke-linecap="round" stroke-linejoin="round" stroke-width="2.000000"
	d="
M287.500000,192.000000 
	C283.333344,198.666672 279.166656,205.333328 275.000000,212.000000 
"/>
<path fill="none" opacity="1.000000" stroke="#000000" stroke-linecap="round" stroke-linejoin="round" stroke-width="3.000000"
	d="
M1060.500000,164.500000 
	C1060.540894,166.228500 1060.382568,167.584396 1057.999268,167.541779 
	C1052.810791,167.448975 1047.638062,167.277252 1042.500000,166.500000 
"/>
<path fill="none" opacity="1.000000" stroke="#000000" stroke-linecap="round" stroke-linejoin="round" stroke-width="4.000000"
	d="
M863.500000,123.500000 
	C857.000000,123.500000 850.500000,123.500000 844.000000,123.500000 
"/>
<path fill="none" opacity="1.000000" stroke="#000000" stroke-linecap="round" stroke-linejoin="round" stroke-width="5.000000"
	d="
M588.500000,41.000000 
	C587.545898,41.298725 585.824036,40.031742 585.958374,42.502266 
	C586.130066,45.660583 586.000000,48.835308 586.000000,51.891735 
	C592.228455,54.247673 598.489136,51.343765 604.500000,53.000000 
"/>
<path fill="none" opacity="1.000000" stroke="#000000" stroke-linecap="round" stroke-linejoin="round" stroke-width="3.000000"
	d="
M311.500000,12.499999 
	C301.666656,12.666666 291.833344,12.833333 282.000000,12.999999 
"/>
<path fill="none" opacity="1.000000" stroke="#000000" stroke-linecap="round" stroke-linejoin="round" stroke-width="4.000000"
	d="
M1051.000000,12.500000 
	C1044.500977,12.146932 1037.920166,13.389928 1031.500000,11.500000 
"/>
<path fill="none" opacity="1.000000" stroke="#000000" stroke-linecap="round" stroke-linejoin="round" stroke-width="3.000000"
	d="
M938.500000,191.000000 
	C932.166687,189.458725 925.833313,189.458725 919.500000,191.000000 
"/>
<path fill="none" opacity="1.000000" stroke="#000000" stroke-linecap="round" stroke-linejoin="round" stroke-width="4.000000"
	d="
M947.000000,12.500000 
	C938.166687,11.115771 929.333313,13.097616 920.500000,12.500000 
"/>
<path fill="none" opacity="1.000000" stroke="#000000" stroke-linecap="round" stroke-linejoin="round" stroke-width="3.000000"
	d="
M1089.000000,13.000000 
	C1093.502075,12.889328 1097.962280,12.315485 1102.495361,12.235416 
	C1111.995361,12.067613 1121.484619,13.523292 1131.018433,12.125896 
	C1135.913330,11.408450 1141.000000,12.000000 1146.000000,12.000000 
"/>
<path fill="none" opacity="1.000000" stroke="#000000" stroke-linecap="round" stroke-linejoin="round" stroke-width="3.000000"
	d="
M180.500000,12.500000 
	C171.632553,10.859049 162.826385,12.346611 153.996613,12.950444 
	C152.700363,13.039090 151.221909,13.558012 150.000000,12.500000 
"/>
<path fill="none" opacity="1.000000" stroke="#000000" stroke-linecap="round" stroke-linejoin="round" stroke-width="3.000000"
	d="
M216.500000,33.500000 
	C215.417389,39.641911 216.272430,45.836193 216.000000,52.000000 
"/>
<path fill="none" opacity="1.000000" stroke="#000000" stroke-linecap="round" stroke-linejoin="round" stroke-width="4.000000"
	d="
M336.500000,123.500000 
	C326.500000,123.500000 316.500000,123.500000 306.500000,123.500000 
"/>
<path fill="none" opacity="1.000000" stroke="#000000" stroke-linecap="round" stroke-linejoin="round" stroke-width="2.000000"
	d="
M222.500000,291.000000 
	C216.527222,289.853546 210.495972,290.811554 204.500000,290.500000 
"/>
<path fill="none" opacity="1.000000" stroke="#000000" stroke-linecap="round" stroke-linejoin="round" stroke-width="4.000000"
	d="
M961.000000,167.000000 
	C952.833313,167.760620 944.666687,167.837280 936.500000,167.000000 
"/>
<path fill="none" opacity="1.000000" stroke="#000000" stroke-linecap="round" stroke-linejoin="round" stroke-width="3.000000"
	d="
M264.000000,135.000000 
	C275.500000,135.000000 287.000000,135.000000 298.500000,135.000000 
"/>
<path fill="none" opacity="1.000000" stroke="#000000" stroke-linecap="round" stroke-linejoin="round" stroke-width="4.000000"
	d="
M311.000000,158.500000 
	C319.500000,158.500000 328.000000,158.500000 336.500000,158.500000 
"/>
<path fill="none" opacity="1.000000" stroke="#000000" stroke-linecap="round" stroke-linejoin="round" stroke-width="2.000000"
	d="
M469.500000,90.000000 
	C470.181213,86.666664 469.821899,83.357483 469.595795,79.993561 
	C469.343384,76.237961 467.843292,75.271500 464.500000,76.500000 
"/>
<path fill="none" opacity="1.000000" stroke="#000000" stroke-linecap="round" stroke-linejoin="round" stroke-width="3.000000"
	d="
M919.500000,193.500000 
	C918.808044,191.858643 918.123169,190.075897 915.999390,190.028778 
	C911.668152,189.932648 907.332214,189.941696 903.000488,190.024200 
	C900.783630,190.066437 900.466431,191.714127 900.500000,193.500000 
"/>
<path fill="none" opacity="1.000000" stroke="#000000" stroke-linecap="round" stroke-linejoin="round" stroke-width="2.000000"
	d="
M618.500000,82.500000 
	C613.833313,82.333336 609.167847,82.108673 604.499695,82.014175 
	C598.165039,81.885933 591.846313,83.238426 585.465759,81.636383 
	C583.349548,81.105057 580.833313,82.166672 578.500000,82.500008 
"/>
<path fill="none" opacity="1.000000" stroke="#000000" stroke-linecap="round" stroke-linejoin="round" stroke-width="4.000000"
	d="
M287.500000,53.000000 
	C279.833344,52.833332 272.166656,52.666668 264.500000,52.500000 
"/>
<path fill="none" opacity="1.000000" stroke="#000000" stroke-linecap="round" stroke-linejoin="round" stroke-width="3.000000"
	d="
M1158.500000,71.500000 
	C1152.833374,71.166664 1147.166626,70.833328 1141.500000,70.500000 
"/>
<path fill="none" opacity="1.000000" stroke="#000000" stroke-linecap="round" stroke-linejoin="round" stroke-width="5.000000"
	d="
M55.500000,76.000000 
	C58.237694,76.862946 60.959915,78.538216 63.360722,75.076797 
	C63.844784,74.378876 65.793076,74.372643 66.992905,74.548439 
	C73.984619,75.572823 81.003044,74.705582 88.000000,75.000000 
"/>
<path fill="none" opacity="1.000000" stroke="#000000" stroke-linecap="round" stroke-linejoin="round" stroke-width="2.000000"
	d="
M304.500000,74.500000 
	C304.500000,81.833336 304.500000,89.166664 304.500000,96.500000 
"/>
<path fill="none" opacity="1.000000" stroke="#000000" stroke-linecap="round" stroke-linejoin="round" stroke-width="2.000000"
	d="
M501.500000,168.500000 
	C495.872772,166.992859 490.127258,169.506897 484.500000,168.000000 
"/>
<path fill="none" opacity="1.000000" stroke="#000000" stroke-linecap="round" stroke-linejoin="round" stroke-width="3.000000"
	d="
M221.500000,7.500000 
	C219.816666,7.500000 218.133331,7.500000 215.872742,7.500000 
	C216.359009,15.166667 215.363312,22.333334 216.500000,29.500000 
"/>
<path fill="none" opacity="1.000000" stroke="#000000" stroke-linecap="round" stroke-linejoin="round" stroke-width="3.000000"
	d="
M496.500000,53.000000 
	C491.401428,51.611153 485.973297,51.950584 481.032257,52.375343 
	C475.162750,52.879929 469.306427,52.195770 463.500000,53.000000 
"/>
<path fill="none" opacity="1.000000" stroke="#000000" stroke-linecap="round" stroke-linejoin="round" stroke-width="3.000000"
	d="
M1262.500000,8.000000 
	C1257.166626,8.000000 1251.833374,8.000000 1246.500000,8.000000 
"/>
<path fill="none" opacity="1.000000" stroke="#000000" stroke-linecap="round" stroke-linejoin="round" stroke-width="4.000000"
	d="
M1133.500000,51.500000 
	C1133.290894,52.290947 1133.212769,53.151516 1131.999023,53.008671 
	C1122.517212,51.892830 1112.998047,52.780575 1103.500000,52.500000 
"/>
<path fill="none" opacity="1.000000" stroke="#000000" stroke-linecap="round" stroke-linejoin="round" stroke-width="3.000000"
	d="
M536.500000,145.500000 
	C531.166687,146.371338 525.833313,146.231995 520.500000,145.500000 
"/>
<path fill="none" opacity="1.000000" stroke="#000000" stroke-linecap="round" stroke-linejoin="round" stroke-width="3.000000"
	d="
M635.500000,80.999992 
	C633.500000,81.166656 631.502930,81.397186 629.499451,81.488510 
	C622.332153,81.815163 620.701294,83.416641 621.631836,90.482643 
	C621.910034,92.595070 621.566101,94.500000 621.500000,96.500000 
"/>
<path fill="none" opacity="1.000000" stroke="#000000" stroke-linecap="round" stroke-linejoin="round" stroke-width="4.000000"
	d="
M202.500000,52.500000 
	C210.833328,52.500000 219.166718,52.485519 227.499954,52.512177 
	C229.174606,52.517532 230.896790,52.198730 232.500000,53.000000 
"/>
<path fill="none" opacity="1.000000" stroke="#000000" stroke-linecap="round" stroke-linejoin="round" stroke-width="5.000000"
	d="
M250.000000,32.500000 
	C248.103180,36.197380 248.972595,40.185326 249.132736,43.994419 
	C249.244385,46.650429 249.418732,49.327995 249.500000,52.000000 
"/>
<path fill="none" opacity="1.000000" stroke="#000000" stroke-linecap="round" stroke-linejoin="round" stroke-width="4.000000"
	d="
M803.500000,52.500000 
	C792.833313,52.500000 782.166687,52.500000 771.500000,52.500000 
"/>
<path fill="none" opacity="1.000000" stroke="#000000" stroke-linecap="round" stroke-linejoin="round" stroke-width="3.000000"
	d="
M112.000000,161.500000 
	C112.000000,163.000000 112.000000,164.500000 112.000000,165.895935 
	C112.856712,166.274277 113.658684,166.692886 114.503181,166.990997 
	C120.172035,168.992157 122.224571,167.705109 121.400528,162.014404 
	C120.699020,157.169937 120.521072,152.354874 120.500000,147.500000 
"/>
<path fill="none" opacity="1.000000" stroke="#000000" stroke-linecap="round" stroke-linejoin="round" stroke-width="4.000000"
	d="
M1204.500000,74.500000 
	C1196.833374,74.500000 1189.166626,74.500000 1181.500000,74.500000 
"/>
<path fill="none" opacity="1.000000" stroke="#000000" stroke-linecap="round" stroke-linejoin="round" stroke-width="3.000000"
	d="
M151.500000,71.000000 
	C146.234436,68.664780 140.783218,72.270157 135.500000,70.500000 
"/>
<path fill="none" opacity="1.000000" stroke="#000000" stroke-linecap="round" stroke-linejoin="round" stroke-width="4.000000"
	d="
M915.500000,53.000000 
	C922.470337,51.588139 929.506958,52.959324 936.500000,52.500000 
"/>
<path fill="none" opacity="1.000000" stroke="#000000" stroke-linecap="round" stroke-linejoin="round" stroke-width="2.000000"
	d="
M569.000000,256.500000 
	C563.869385,257.392212 558.693787,257.587341 553.500000,257.500000 
"/>
<path fill="none" opacity="1.000000" stroke="#000000" stroke-linecap="round" stroke-linejoin="round" stroke-width="3.000000"
	d="
M554.500000,146.000000 
	C549.336243,146.256454 544.137878,145.440933 539.000000,146.500000 
"/>
<path fill="none" opacity="1.000000" stroke="#000000" stroke-linecap="round" stroke-linejoin="round" stroke-width="4.000000"
	d="
M1019.500000,36.500000 
	C1018.909241,41.666668 1020.883545,46.833332 1019.500000,52.000000 
"/>
<path fill="none" opacity="1.000000" stroke="#000000" stroke-linecap="round" stroke-linejoin="round" stroke-width="4.000000"
	d="
M877.500000,168.500000 
	C888.640503,166.580002 899.829468,167.907578 911.000000,168.000000 
"/>
<path fill="none" opacity="1.000000" stroke="#000000" stroke-linecap="round" stroke-linejoin="round" stroke-width="3.000000"
	d="
M1014.500000,190.000000 
	C1009.500000,190.333328 1004.500000,190.666672 999.500000,191.000000 
"/>
<path fill="none" opacity="1.000000" stroke="#000000" stroke-linecap="round" stroke-linejoin="round" stroke-width="2.000000"
	d="
M807.500000,290.000000 
	C807.801331,288.209351 806.557739,288.495117 805.500000,288.497040 
	C801.500000,288.504364 797.500000,288.500000 793.500000,288.500000 
"/>
<path fill="none" opacity="1.000000" stroke="#000000" stroke-linecap="round" stroke-linejoin="round" stroke-width="3.000000"
	d="
M186.500000,72.000000 
	C186.155487,74.341721 186.225174,76.411316 189.498795,75.990631 
	C193.154587,75.520836 196.993851,77.099007 200.500000,75.000000 
"/>
<path fill="none" opacity="1.000000" stroke="#000000" stroke-linecap="round" stroke-linejoin="round" stroke-width="4.000000"
	d="
M1098.500000,190.000000 
	C1103.474609,190.929810 1108.498169,190.389755 1113.500000,190.500000 
"/>
<path fill="none" opacity="1.000000" stroke="#000000" stroke-linecap="round" stroke-linejoin="round" stroke-width="4.000000"
	d="
M1066.500000,52.500000 
	C1056.500000,52.500000 1046.500000,52.500000 1036.500000,52.500000 
"/>
<path fill="none" opacity="1.000000" stroke="#000000" stroke-linecap="round" stroke-linejoin="round" stroke-width="2.000000"
	d="
M1183.500000,7.999999 
	C1178.500000,7.833332 1173.500000,7.666666 1168.500000,7.499999 
"/>
<path fill="none" opacity="1.000000" stroke="#000000" stroke-linecap="round" stroke-linejoin="round" stroke-width="4.000000"
	d="
M873.000000,14.500000 
	C872.820496,15.983932 872.180420,17.053440 870.507874,16.477104 
	C866.746277,15.180904 863.174133,16.997623 859.500000,17.000000 
"/>
<path fill="none" opacity="1.000000" stroke="#000000" stroke-linecap="round" stroke-linejoin="round" stroke-width="4.000000"
	d="
M670.500000,52.500000 
	C662.166687,52.500000 653.833252,52.485523 645.500061,52.512177 
	C643.825378,52.517532 642.103210,52.198730 640.500000,53.000000 
"/>
<path fill="none" opacity="1.000000" stroke="#000000" stroke-linecap="round" stroke-linejoin="round" stroke-width="4.000000"
	d="
M97.500000,52.500000 
	C87.834641,52.742264 78.148849,51.799915 68.500000,53.000000 
"/>
<path fill="none" opacity="1.000000" stroke="#000000" stroke-linecap="round" stroke-linejoin="round" stroke-width="4.000000"
	d="
M165.500000,52.500000 
	C155.500000,52.500000 145.500000,52.500000 135.500000,52.500000 
"/>
<path fill="none" opacity="1.000000" stroke="#000000" stroke-linecap="round" stroke-linejoin="round" stroke-width="2.000000"
	d="
M688.000000,8.500000 
	C686.994324,6.855989 685.224121,7.228620 684.026672,7.588764 
	C680.452393,8.663766 677.000000,7.563609 673.500000,7.500000 
"/>
<path fill="none" opacity="1.000000" stroke="#000000" stroke-linecap="round" stroke-linejoin="round" stroke-width="2.000000"
	d="
M591.500000,142.500000 
	C590.472412,139.648254 590.719971,137.827713 594.501343,137.963394 
	C602.497009,138.250275 610.500000,138.333328 618.500000,138.500000 
"/>
<path fill="none" opacity="1.000000" stroke="#000000" stroke-linecap="round" stroke-linejoin="round" stroke-width="3.000000"
	d="
M921.500000,132.500000 
	C913.666687,132.333328 905.811646,131.766006 898.010193,132.188065 
	C894.672913,132.368622 891.295532,131.577820 888.000000,132.500000 
"/>
<path fill="none" opacity="1.000000" stroke="#000000" stroke-linecap="round" stroke-linejoin="round" stroke-width="2.000000"
	d="
M527.000000,110.000000 
	C529.872864,114.407272 530.742554,119.436211 531.500000,124.500000 
"/>
<path fill="none" opacity="1.000000" stroke="#000000" stroke-linecap="round" stroke-linejoin="round" stroke-width="3.000000"
	d="
M871.500000,158.500000 
	C862.333313,158.333344 853.166687,158.166672 844.000000,158.000000 
"/>
<path fill="none" opacity="1.000000" stroke="#000000" stroke-linecap="round" stroke-linejoin="round" stroke-width="2.000000"
	d="
M112.000000,290.500000 
	C116.833336,290.500000 121.666664,290.500000 126.500000,290.500000 
"/>
<path fill="none" opacity="1.000000" stroke="#000000" stroke-linecap="round" stroke-linejoin="round" stroke-width="4.000000"
	d="
M707.500000,52.500000 
	C717.166687,52.500000 726.833313,52.500000 736.500000,52.500000 
"/>
<path fill="none" opacity="1.000000" stroke="#000000" stroke-linecap="round" stroke-linejoin="round" stroke-width="2.000000"
	d="
M129.500000,290.500000 
	C136.833328,290.500000 144.166672,290.500000 151.500000,290.500000 
"/>
<path fill="none" opacity="1.000000" stroke="#000000" stroke-linecap="round" stroke-linejoin="round" stroke-width="4.000000"
	d="
M972.500000,52.500000 
	C982.165344,52.742264 991.851135,51.799915 1001.500000,53.000000 
"/>
<path fill="none" opacity="1.000000" stroke="#000000" stroke-linecap="round" stroke-linejoin="round" stroke-width="4.000000"
	d="
M885.500000,53.000000 
	C891.138367,51.871223 896.837097,52.793926 902.500000,52.500000 
"/>
<path fill="none" opacity="1.000000" stroke="#000000" stroke-linecap="round" stroke-linejoin="round" stroke-width="2.000000"
	d="
M1176.500000,71.500000 
	C1168.939575,70.078674 1168.242676,70.647141 1168.496094,78.000137 
	C1168.524780,78.832481 1168.500000,79.666664 1168.500000,80.500000 
"/>
<path fill="none" opacity="1.000000" stroke="#000000" stroke-linecap="round" stroke-linejoin="round" stroke-width="3.000000"
	d="
M502.500000,146.000000 
	C499.500000,145.833328 496.501160,145.639557 493.499542,145.510681 
	C491.829315,145.438980 490.105347,145.377365 489.500000,147.500000 
"/>
<path fill="none" opacity="1.000000" stroke="#000000" stroke-linecap="round" stroke-linejoin="round" stroke-width="4.000000"
	d="
M428.500000,52.500000 
	C419.166656,52.500000 409.833344,52.500000 400.500000,52.500000 
"/>
<path fill="none" opacity="1.000000" stroke="#000000" stroke-linecap="round" stroke-linejoin="round" stroke-width="4.000000"
	d="
M528.500000,129.500000 
	C523.728027,129.982742 519.170593,128.463348 514.500000,128.000000 
"/>
<path fill="none" opacity="1.000000" stroke="#000000" stroke-linecap="round" stroke-linejoin="round" stroke-width="4.000000"
	d="
M1198.500000,52.500000 
	C1189.166626,52.500000 1179.833374,52.500000 1170.500000,52.500000 
"/>
<path fill="none" opacity="1.000000" stroke="#000000" stroke-linecap="round" stroke-linejoin="round" stroke-width="3.000000"
	d="
M842.000000,144.500000 
	C844.101135,149.683228 842.168701,155.244598 843.500000,160.500000 
"/>
<path fill="none" opacity="1.000000" stroke="#000000" stroke-linecap="round" stroke-linejoin="round" stroke-width="3.000000"
	d="
M624.500000,72.500000 
	C624.500000,74.000771 624.500000,75.501541 624.500000,77.000000 
	C615.500000,77.000000 607.000000,77.000000 598.500000,77.000000 
"/>
<path fill="none" opacity="1.000000" stroke="#000000" stroke-linecap="round" stroke-linejoin="round" stroke-width="3.000000"
	d="
M200.500000,72.000000 
	C196.471786,69.935928 192.055389,70.751312 188.038742,71.289253 
	C185.791977,71.590149 182.650635,68.814064 181.000000,72.500000 
"/>
<path fill="none" opacity="1.000000" stroke="#000000" stroke-linecap="round" stroke-linejoin="round" stroke-width="3.000000"
	d="
M46.500000,12.500000 
	C36.500000,12.666667 26.500000,12.833333 16.500000,13.000000 
"/>
<path fill="none" opacity="1.000000" stroke="#000000" stroke-linecap="round" stroke-linejoin="round" stroke-width="3.000000"
	d="
M278.500000,7.500000 
	C274.166656,8.627652 269.833344,7.808828 265.500000,7.500000 
"/>
<path fill="none" opacity="1.000000" stroke="#000000" stroke-linecap="round" stroke-linejoin="round" stroke-width="3.000000"
	d="
M1049.500000,7.500000 
	C1045.166626,8.431234 1040.833374,7.947149 1036.500000,7.500000 
"/>
<path fill="none" opacity="1.000000" stroke="#000000" stroke-linecap="round" stroke-linejoin="round" stroke-width="3.000000"
	d="
M1116.500000,7.500000 
	C1112.166626,8.627652 1107.833374,7.808828 1103.500000,7.500000 
"/>
<path fill="none" opacity="1.000000" stroke="#000000" stroke-linecap="round" stroke-linejoin="round" stroke-width="3.000000"
	d="
M983.500000,7.500000 
	C979.166687,8.840197 974.833313,7.454854 970.500000,7.500000 
"/>
<path fill="none" opacity="1.000000" stroke="#000000" stroke-linecap="round" stroke-linejoin="round" stroke-width="3.000000"
	d="
M147.500000,7.500000 
	C143.166672,8.840197 138.833328,7.454854 134.500000,7.500000 
"/>
<path fill="none" opacity="1.000000" stroke="#000000" stroke-linecap="round" stroke-linejoin="round" stroke-width="4.000000"
	d="
M1021.500000,16.000000 
	C1019.475708,16.654514 1019.444946,18.255194 1019.479431,20.000406 
	C1019.548523,23.499041 1019.500000,27.000000 1019.500000,30.500000 
"/>
<path fill="none" opacity="1.000000" stroke="#000000" stroke-linecap="round" stroke-linejoin="round" stroke-width="2.000000"
	d="
M751.000000,7.999999 
	C746.833313,7.833333 742.666687,7.666666 738.500000,7.499999 
"/>
<path fill="none" opacity="1.000000" stroke="#000000" stroke-linecap="round" stroke-linejoin="round" stroke-width="3.000000"
	d="
M729.500000,166.500000 
	C720.500000,167.806793 711.500000,166.240005 702.500000,166.500000 
"/>
<path fill="none" opacity="1.000000" stroke="#000000" stroke-linecap="round" stroke-linejoin="round" stroke-width="3.000000"
	d="
M883.000000,133.500000 
	C881.798035,138.666672 883.108398,143.833969 882.992554,148.999832 
	C882.857910,155.000549 882.666687,161.000000 882.500000,167.000000 
"/>
<path fill="none" opacity="1.000000" stroke="#000000" stroke-linecap="round" stroke-linejoin="round" stroke-width="2.000000"
	d="
M239.000000,267.000000 
	C236.478180,271.153564 232.999588,274.733093 231.500000,279.500000 
"/>
<path fill="none" opacity="1.000000" stroke="#000000" stroke-linecap="round" stroke-linejoin="round" stroke-width="3.000000"
	d="
M128.000000,288.000000 
	C135.199387,286.759979 142.337067,288.173004 149.500000,288.500000 
"/>
<path fill="none" opacity="1.000000" stroke="#000000" stroke-linecap="round" stroke-linejoin="round" stroke-width="2.000000"
	d="
M621.500000,111.500000 
	C621.500000,117.833336 621.500000,124.166664 621.500000,130.500000 
"/>
<path fill="none" opacity="1.000000" stroke="#000000" stroke-linecap="round" stroke-linejoin="round" stroke-width="3.000000"
	d="
M619.500000,7.500000 
	C615.500000,8.701083 611.500000,7.725425 607.500000,7.500000 
"/>
<path fill="none" opacity="1.000000" stroke="#000000" stroke-linecap="round" stroke-linejoin="round" stroke-width="3.000000"
	d="
M919.500000,12.500000 
	C913.035461,12.614372 906.474365,13.967950 900.250000,11.000000 
"/>
<path fill="none" opacity="1.000000" stroke="#000000" stroke-linecap="round" stroke-linejoin="round" stroke-width="2.000000"
	d="
M554.500000,109.500000 
	C554.496155,118.678650 554.222351,127.839073 553.702759,137.011490 
	C553.492981,140.713669 556.247864,144.482651 555.418823,148.483170 
	C555.093384,150.053467 556.099670,153.116409 552.500000,152.500000 
"/>
<path fill="none" opacity="1.000000" stroke="#000000" stroke-linecap="round" stroke-linejoin="round" stroke-width="3.000000"
	d="
M581.500000,139.000000 
	C582.457458,142.109665 582.131836,151.227356 581.000000,153.000000 
"/>
<path fill="none" opacity="1.000000" stroke="#000000" stroke-linecap="round" stroke-linejoin="round" stroke-width="3.000000"
	d="
M453.000000,90.000000 
	C455.910828,91.136017 458.924896,91.093056 462.000702,91.045387 
	C468.501404,90.944649 475.017487,90.651588 481.500000,91.500000 
"/>
<path fill="none" opacity="1.000000" stroke="#000000" stroke-linecap="round" stroke-linejoin="round" stroke-width="2.000000"
	d="
M1021.500000,71.000000 
	C1022.954346,73.350533 1022.436707,75.967270 1022.488586,78.500237 
	C1022.517151,79.893990 1022.395508,81.316940 1024.500000,81.000000 
"/>
<path fill="none" opacity="1.000000" stroke="#000000" stroke-linecap="round" stroke-linejoin="round" stroke-width="5.000000"
	d="
M249.000000,15.500000 
	C249.000000,19.333334 249.000000,23.166666 249.000000,27.000000 
"/>
<path fill="none" opacity="1.000000" stroke="#000000" stroke-linecap="round" stroke-linejoin="round" stroke-width="3.000000"
	d="
M26.000000,8.000000 
	C20.333334,8.000000 14.664244,7.903265 9.001130,8.045115 
	C6.556414,8.106350 5.378419,9.252359 6.415645,12.031483 
	C6.907029,13.348088 6.500000,15.000000 6.500000,16.500000 
"/>
<path fill="none" opacity="1.000000" stroke="#000000" stroke-linecap="round" stroke-linejoin="round" stroke-width="3.000000"
	d="
M498.500000,138.500000 
	C500.008392,139.624649 502.018311,138.241791 504.000000,140.583420 
	C504.000000,144.833298 504.000000,150.166656 504.000000,155.500000 
"/>
<path fill="none" opacity="1.000000" stroke="#000000" stroke-linecap="round" stroke-linejoin="round" stroke-width="4.000000"
	d="
M944.000000,76.500000 
	C942.522461,74.874702 944.401184,72.639183 942.552979,70.477005 
	C940.666687,70.761223 938.333313,69.984772 936.000000,71.000000 
"/>
<path fill="none" opacity="1.000000" stroke="#000000" stroke-linecap="round" stroke-linejoin="round" stroke-width="2.000000"
	d="
M280.500000,71.000000 
	C275.500000,70.833328 270.500000,70.666664 265.500000,70.500000 
"/>
<path fill="none" opacity="1.000000" stroke="#000000" stroke-linecap="round" stroke-linejoin="round" stroke-width="2.000000"
	d="
M379.500000,7.500000 
	C375.166656,7.455038 370.833344,8.663535 366.500000,7.500000 
"/>
<path fill="none" opacity="1.000000" stroke="#000000" stroke-linecap="round" stroke-linejoin="round" stroke-width="2.000000"
	d="
M266.500000,224.500000 
	C264.166656,228.166656 261.833313,231.833328 259.500000,235.500000 
"/>
<path fill="none" opacity="1.000000" stroke="#000000" stroke-linecap="round" stroke-linejoin="round" stroke-width="3.000000"
	d="
M630.500000,8.500000 
	C625.692444,6.954160 623.362122,7.913719 622.000000,12.000000 
"/>
<path fill="none" opacity="1.000000" stroke="#000000" stroke-linecap="round" stroke-linejoin="round" stroke-width="4.000000"
	d="
M774.500000,11.500000 
	C777.754028,13.252494 781.136841,12.429934 784.500000,12.000000 
"/>
<path fill="none" opacity="1.000000" stroke="#000000" stroke-linecap="round" stroke-linejoin="round" stroke-width="3.000000"
	d="
M582.000000,71.500000 
	C580.133789,74.680046 581.345764,78.167908 581.000000,81.500000 
"/>
<path fill="none" opacity="1.000000" stroke="#000000" stroke-linecap="round" stroke-linejoin="round" stroke-width="2.000000"
	d="
M869.500000,133.500000 
	C868.571045,139.992264 864.140198,137.479584 860.500000,137.000000 
"/>
<path fill="none" opacity="1.000000" stroke="#000000" stroke-linecap="round" stroke-linejoin="round" stroke-width="2.000000"
	d="
M819.500000,8.000000 
	C814.869568,6.819070 810.151184,8.100883 805.500000,7.500000 
"/>
<path fill="none" opacity="1.000000" stroke="#000000" stroke-linecap="round" stroke-linejoin="round" stroke-width="2.000000"
	d="
M205.500000,284.500000 
	C204.242264,282.121979 202.042297,284.455170 200.647964,283.200226 
	C199.963135,285.435089 201.335403,286.415619 202.500000,287.500000 
"/>
<path fill="none" opacity="1.000000" stroke="#000000" stroke-linecap="round" stroke-linejoin="round" stroke-width="2.000000"
	d="
M860.500000,162.500000 
	C854.833313,162.500000 849.166687,162.500000 843.500000,162.500000 
"/>
<path fill="none" opacity="1.000000" stroke="#000000" stroke-linecap="round" stroke-linejoin="round" stroke-width="4.000000"
	d="
M471.500000,131.000000 
	C468.090698,133.188004 470.040192,136.636917 469.500000,139.500000 
"/>
<path fill="none" opacity="1.000000" stroke="#000000" stroke-linecap="round" stroke-linejoin="round" stroke-width="3.000000"
	d="
M182.500000,134.500000 
	C182.166672,137.500000 181.833344,140.500000 181.500000,143.500000 
"/>
<path fill="none" opacity="1.000000" stroke="#000000" stroke-linecap="round" stroke-linejoin="round" stroke-width="3.000000"
	d="
M543.500000,12.500000 
	C540.522888,11.921226 537.376709,14.385882 534.500000,12.000000 
"/>
<path fill="none" opacity="1.000000" stroke="#000000" stroke-linecap="round" stroke-linejoin="round" stroke-width="2.000000"
	d="
M643.500000,75.000000 
	C637.928711,76.235146 637.928711,76.235146 639.500000,80.500000 
"/>
<path fill="none" opacity="1.000000" stroke="#000000" stroke-linecap="round" stroke-linejoin="round" stroke-width="3.000000"
	d="
M594.000000,208.500000 
	C593.101196,213.823105 592.974915,219.266907 591.349182,224.500000 
	C589.833313,224.500000 588.166687,224.500000 586.500000,224.500000 
"/>
<path fill="none" opacity="1.000000" stroke="#000000" stroke-linecap="round" stroke-linejoin="round" stroke-width="3.000000"
	d="
M111.000000,288.000000 
	C108.166664,288.000000 105.333336,288.000000 102.500000,288.000000 
"/>
<path fill="none" opacity="1.000000" stroke="#000000" stroke-linecap="round" stroke-linejoin="round" stroke-width="2.000000"
	d="
M434.500000,7.500000 
	C438.166656,8.644066 441.833344,7.566831 445.500000,7.500000 
"/>
<path fill="none" opacity="1.000000" stroke="#000000" stroke-linecap="round" stroke-linejoin="round" stroke-width="3.000000"
	d="
M533.000000,245.500000 
	C531.962952,248.241898 533.734314,250.808273 533.500000,253.500000 
"/>
<path fill="none" opacity="1.000000" stroke="#000000" stroke-linecap="round" stroke-linejoin="round" stroke-width="2.000000"
	d="
M82.500000,8.000000 
	C78.207939,6.760284 73.815346,8.134351 69.500000,7.500000 
"/>
<path fill="none" opacity="1.000000" stroke="#000000" stroke-linecap="round" stroke-linejoin="round" stroke-width="3.000000"
	d="
M512.500000,129.500000 
	C506.833344,127.101730 501.166656,129.583893 495.500000,129.500000 
"/>
<path fill="none" opacity="1.000000" stroke="#000000" stroke-linecap="round" stroke-linejoin="round" stroke-width="2.000000"
	d="
M502.500000,279.500000 
	C500.816681,279.500000 499.133331,279.500000 497.289246,279.500000 
	C496.991394,282.549469 495.461945,285.317688 499.000000,287.000000 
"/>
<path fill="none" opacity="1.000000" stroke="#000000" stroke-linecap="round" stroke-linejoin="round" stroke-width="2.000000"
	d="
M49.000000,78.500000 
	C51.495205,78.261383 54.057758,79.033020 56.500000,78.000000 
"/>
<path fill="none" opacity="1.000000" stroke="#000000" stroke-linecap="round" stroke-linejoin="round" stroke-width="3.000000"
	d="
M514.500000,249.500000 
	C515.257874,252.984283 517.510803,253.478378 520.500000,252.500000 
"/>
<path fill="none" opacity="1.000000" stroke="#000000" stroke-linecap="round" stroke-linejoin="round" stroke-width="2.000000"
	d="
M1244.000000,165.000000 
	C1244.665283,167.500000 1244.916870,170.000000 1244.000000,172.500000 
"/>
<path fill="none" opacity="1.000000" stroke="#000000" stroke-linecap="round" stroke-linejoin="round" stroke-width="2.000000"
	d="
M540.500000,216.500000 
	C538.893250,218.986435 536.328125,218.357986 533.500000,218.561203 
	C533.500000,220.486252 533.500000,222.493118 533.500000,224.500000 
"/>
<path fill="none" opacity="1.000000" stroke="#000000" stroke-linecap="round" stroke-linejoin="round" stroke-width="3.000000"
	d="
M602.500000,203.500000 
	C602.500000,202.833328 602.500000,202.166672 602.500488,201.500076 
	C600.513306,201.896561 598.525574,202.292984 596.519836,202.692993 
	C595.221008,204.120880 596.894775,206.547073 595.000000,208.000000 
"/>
<path fill="none" opacity="1.000000" stroke="#000000" stroke-linecap="round" stroke-linejoin="round" stroke-width="2.000000"
	d="
M325.500000,162.500000 
	C318.964294,161.273849 312.495850,162.671494 306.027740,162.999176 
	C305.161316,164.565063 304.415588,166.158005 304.501587,167.959564 
	C302.220367,168.918610 299.921722,169.570969 297.500000,168.500000 
"/>
<path fill="none" opacity="1.000000" stroke="#000000" stroke-linecap="round" stroke-linejoin="round" stroke-width="2.000000"
	d="
M867.500000,159.000000 
	C867.500000,161.500000 867.500000,164.000000 867.500000,166.500000 
"/>
<path fill="none" opacity="1.000000" stroke="#000000" stroke-linecap="round" stroke-linejoin="round" stroke-width="2.000000"
	d="
M716.500000,290.000000 
	C718.685486,286.933716 721.876160,289.228363 724.500000,288.500000 
"/>
<path fill="none" opacity="1.000000" stroke="#000000" stroke-linecap="round" stroke-linejoin="round" stroke-width="3.000000"
	d="
M661.500000,73.000000 
	C657.342896,70.411636 657.076721,70.392624 654.500000,72.500000 
"/>
<path fill="none" opacity="1.000000" stroke="#000000" stroke-linecap="round" stroke-linejoin="round" stroke-width="3.000000"
	d="
M1030.500000,12.000000 
	C1028.259155,14.276828 1025.407104,11.970074 1023.000000,13.000000 
"/>
<path fill="none" opacity="1.000000" stroke="#000000" stroke-linecap="round" stroke-linejoin="round" stroke-width="3.000000"
	d="
M145.500000,158.500000 
	C143.000000,158.833328 140.500000,159.166672 138.000000,159.500000 
"/>
<path fill="none" opacity="1.000000" stroke="#000000" stroke-linecap="round" stroke-linejoin="round" stroke-width="3.000000"
	d="
M899.500000,12.000000 
	C897.542542,13.693005 895.127869,13.176603 893.012695,12.902035 
	C889.924805,12.501185 889.283691,14.133748 889.286438,16.474079 
	C887.525635,16.634657 886.969238,15.621801 886.500000,14.500000 
"/>
<path fill="none" opacity="1.000000" stroke="#000000" stroke-linecap="round" stroke-linejoin="round" stroke-width="2.000000"
	d="
M511.500000,257.500000 
	C509.002289,257.700806 506.445312,257.013214 504.000000,258.000000 
"/>
<path fill="none" opacity="1.000000" stroke="#000000" stroke-linecap="round" stroke-linejoin="round" stroke-width="3.000000"
	d="
M720.000000,72.000000 
	C715.363770,68.952156 716.751099,72.931854 716.500000,75.000000 
"/>
<path fill="none" opacity="1.000000" stroke="#000000" stroke-linecap="round" stroke-linejoin="round" stroke-width="3.000000"
	d="
M533.500000,228.500000 
	C532.740601,232.058334 535.008057,232.157425 537.500000,232.000000 
"/>
<path fill="none" opacity="1.000000" stroke="#000000" stroke-linecap="round" stroke-linejoin="round" stroke-width="3.000000"
	d="
M509.000000,78.500000 
	C507.654510,80.833336 509.313293,83.166664 509.000000,85.500000 
"/>
<path fill="none" opacity="1.000000" stroke="#000000" stroke-linecap="round" stroke-linejoin="round" stroke-width="3.000000"
	d="
M502.500000,159.500000 
	C498.941162,157.980667 494.996399,160.706436 491.500000,158.500000 
"/>
<path fill="none" opacity="1.000000" stroke="#000000" stroke-linecap="round" stroke-linejoin="round" stroke-width="2.000000"
	d="
M638.500000,135.500000 
	C638.783875,137.824966 637.893066,140.233826 639.000000,142.500000 
"/>
<path fill="none" opacity="1.000000" stroke="#000000" stroke-linecap="round" stroke-linejoin="round" stroke-width="3.000000"
	d="
M299.500000,174.500000 
	C298.166687,176.500000 296.833344,178.500000 295.500000,180.500000 
"/>
<path fill="none" opacity="1.000000" stroke="#000000" stroke-linecap="round" stroke-linejoin="round" stroke-width="2.000000"
	d="
M510.500000,222.500000 
	C508.333313,222.666519 506.106964,222.057220 504.000000,223.000000 
"/>
<path fill="none" opacity="1.000000" stroke="#000000" stroke-linecap="round" stroke-linejoin="round" stroke-width="2.000000"
	d="
M939.000000,162.000000 
	C934.948853,161.997757 937.532898,166.217926 935.500000,167.500000 
"/>
<path fill="none" opacity="1.000000" stroke="#000000" stroke-linecap="round" stroke-linejoin="round" stroke-width="2.000000"
	d="
M645.500000,279.500000 
	C643.166321,279.830719 640.624268,278.703033 638.500000,280.325592 
	C638.142883,285.447571 644.393372,281.805267 645.011902,285.540649 
	C643.851685,286.518311 642.675842,287.509155 641.500000,288.500000 
"/>
<path fill="none" opacity="1.000000" stroke="#000000" stroke-linecap="round" stroke-linejoin="round" stroke-width="2.000000"
	d="
M837.000000,286.500000 
	C836.045837,289.584442 833.466858,288.200470 831.500000,288.500000 
"/>
<path fill="none" opacity="1.000000" stroke="#000000" stroke-linecap="round" stroke-linejoin="round" stroke-width="3.000000"
	d="
M1146.500000,53.000000 
	C1150.166626,53.000000 1153.833374,53.000000 1157.500000,53.000000 
"/>
<path fill="none" opacity="1.000000" stroke="#000000" stroke-linecap="round" stroke-linejoin="round" stroke-width="3.000000"
	d="
M891.000000,115.500000 
	C891.166687,118.833336 891.333313,122.166664 891.500000,125.500000 
"/>
<path fill="none" opacity="1.000000" stroke="#000000" stroke-linecap="round" stroke-linejoin="round" stroke-width="3.000000"
	d="
M639.500000,143.500000 
	C639.187744,146.966293 641.805969,145.743774 643.500000,146.000000 
"/>
<path fill="none" opacity="1.000000" stroke="#000000" stroke-linecap="round" stroke-linejoin="round" stroke-width="4.000000"
	d="
M1245.500000,53.500000 
	C1242.600342,52.263882 1239.535522,52.513779 1236.500000,52.500000 
"/>
<path fill="none" opacity="1.000000" stroke="#000000" stroke-linecap="round" stroke-linejoin="round" stroke-width="2.000000"
	d="
M301.500000,287.000000 
	C304.498505,285.730164 306.417908,290.215637 309.500000,288.500000 
"/>
<path fill="none" opacity="1.000000" stroke="#000000" stroke-linecap="round" stroke-linejoin="round" stroke-width="2.000000"
	d="
M175.500000,144.500000 
	C173.666672,144.500000 171.833328,144.500000 170.000000,144.500000 
"/>
<path fill="none" opacity="1.000000" stroke="#000000" stroke-linecap="round" stroke-linejoin="round" stroke-width="2.000000"
	d="
M1190.500000,8.500000 
	C1188.981812,6.848640 1187.253784,7.295114 1185.500000,8.000000 
"/>
<path fill="none" opacity="1.000000" stroke="#000000" stroke-linecap="round" stroke-linejoin="round" stroke-width="2.000000"
	d="
M508.500000,122.500000 
	C508.496613,124.348793 510.352509,126.028557 509.000000,128.000000 
"/>
<path fill="none" opacity="1.000000" stroke="#000000" stroke-linecap="round" stroke-linejoin="round" stroke-width="2.000000"
	d="
M1218.000000,12.000000 
	C1216.940063,13.789330 1217.736938,15.392977 1218.500000,17.000000 
"/>
<path fill="none" opacity="1.000000" stroke="#000000" stroke-linecap="round" stroke-linejoin="round" stroke-width="3.000000"
	d="
M46.000000,51.500000 
	C48.812965,54.240105 52.329235,52.525944 55.500000,53.000000 
"/>
<path fill="none" opacity="1.000000" stroke="#000000" stroke-linecap="round" stroke-linejoin="round" stroke-width="3.000000"
	d="
M617.500000,53.000000 
	C620.833313,52.212017 624.166687,53.053825 627.500000,53.000000 
"/>
<path fill="none" opacity="1.000000" stroke="#000000" stroke-linecap="round" stroke-linejoin="round" stroke-width="3.000000"
	d="
M1222.500000,53.000000 
	C1219.166626,52.212017 1215.833374,53.053825 1212.500000,53.000000 
"/>
<path fill="none" opacity="1.000000" stroke="#000000" stroke-linecap="round" stroke-linejoin="round" stroke-width="3.000000"
	d="
M1244.500000,45.500000 
	C1243.527588,47.745968 1242.662476,50.022606 1242.500000,52.500000 
"/>
<path fill="none" opacity="1.000000" stroke="#000000" stroke-linecap="round" stroke-linejoin="round" stroke-width="3.000000"
	d="
M1024.000000,51.500000 
	C1021.187012,54.240105 1017.670776,52.525944 1014.500000,53.000000 
"/>
<path fill="none" opacity="1.000000" stroke="#000000" stroke-linecap="round" stroke-linejoin="round" stroke-width="3.000000"
	d="
M452.500000,53.000000 
	C449.166656,53.000000 445.833344,53.000000 442.500000,53.000000 
"/>
<path fill="none" opacity="1.000000" stroke="#000000" stroke-linecap="round" stroke-linejoin="round" stroke-width="3.000000"
	d="
M647.500000,71.500000 
	C644.721375,73.124672 642.211731,70.445358 639.500000,71.000000 
"/>
<path fill="none" opacity="1.000000" stroke="#000000" stroke-linecap="round" stroke-linejoin="round" stroke-width="4.000000"
	d="
M759.500000,52.500000 
	C756.500000,52.500000 753.500000,52.500000 750.500000,52.500000 
"/>
<path fill="none" opacity="1.000000" stroke="#000000" stroke-linecap="round" stroke-linejoin="round" stroke-width="2.000000"
	d="
M209.500000,70.500000 
	C207.843674,70.770119 206.077469,69.941299 204.500000,71.000000 
"/>
<path fill="none" opacity="1.000000" stroke="#000000" stroke-linecap="round" stroke-linejoin="round" stroke-width="4.000000"
	d="
M693.500000,52.500000 
	C690.161865,52.570938 686.783997,51.846363 683.500000,53.000000 
"/>
<path fill="none" opacity="1.000000" stroke="#000000" stroke-linecap="round" stroke-linejoin="round" stroke-width="3.000000"
	d="
M518.500000,53.000000 
	C515.166687,53.000000 511.833344,53.000000 508.500000,53.000000 
"/>
<path fill="none" opacity="1.000000" stroke="#000000" stroke-linecap="round" stroke-linejoin="round" stroke-width="2.000000"
	d="
M774.000000,289.500000 
	C772.806030,287.789581 771.016724,288.758057 769.500000,288.500000 
"/>
<path fill="none" opacity="1.000000" stroke="#000000" stroke-linecap="round" stroke-linejoin="round" stroke-width="3.000000"
	d="
M1089.500000,52.500000 
	C1086.175049,52.833824 1082.791992,52.006935 1079.500000,53.000000 
"/>
<path fill="none" opacity="1.000000" stroke="#000000" stroke-linecap="round" stroke-linejoin="round" stroke-width="2.000000"
	d="
M876.500000,79.500000 
	C877.789551,80.780418 879.431763,80.473824 881.000000,80.500000 
"/>
<path fill="none" opacity="1.000000" stroke="#000000" stroke-linecap="round" stroke-linejoin="round" stroke-width="2.000000"
	d="
M553.000000,128.500000 
	C551.500000,128.500000 550.000000,128.500000 548.500000,128.500000 
"/>
<path fill="none" opacity="1.000000" stroke="#000000" stroke-linecap="round" stroke-linejoin="round" stroke-width="2.000000"
	d="
M1039.500000,285.500000 
	C1038.150513,286.478424 1038.136597,289.237732 1035.500000,288.500000 
"/>
<path fill="none" opacity="1.000000" stroke="#000000" stroke-linecap="round" stroke-linejoin="round" stroke-width="3.000000"
	d="
M244.500000,53.000000 
	C247.782928,51.825157 251.200073,53.334831 254.500000,52.500000 
"/>
<path fill="none" opacity="1.000000" stroke="#000000" stroke-linecap="round" stroke-linejoin="round" stroke-width="3.000000"
	d="
M186.500000,52.499996 
	C183.500000,52.666664 180.500000,52.833332 177.500000,52.999996 
"/>
<path fill="none" opacity="1.000000" stroke="#000000" stroke-linecap="round" stroke-linejoin="round" stroke-width="3.000000"
	d="
M386.000000,51.500000 
	C385.790161,53.039165 384.456879,53.463657 383.543396,52.926235 
	C381.083069,51.478779 378.833344,53.452728 376.500000,53.000000 
"/>
<path fill="none" opacity="1.000000" stroke="#000000" stroke-linecap="round" stroke-linejoin="round" stroke-width="3.000000"
	d="
M111.500000,53.000000 
	C114.833336,53.080246 118.166664,51.883236 121.500000,53.000000 
"/>
<path fill="none" opacity="1.000000" stroke="#000000" stroke-linecap="round" stroke-linejoin="round" stroke-width="2.000000"
	d="
M150.500000,7.500000 
	C150.587891,9.093604 150.462753,10.639873 149.500000,12.000000 
"/>
<path fill="none" opacity="1.000000" stroke="#000000" stroke-linecap="round" stroke-linejoin="round" stroke-width="2.000000"
	d="
M55.000000,13.000000 
	C56.500000,13.418080 58.000000,14.105346 59.500000,13.000000 
"/>
<path fill="none" opacity="1.000000" stroke="#000000" stroke-linecap="round" stroke-linejoin="round" stroke-width="3.000000"
	d="
M948.500000,53.000000 
	C951.500000,51.478569 954.500000,53.433773 957.500000,53.000000 
"/>
<path fill="none" opacity="1.000000" stroke="#000000" stroke-linecap="round" stroke-linejoin="round" stroke-width="4.000000"
	d="
M816.500000,52.500000 
	C819.500000,52.500000 822.500000,52.500000 825.500000,52.500000 
"/>
<path fill="none" opacity="1.000000" stroke="#000000" stroke-linecap="round" stroke-linejoin="round" stroke-width="2.000000"
	d="
M316.500000,271.000000 
	C315.360657,270.330566 314.275085,269.841614 313.491180,271.495819 
	C312.945892,272.646423 312.959381,273.436981 314.500000,273.500000 
"/>
<path fill="none" opacity="1.000000" stroke="#000000" stroke-linecap="round" stroke-linejoin="round" stroke-width="2.000000"
	d="
M126.000000,80.000008 
	C124.666664,80.333336 123.333336,80.666672 122.000000,81.000008 
"/>
<path fill="none" opacity="1.000000" stroke="#000000" stroke-linecap="round" stroke-linejoin="round" stroke-width="2.000000"
	d="
M548.500000,34.500000 
	C548.768188,35.820641 547.942017,37.278084 549.000000,38.500000 
"/>
<path fill="none" opacity="1.000000" stroke="#000000" stroke-linecap="round" stroke-linejoin="round" stroke-width="3.000000"
	d="
M523.500000,138.500000 
	C521.566284,138.372757 521.299072,140.911896 519.178589,140.525909 
	C519.722107,142.366196 520.111084,143.683090 520.500000,145.000000 
"/>
<path fill="none" opacity="1.000000" stroke="#000000" stroke-linecap="round" stroke-linejoin="round" stroke-width="3.000000"
	d="
M885.500000,199.500000 
	C888.500000,199.833328 891.500000,200.166656 894.500000,200.500000 
"/>
<path fill="none" opacity="1.000000" stroke="#000000" stroke-linecap="round" stroke-linejoin="round" stroke-width="2.000000"
	d="
M259.500000,12.000000 
	C258.340942,13.560777 256.835358,12.349480 255.500000,12.500000 
"/>
<path fill="none" opacity="1.000000" stroke="#000000" stroke-linecap="round" stroke-linejoin="round" stroke-width="2.000000"
	d="
M496.500000,288.000000 
	C495.278076,289.058014 493.820648,288.231781 492.500000,288.500000 
"/>
<path fill="none" opacity="1.000000" stroke="#000000" stroke-linecap="round" stroke-linejoin="round" stroke-width="2.000000"
	d="
M474.500000,12.500000 
	C473.179352,12.231794 471.721924,13.058012 470.500000,12.000000 
"/>
<path fill="none" opacity="1.000000" stroke="#000000" stroke-linecap="round" stroke-linejoin="round" stroke-width="2.000000"
	d="
M1139.500000,70.500000 
	C1137.166626,69.955856 1134.833374,71.861679 1132.500000,70.500000 
"/>
<path fill="none" opacity="1.000000" stroke="#000000" stroke-linecap="round" stroke-linejoin="round" stroke-width="3.000000"
	d="
M841.500000,279.500000 
	C842.549683,281.719757 842.557556,281.782715 840.997131,281.977112 
	C840.012451,282.099792 839.000000,282.000000 838.000000,282.000000 
"/>
<path fill="none" opacity="1.000000" stroke="#000000" stroke-linecap="round" stroke-linejoin="round" stroke-width="2.000000"
	d="
M501.500000,281.500000 
	C500.202698,281.954987 499.036255,283.456665 497.500000,282.000000 
"/>
<path fill="none" opacity="1.000000" stroke="#000000" stroke-linecap="round" stroke-linejoin="round" stroke-width="2.000000"
	d="
M554.000000,92.500000 
	C555.057983,93.721916 554.231812,95.179359 554.500000,96.500000 
"/>
<path fill="none" opacity="1.000000" stroke="#000000" stroke-linecap="round" stroke-linejoin="round" stroke-width="2.000000"
	d="
M404.500000,159.500000 
	C404.333344,160.666672 404.166687,161.833328 404.000000,163.000000 
"/>
<path fill="none" opacity="1.000000" stroke="#000000" stroke-linecap="round" stroke-linejoin="round" stroke-width="2.000000"
	d="
M1033.500000,288.500000 
	C1032.268311,288.605652 1030.838257,288.017090 1030.000000,289.500000 
"/>
<path fill="none" opacity="1.000000" stroke="#000000" stroke-linecap="round" stroke-linejoin="round" stroke-width="2.000000"
	d="
M1197.500000,70.500000 
	C1197.500000,71.666664 1197.500000,72.833336 1197.500000,74.000000 
"/>
<path fill="none" opacity="1.000000" stroke="#000000" stroke-linecap="round" stroke-linejoin="round" stroke-width="2.000000"
	d="
M309.000000,159.000000 
	C307.860443,158.571838 306.902618,157.507523 305.500000,158.000000 
"/>
<path fill="none" opacity="1.000000" stroke="#000000" stroke-linecap="round" stroke-linejoin="round" stroke-width="2.000000"
	d="
M1169.000000,158.000000 
	C1167.627808,156.727921 1166.639526,158.143600 1165.500000,158.500000 
"/>
<path fill="none" opacity="1.000000" stroke="#000000" stroke-linecap="round" stroke-linejoin="round" stroke-width="2.000000"
	d="
M927.000000,8.000000 
	C924.833313,6.940324 922.666687,7.863172 920.500000,8.000000 
"/>
<path fill="none" opacity="1.000000" stroke="#000000" stroke-linecap="round" stroke-linejoin="round" stroke-width="2.000000"
	d="
M318.500000,18.500004 
	C317.333344,18.666672 316.166656,18.833338 315.000000,19.000004 
"/>
<path fill="none" opacity="1.000000" stroke="#000000" stroke-linecap="round" stroke-linejoin="round" stroke-width="3.000000"
	d="
M227.500000,75.000000 
	C227.333328,74.000000 227.442093,72.823959 226.940002,72.038353 
	C226.025269,70.607147 224.940201,70.367706 224.500000,72.500000 
"/>
<path fill="none" opacity="1.000000" stroke="#000000" stroke-linecap="round" stroke-linejoin="round" stroke-width="2.000000"
	d="
M495.000000,130.500000 
	C493.960754,131.666672 494.591431,132.833328 495.000000,134.000000 
"/>
<path fill="none" opacity="1.000000" stroke="#000000" stroke-linecap="round" stroke-linejoin="round" stroke-width="2.000000"
	d="
M939.000000,279.500000 
	C937.833313,279.500000 936.666687,279.500000 935.500000,279.500000 
"/>
<path fill="none" opacity="1.000000" stroke="#000000" stroke-linecap="round" stroke-linejoin="round" stroke-width="2.000000"
	d="
M1171.000000,96.000000 
	C1172.166626,96.166664 1173.333374,96.333336 1174.500000,96.500000 
"/>
<path fill="none" opacity="1.000000" stroke="#000000" stroke-linecap="round" stroke-linejoin="round" stroke-width="2.000000"
	d="
M1244.500000,47.000000 
	C1245.982910,47.838215 1245.394409,49.268280 1245.500000,50.500000 
"/>
<path fill="none" opacity="1.000000" stroke="#000000" stroke-linecap="round" stroke-linejoin="round" stroke-width="2.000000"
	d="
M838.500000,279.500000 
	C836.116760,279.859589 837.889465,281.868561 837.133423,283.083069 
	C835.228455,286.143402 837.603638,286.789246 839.982239,286.393158 
	C840.994446,286.224640 842.858032,286.453705 843.000000,284.500000 
"/>
<path fill="none" opacity="1.000000" stroke="#000000" stroke-linecap="round" stroke-linejoin="round" stroke-width="3.000000"
	d="
M993.500000,199.500000 
	C990.833313,199.666672 988.166687,199.833328 985.500000,200.000000 
"/>
<path fill="none" opacity="1.000000" stroke="#000000" stroke-linecap="round" stroke-linejoin="round" stroke-width="2.000000"
	d="
M586.500000,140.500000 
	C585.333313,140.666656 584.166687,140.833328 583.000000,141.000000 
"/>
<path fill="none" opacity="1.000000" stroke="#000000" stroke-linecap="round" stroke-linejoin="round" stroke-width="2.000000"
	d="
M762.500000,7.499999 
	C760.500000,7.666665 758.500000,7.833332 756.500000,7.999999 
"/>
<path fill="none" opacity="1.000000" stroke="#000000" stroke-linecap="round" stroke-linejoin="round" stroke-width="2.000000"
	d="
M744.500000,279.500000 
	C742.500000,279.500000 740.500000,279.500000 738.500000,279.500000 
"/>
<path fill="none" opacity="1.000000" stroke="#000000" stroke-linecap="round" stroke-linejoin="round" stroke-width="2.000000"
	d="
M942.500000,162.500000 
	C944.007263,163.851044 941.492737,165.648956 943.000000,167.000000 
"/>
<path fill="none" opacity="1.000000" stroke="#000000" stroke-linecap="round" stroke-linejoin="round" stroke-width="3.000000"
	d="
M533.000000,200.000000 
	C531.742981,201.626877 535.744324,204.687851 531.500000,205.500000 
"/>
<path fill="none" opacity="1.000000" stroke="#000000" stroke-linecap="round" stroke-linejoin="round" stroke-width="2.000000"
	d="
M311.000000,155.500000 
	C311.876923,158.324463 307.597473,159.165695 308.500000,162.000000 
"/>
<path fill="none" opacity="1.000000" stroke="#000000" stroke-linecap="round" stroke-linejoin="round" stroke-width="2.000000"
	d="
M469.500000,125.500000 
	C469.977997,127.135536 468.916168,128.925049 470.000000,130.500000 
"/>
<path fill="none" opacity="1.000000" stroke="#000000" stroke-linecap="round" stroke-linejoin="round" stroke-width="2.000000"
	d="
M205.500000,279.500000 
	C203.500000,278.958710 201.500000,278.958710 199.500000,279.500000 
"/>
<path fill="none" opacity="1.000000" stroke="#000000" stroke-linecap="round" stroke-linejoin="round" stroke-width="2.000000"
	d="
M1041.500000,279.500000 
	C1039.500000,279.500000 1037.500000,279.500000 1035.500000,279.500000 
"/>
<path fill="none" opacity="1.000000" stroke="#000000" stroke-linecap="round" stroke-linejoin="round" stroke-width="2.000000"
	d="
M1135.000000,71.500000 
	C1136.774048,72.632408 1136.201050,74.058197 1135.500000,75.500000 
"/>
<path fill="none" opacity="1.000000" stroke="#000000" stroke-linecap="round" stroke-linejoin="round" stroke-width="2.000000"
	d="
M640.000000,284.000000 
	C640.302002,284.806274 637.219543,286.289429 640.500000,286.500000 
"/>
<path fill="none" opacity="1.000000" stroke="#000000" stroke-linecap="round" stroke-linejoin="round" stroke-width="3.000000"
	d="
M583.500000,96.000000 
	C581.972229,96.138885 581.026062,96.971687 581.018799,98.500092 
	C580.979309,106.836563 581.000000,115.173332 581.000000,123.431847 
	C589.500000,124.590462 597.500000,123.715340 606.000000,124.130371 
	C606.000000,115.340111 605.987610,107.170029 606.006714,99.000015 
	C606.013367,96.156845 604.153198,95.974098 601.999939,95.987259 
	C596.000122,96.023933 590.000000,96.000000 584.000000,96.000000 
"/>
</svg>