<svg width="1600" height="400" xmlns="http://www.w3.org/2000/svg">
<line x1="197.67462158203125" y1="29.360187530517578" x2="197.81393432617188" y2="36.880760192871094" stroke="black" stroke-width="2"/>
<line x1="315.6215515136719" y1="64.71581268310547" x2="329.3827819824219" y2="64.85504150390625" stroke="black" stroke-width="2"/>
<line x1="303.1201171875" y1="19.72983741760254" x2="314.38519287109375" y2="19.884714126586914" stroke="black" stroke-width="2"/>
<line x1="459.37451171875" y1="19.769987106323242" x2="469.3760681152344" y2="19.78267478942871" stroke="black" stroke-width="2"/>
<line x1="86.87530517578125" y1="64.89183044433594" x2="111.87530517578125" y2="64.90229797363281" stroke="black" stroke-width="2"/>
<line x1="438.89520263671875" y1="29.37445640563965" x2="438.85986328125" y2="60.625831604003906" stroke="black" stroke-width="2"/>
<line x1="3.1348254680633545" y1="8.121199607849121" x2="9.673962593078613" y2="25.025821685791016" stroke="black" stroke-width="2"/>
<line x1="79.36858367919922" y1="19.719091415405273" x2="89.38841247558594" y2="19.905981063842773" stroke="black" stroke-width="2"/>
<line x1="181.8624267578125" y1="19.927806854248047" x2="193.1313018798828" y2="19.72454833984375" stroke="black" stroke-width="2"/>
<line x1="278.1245422363281" y1="19.77191162109375" x2="288.1259765625" y2="19.7836971282959" stroke="black" stroke-width="2"/>
<line x1="381.8740234375" y1="19.767154693603516" x2="391.8771057128906" y2="19.792285919189453" stroke="black" stroke-width="2"/>
<line x1="406.87493896484375" y1="19.773046493530273" x2="416.8751220703125" y2="19.77461051940918" stroke="black" stroke-width="2"/>
<line x1="251.87368774414062" y1="19.78920555114746" x2="261.8756408691406" y2="19.77345848083496" stroke="black" stroke-width="2"/>
<line x1="161.86761474609375" y1="64.97657775878906" x2="178.12974548339844" y2="64.79136657714844" stroke="black" stroke-width="2"/>
<line x1="103.12352752685547" y1="19.757917404174805" x2="110.62822723388672" y2="19.786848068237305" stroke="black" stroke-width="2"/>
<line x1="26.861928939819336" y1="19.90894889831543" x2="36.88140869140625" y2="19.726058959960938" stroke="black" stroke-width="2"/>
<line x1="156.86305236816406" y1="19.89387321472168" x2="166.88079833984375" y2="19.730222702026367" stroke="black" stroke-width="2"/>
<line x1="38.122955322265625" y1="113.26211547851562" x2="83.1250991821289" y2="113.17936706542969" stroke="black" stroke-width="2"/>
<line x1="124.37055206298828" y1="5.928292751312256" x2="131.88726806640625" y2="6.0384907722473145" stroke="black" stroke-width="2"/>
<line x1="250.635498046875" y1="64.78681182861328" x2="265.6331481933594" y2="64.97467041015625" stroke="black" stroke-width="2"/>
<line x1="363.12255859375" y1="64.81421661376953" x2="375.6291198730469" y2="64.88377380371094" stroke="black" stroke-width="2"/>
<line x1="150.62744140625" y1="62.79098129272461" x2="136.87818908691406" y2="62.6901969909668" stroke="black" stroke-width="2"/>
<line x1="96.63082122802734" y1="74.37506103515625" x2="96.6367416381836" y2="99.37505340576172" stroke="black" stroke-width="2"/>
<line x1="347.15106201171875" y1="38.11955642700195" x2="346.9539489746094" y2="28.123443603515625" stroke="black" stroke-width="2"/>
<line x1="327.4978332519531" y1="28.128395080566406" x2="327.6805114746094" y2="61.87063980102539" stroke="black" stroke-width="2"/>
<line x1="340.7570495605469" y1="58.92749786376953" x2="333.05426025390625" y2="60.19507598876953" stroke="black" stroke-width="2"/>
<line x1="348.1142272949219" y1="51.27286911010742" x2="356.8837890625" y2="51.116127014160156" stroke="black" stroke-width="2"/>
<line x1="400.8643493652344" y1="18.126361846923828" x2="400.8458251953125" y2="4.374702453613281" stroke="black" stroke-width="2"/>
<line x1="67.15154266357422" y1="51.87399673461914" x2="67.06070709228516" y2="26.874324798583984" stroke="black" stroke-width="2"/>
<line x1="488.125244140625" y1="1.6519619226455688" x2="349.37542724609375" y2="1.499389886856079" stroke="black" stroke-width="2"/>
<line x1="335.8956604003906" y1="18.122936248779297" x2="335.8004150390625" y2="5.623662948608398" stroke="black" stroke-width="2"/>
<line x1="440.94549560546875" y1="56.87489700317383" x2="440.93780517578125" y2="33.12489700317383" stroke="black" stroke-width="2"/>
<line x1="107.77998352050781" y1="35.6182861328125" x2="107.88203430175781" y2="49.376800537109375" stroke="black" stroke-width="2"/>
<line x1="57.94508361816406" y1="39.3747673034668" x2="57.92899703979492" y2="51.87474822998047" stroke="black" stroke-width="2"/>
<line x1="381.8791809082031" y1="71.61410522460938" x2="358.12432861328125" y2="71.71435546875" stroke="black" stroke-width="2"/>
<line x1="88.12489318847656" y1="113.47015380859375" x2="196.87525939941406" y2="113.50299072265625" stroke="black" stroke-width="2"/>
<line x1="111.2245101928711" y1="18.190750122070312" x2="110.78958129882812" y2="5.6193060874938965" stroke="black" stroke-width="2"/>
<line x1="271.21868896484375" y1="18.18306541442871" x2="270.7979431152344" y2="4.36973237991333" stroke="black" stroke-width="2"/>
<line x1="51.860145568847656" y1="19.768800735473633" x2="63.10675811767578" y2="19.57366180419922" stroke="black" stroke-width="2"/>
<line x1="346.972412109375" y1="3.6955478191375732" x2="339.4478454589844" y2="2.61690354347229" stroke="black" stroke-width="2"/>
<line x1="374.700439453125" y1="16.879121780395508" x2="374.65582275390625" y2="6.873747825622559" stroke="black" stroke-width="2"/>
<line x1="421.1416931152344" y1="61.877586364746094" x2="421.0271301269531" y2="29.37358283996582" stroke="black" stroke-width="2"/>
<line x1="229.8448028564453" y1="99.47134399414062" x2="233.93214416503906" y2="79.54052734375" stroke="black" stroke-width="2"/>
<line x1="176.14903259277344" y1="18.16538429260254" x2="175.86708068847656" y2="4.370052337646484" stroke="black" stroke-width="2"/>
<line x1="84.3774642944336" y1="1.4005091190338135" x2="6.874274730682373" y2="1.6468524932861328" stroke="black" stroke-width="2"/>
<line x1="147.6635284423828" y1="5.618523597717285" x2="147.76626586914062" y2="18.127946853637695" stroke="black" stroke-width="2"/>
<line x1="17.81624984741211" y1="5.623724937438965" x2="17.764633178710938" y2="18.123512268066406" stroke="black" stroke-width="2"/>
<line x1="45.93330383300781" y1="18.127696990966797" x2="46.04270935058594" y2="5.617721080780029" stroke="black" stroke-width="2"/>
<line x1="355.75994873046875" y1="48.12807846069336" x2="356.0456848144531" y2="35.606075286865234" stroke="black" stroke-width="2"/>
<line x1="253.40235900878906" y1="61.879005432128906" x2="253.65536499023438" y2="44.36460494995117" stroke="black" stroke-width="2"/>
<line x1="325.62786865234375" y1="62.777183532714844" x2="314.3683166503906" y2="62.6839599609375" stroke="black" stroke-width="2"/>
<line x1="356.8984680175781" y1="62.76825714111328" x2="348.1216735839844" y2="62.99872970581055" stroke="black" stroke-width="2"/>
<line x1="460.62493896484375" y1="71.6207504272461" x2="431.87493896484375" y2="71.62665557861328" stroke="black" stroke-width="2"/>
<line x1="347.57293701171875" y1="74.37483978271484" x2="347.5809631347656" y2="109.3751220703125" stroke="black" stroke-width="2"/>
<line x1="195.1166534423828" y1="75.61546325683594" x2="195.43820190429688" y2="100.62740325927734" stroke="black" stroke-width="2"/>
<line x1="253.1250457763672" y1="113.47077178955078" x2="374.37506103515625" y2="113.45307922363281" stroke="black" stroke-width="2"/>
<line x1="359.15692138671875" y1="4.371804714202881" x2="358.9552307128906" y2="18.137165069580078" stroke="black" stroke-width="2"/>
<line x1="252.22320556640625" y1="110.6263198852539" x2="252.35623168945312" y2="75.62207794189453" stroke="black" stroke-width="2"/>
<line x1="379.3750305175781" y1="113.50275421142578" x2="486.8750305175781" y2="113.49153137207031" stroke="black" stroke-width="2"/>
<line x1="331.5941162109375" y1="44.387847900390625" x2="330.8497009277344" y2="28.114721298217773" stroke="black" stroke-width="2"/>
<line x1="131.87200927734375" y1="71.60708618164062" x2="115.62403106689453" y2="71.78842163085938" stroke="black" stroke-width="2"/>
<line x1="439.736572265625" y1="16.87447166442871" x2="439.71832275390625" y2="4.3744988441467285" stroke="black" stroke-width="2"/>
<line x1="465.9851989746094" y1="15.635589599609375" x2="465.8511657714844" y2="4.372308254241943" stroke="black" stroke-width="2"/>
<line x1="309.6900939941406" y1="16.87630271911621" x2="309.7417907714844" y2="4.376516819000244" stroke="black" stroke-width="2"/>
<line x1="424.0073547363281" y1="5.623772144317627" x2="424.0247497558594" y2="18.12548828125" stroke="black" stroke-width="2"/>
<line x1="82.77452087402344" y1="4.374293804168701" x2="82.74932861328125" y2="16.874242782592773" stroke="black" stroke-width="2"/>
<line x1="101.41978454589844" y1="29.38725471496582" x2="100.91880798339844" y2="61.87953186035156" stroke="black" stroke-width="2"/>
<line x1="78.1329116821289" y1="62.815696716308594" x2="68.10749053955078" y2="62.55917739868164" stroke="black" stroke-width="2"/>
<line x1="99.37519073486328" y1="62.749237060546875" x2="86.87491607666016" y2="62.751956939697266" stroke="black" stroke-width="2"/>
<line x1="174.3778076171875" y1="62.77717590332031" x2="161.86854553222656" y2="62.67645263671875" stroke="black" stroke-width="2"/>
<line x1="265.6297607421875" y1="62.73012161254883" x2="254.37315368652344" y2="62.792972564697266" stroke="black" stroke-width="2"/>
<line x1="375.6329345703125" y1="62.8018913269043" x2="368.1067810058594" y2="62.617313385009766" stroke="black" stroke-width="2"/>
<line x1="404.37506103515625" y1="62.74861526489258" x2="386.8748779296875" y2="62.74625015258789" stroke="black" stroke-width="2"/>
<line x1="436.87835693359375" y1="62.84678268432617" x2="425.6148986816406" y2="62.71072769165039" stroke="black" stroke-width="2"/>
<line x1="66.86518096923828" y1="64.69352722167969" x2="78.14299774169922" y2="65.04125213623047" stroke="black" stroke-width="2"/>
<line x1="275.6240539550781" y1="64.78138732910156" x2="288.12542724609375" y2="64.76748657226562" stroke="black" stroke-width="2"/>
<line x1="425.6153564453125" y1="65.00320434570312" x2="438.1317138671875" y2="64.80933380126953" stroke="black" stroke-width="2"/>
<line x1="188.02430725097656" y1="64.95745086669922" x2="194.51258850097656" y2="66.07914733886719" stroke="black" stroke-width="2"/>
<line x1="93.12499237060547" y1="71.62342834472656" x2="64.37499237060547" y2="71.62435913085938" stroke="black" stroke-width="2"/>
<line x1="265.62445068359375" y1="71.62940979003906" x2="250.62452697753906" y2="71.66253662109375" stroke="black" stroke-width="2"/>
<line x1="288.940185546875" y1="75.62460327148438" x2="288.95654296875" y2="109.37520599365234" stroke="black" stroke-width="2"/>
<line x1="344.3553466796875" y1="65.12385559082031" x2="355.63702392578125" y2="64.68161010742188" stroke="black" stroke-width="2"/>
<line x1="108.1676254272461" y1="110.87226104736328" x2="100.60258483886719" y2="111.08763122558594" stroke="black" stroke-width="2"/>
<line x1="211.87741088867188" y1="1.8072104454040527" x2="200.5972442626953" y2="1.4065698385238647" stroke="black" stroke-width="2"/>
<line x1="426.225830078125" y1="16.852956771850586" x2="426.6497497558594" y2="4.36735200881958" stroke="black" stroke-width="2"/>
<line x1="216.87002563476562" y1="14.672188758850098" x2="226.88812255859375" y2="14.83964729309082" stroke="black" stroke-width="2"/>
<line x1="330.95172119140625" y1="58.1410026550293" x2="330.79974365234375" y2="49.371971130371094" stroke="black" stroke-width="2"/>
<line x1="241.84202575683594" y1="27.86237335205078" x2="228.1509552001953" y2="29.58169174194336" stroke="black" stroke-width="2"/>
<line x1="110.63990783691406" y1="1.294161319732666" x2="86.87385559082031" y2="1.823668122291565" stroke="black" stroke-width="2"/>
<line x1="230.7059326171875" y1="4.854682922363281" x2="240.63418579101562" y2="3.1794345378875732" stroke="black" stroke-width="2"/>
<line x1="223.540771484375" y1="96.75492095947266" x2="212.34478759765625" y2="57.98931884765625" stroke="black" stroke-width="2"/>
<line x1="4.197342395782471" y1="3.1230225563049316" x2="16.797883987426758" y2="4.916726589202881" stroke="black" stroke-width="2"/>
<line x1="79.75556182861328" y1="110.62559509277344" x2="79.81040954589844" y2="75.62372589111328" stroke="black" stroke-width="2"/>
<line x1="60.668357849121094" y1="4.745640754699707" x2="68.21136474609375" y2="3.8632683753967285" stroke="black" stroke-width="2"/>
<line x1="45.16889572143555" y1="28.12295150756836" x2="45.028541564941406" y2="59.377933502197266" stroke="black" stroke-width="2"/>
<line x1="175.60504150390625" y1="38.12510299682617" x2="175.72308349609375" y2="60.62448501586914" stroke="black" stroke-width="2"/>
<line x1="136.869384765625" y1="64.7762680053711" x2="148.13467407226562" y2="64.93394470214844" stroke="black" stroke-width="2"/>
<line x1="275.6602783203125" y1="24.857683181762695" x2="258.1623840332031" y2="26.13642120361328" stroke="black" stroke-width="2"/>
<line x1="258.123046875" y1="28.182310104370117" x2="281.88812255859375" y2="28.98710060119629" stroke="black" stroke-width="2"/>
<line x1="235.6310272216797" y1="30.837207794189453" x2="248.12095642089844" y2="30.4825439453125" stroke="black" stroke-width="2"/>
<line x1="229.38485717773438" y1="89.37672424316406" x2="227.8621826171875" y2="98.07901000976562" stroke="black" stroke-width="2"/>
<line x1="369.60565185546875" y1="110.6251220703125" x2="369.6247253417969" y2="75.62445831298828" stroke="black" stroke-width="2"/>
<line x1="20.67261505126953" y1="4.658030033111572" x2="29.38628578186035" y2="3.1920812129974365" stroke="black" stroke-width="2"/>
<line x1="354.02813720703125" y1="33.12263107299805" x2="353.9256896972656" y2="48.12192916870117" stroke="black" stroke-width="2"/>
<line x1="209.8404541015625" y1="57.990779876708984" x2="220.68763732910156" y2="95.60693359375" stroke="black" stroke-width="2"/>
<line x1="202.31222534179688" y1="18.144865036010742" x2="202.0061492919922" y2="5.621794700622559" stroke="black" stroke-width="2"/>
<line x1="45.64060592651367" y1="24.566232681274414" x2="23.086790084838867" y2="26.40677261352539" stroke="black" stroke-width="2"/>
<line x1="195.6648712158203" y1="1.3896172046661377" x2="186.87359619140625" y2="1.8479796648025513" stroke="black" stroke-width="2"/>
<line x1="151.87843322753906" y1="1.278242826461792" x2="134.37892150878906" y2="1.3702446222305298" stroke="black" stroke-width="2"/>
<line x1="130.58863830566406" y1="59.07143020629883" x2="120.58248901367188" y2="60.27016067504883" stroke="black" stroke-width="2"/>
<line x1="331.8764953613281" y1="1.4901546239852905" x2="246.874267578125" y2="1.411738395690918" stroke="black" stroke-width="2"/>
<line x1="51.77150344848633" y1="36.85805892944336" x2="51.56794738769531" y2="53.121158599853516" stroke="black" stroke-width="2"/>
<line x1="291.0301818847656" y1="59.376136779785156" x2="290.9881286621094" y2="28.12451171875" stroke="black" stroke-width="2"/>
<line x1="111.87519836425781" y1="71.6637954711914" x2="103.12521362304688" y2="71.65543365478516" stroke="black" stroke-width="2"/>
<line x1="170.63148498535156" y1="71.61638641357422" x2="141.87454223632812" y2="71.8044662475586" stroke="black" stroke-width="2"/>
<line x1="304.3748474121094" y1="71.65226745605469" x2="275.6248474121094" y2="71.67308807373047" stroke="black" stroke-width="2"/>
<line x1="486.5185546875" y1="75.62325286865234" x2="486.5846252441406" y2="109.37557220458984" stroke="black" stroke-width="2"/>
<line x1="349.78863525390625" y1="109.37509155273438" x2="349.7955322265625" y2="79.37480926513672" stroke="black" stroke-width="2"/>
<line x1="137.17958068847656" y1="15.634759902954102" x2="137.0762176513672" y2="5.622922897338867" stroke="black" stroke-width="2"/>
<line x1="110.6600112915039" y1="25.16401481628418" x2="73.12297821044922" y2="26.829500198364258" stroke="black" stroke-width="2"/>
<line x1="189.33412170410156" y1="27.483762741088867" x2="218.1247100830078" y2="26.86146354675293" stroke="black" stroke-width="2"/>
<line x1="348.1245422363281" y1="27.08439826965332" x2="356.87451171875" y2="27.103336334228516" stroke="black" stroke-width="2"/>
<line x1="374.3749694824219" y1="27.144758224487305" x2="388.1251220703125" y2="27.146549224853516" stroke="black" stroke-width="2"/>
<line x1="441.88055419921875" y1="32.11711120605469" x2="451.87530517578125" y2="31.88784408569336" stroke="black" stroke-width="2"/>
<line x1="446.99786376953125" y1="51.87580490112305" x2="447.07989501953125" y2="39.36814498901367" stroke="black" stroke-width="2"/>
<line x1="418.9190979003906" y1="29.37392234802246" x2="418.9631652832031" y2="61.87555694580078" stroke="black" stroke-width="2"/>
<line x1="464.37481689453125" y1="65.92794799804688" x2="479.37506103515625" y2="65.92485046386719" stroke="black" stroke-width="2"/>
<line x1="53.13201904296875" y1="71.57340240478516" x2="39.37351989746094" y2="71.67522430419922" stroke="black" stroke-width="2"/>
<line x1="195.62469482421875" y1="71.63314056396484" x2="181.87472534179688" y2="71.65040588378906" stroke="black" stroke-width="2"/>
<line x1="343.1263732910156" y1="71.59302520751953" x2="314.3746643066406" y2="71.63404846191406" stroke="black" stroke-width="2"/>
<line x1="421.8750305175781" y1="71.71472930908203" x2="393.1250305175781" y2="71.70772552490234" stroke="black" stroke-width="2"/>
<line x1="485.6264343261719" y1="71.67335510253906" x2="471.8682556152344" y2="71.57586669921875" stroke="black" stroke-width="2"/>
<line x1="272.16949462890625" y1="109.3772201538086" x2="272.08819580078125" y2="74.37450408935547" stroke="black" stroke-width="2"/>
<line x1="291.0937805175781" y1="109.37757873535156" x2="290.982421875" y2="75.62381744384766" stroke="black" stroke-width="2"/>
<line x1="386.41448974609375" y1="74.36885833740234" x2="386.68670654296875" y2="109.37646484375" stroke="black" stroke-width="2"/>
<line x1="35.632789611816406" y1="63.1249885559082" x2="35.69780731201172" y2="111.8749008178711" stroke="black" stroke-width="2"/>
<line x1="440.6001281738281" y1="25.755346298217773" x2="393.0930480957031" y2="24.89964485168457" stroke="black" stroke-width="2"/>
<line x1="288.9385070800781" y1="28.124401092529297" x2="288.96337890625" y2="61.875301361083984" stroke="black" stroke-width="2"/>
<line x1="297.22369384765625" y1="18.156551361083984" x2="296.74139404296875" y2="4.379676818847656" stroke="black" stroke-width="2"/>
<line x1="283.1705627441406" y1="4.671897888183594" x2="291.90667724609375" y2="3.3313851356506348" stroke="black" stroke-width="2"/>
<line x1="453.18206787109375" y1="4.691824436187744" x2="461.875244140625" y2="3.1262731552124023" stroke="black" stroke-width="2"/>
<line x1="134.46234130859375" y1="26.870725631713867" x2="134.33363342285156" y2="61.874847412109375" stroke="black" stroke-width="2"/>
<line x1="83.60655212402344" y1="119.69000244140625" x2="88.9153060913086" y2="111.57429504394531" stroke="black" stroke-width="2"/>
<line x1="136.91932678222656" y1="4.664404392242432" x2="145.65585327148438" y2="3.326486587524414" stroke="black" stroke-width="2"/>
<line x1="366.89263916015625" y1="75.62503051757812" x2="366.8359680175781" y2="110.62493896484375" stroke="black" stroke-width="2"/>
<line x1="56.62944030761719" y1="4.371892929077148" x2="56.486907958984375" y2="15.635906219482422" stroke="black" stroke-width="2"/>
<line x1="184.3534393310547" y1="1.1009032726287842" x2="155.625732421875" y2="1.90106999874115" stroke="black" stroke-width="2"/>
<line x1="244.8629608154297" y1="16.885570526123047" x2="244.6893768310547" y2="4.370639801025391" stroke="black" stroke-width="2"/>
<line x1="363.1319885253906" y1="61.87498474121094" x2="363.0461120605469" y2="26.875192642211914" stroke="black" stroke-width="2"/>
<line x1="47.6380615234375" y1="59.38117218017578" x2="47.28929138183594" y2="31.869747161865234" stroke="black" stroke-width="2"/>
<line x1="64.34170532226562" y1="33.12521743774414" x2="64.51370239257812" y2="59.37409210205078" stroke="black" stroke-width="2"/>
<line x1="44.006160736083984" y1="4.3687214851379395" x2="43.79307174682617" y2="16.88637351989746" stroke="black" stroke-width="2"/>
<line x1="75.62472534179688" y1="110.74580383300781" x2="40.62490463256836" y2="110.66667938232422" stroke="black" stroke-width="2"/>
<line x1="475.7010803222656" y1="25.039583206176758" x2="463.2215270996094" y2="26.468278884887695" stroke="black" stroke-width="2"/>
<line x1="408.12158203125" y1="74.23770141601562" x2="421.8630065917969" y2="73.89442443847656" stroke="black" stroke-width="2"/>
<line x1="190.64039611816406" y1="4.02281379699707" x2="199.37371826171875" y2="4.404494285583496" stroke="black" stroke-width="2"/>
<line x1="294.2180480957031" y1="4.372007369995117" x2="293.95550537109375" y2="18.14083480834961" stroke="black" stroke-width="2"/>
<line x1="360.5054626464844" y1="43.1265983581543" x2="360.7727966308594" y2="63.13972473144531" stroke="black" stroke-width="2"/>
<line x1="228.178466796875" y1="12.228404998779297" x2="218.10630798339844" y2="12.5642728805542" stroke="black" stroke-width="2"/>
<line x1="230.4969482421875" y1="107.21521759033203" x2="246.7910919189453" y2="113.34793853759766" stroke="black" stroke-width="2"/>
<line x1="372.1648864746094" y1="6.879541873931885" x2="371.98834228515625" y2="18.1463623046875" stroke="black" stroke-width="2"/>
<line x1="344.8554382324219" y1="31.874675750732422" x2="344.8638916015625" y2="44.37551498413086" stroke="black" stroke-width="2"/>
<line x1="484.38165283203125" y1="60.08539581298828" x2="464.3834228515625" y2="60.27302932739258" stroke="black" stroke-width="2"/>
<line x1="244.38525390625" y1="0.7434399127960205" x2="230.52272033691406" y2="1.9433728456497192" stroke="black" stroke-width="2"/>
<line x1="332.9259338378906" y1="5.6228251457214355" x2="332.8165283203125" y2="15.63528823852539" stroke="black" stroke-width="2"/>
<line x1="149.9409942626953" y1="18.134254455566406" x2="149.77169799804688" y2="5.619633197784424" stroke="black" stroke-width="2"/>
<line x1="60.67762756347656" y1="53.14027404785156" x2="60.86830139160156" y2="36.87785339355469" stroke="black" stroke-width="2"/>
<line x1="84.89781188964844" y1="15.636316299438477" x2="84.72248077392578" y2="4.369592666625977" stroke="black" stroke-width="2"/>
<line x1="137.01434326171875" y1="61.88236618041992" x2="137.19332885742188" y2="28.12668800354004" stroke="black" stroke-width="2"/>
<line x1="228.1188201904297" y1="37.19791793823242" x2="236.8895263671875" y2="37.36564636230469" stroke="black" stroke-width="2"/>
<line x1="104.365966796875" y1="52.54227066040039" x2="115.63263702392578" y2="52.36759567260742" stroke="black" stroke-width="2"/>
<line x1="103.32475280761719" y1="61.87920379638672" x2="103.48307800292969" y2="54.35622787475586" stroke="black" stroke-width="2"/>
<line x1="443.1241760253906" y1="60.478729248046875" x2="453.1238708496094" y2="60.422767639160156" stroke="black" stroke-width="2"/>
<line x1="118.63121795654297" y1="109.38886260986328" x2="118.00191497802734" y2="75.6272964477539" stroke="black" stroke-width="2"/>
<line x1="164.19664001464844" y1="4.604367256164551" x2="171.89833068847656" y2="3.2584989070892334" stroke="black" stroke-width="2"/>
<line x1="345.0484924316406" y1="45.6377067565918" x2="344.7419738769531" y2="61.88192367553711" stroke="black" stroke-width="2"/>
<line x1="246.84100341796875" y1="110.71527862548828" x2="232.05494689941406" y2="105.14714050292969" stroke="black" stroke-width="2"/>
<line x1="466.8282775878906" y1="3.4747719764709473" x2="475.5888977050781" y2="4.645285129547119" stroke="black" stroke-width="2"/>
<line x1="72.36357116699219" y1="18.13636589050293" x2="72.15809631347656" y2="4.370774269104004" stroke="black" stroke-width="2"/>
<line x1="38.125" y1="108.125" x2="38.125" y2="75.625" stroke="black" stroke-width="2"/>
<line x1="453.13128662109375" y1="24.922344207763672" x2="443.12091064453125" y2="24.832958221435547" stroke="black" stroke-width="2"/>
<line x1="224.59205627441406" y1="109.53783416748047" x2="214.9903564453125" y2="122.3366470336914" stroke="black" stroke-width="2"/>
<line x1="9.392059326171875" y1="16.867460250854492" x2="5.543522834777832" y2="8.161015510559082" stroke="black" stroke-width="2"/>
<line x1="131.86929321289062" y1="45.78163146972656" x2="118.0920181274414" y2="45.279022216796875" stroke="black" stroke-width="2"/>
<line x1="320.4102478027344" y1="4.367607116699219" x2="319.93450927734375" y2="18.187294006347656" stroke="black" stroke-width="2"/>
<line x1="268.6332092285156" y1="4.385180950164795" x2="268.35736083984375" y2="18.15469741821289" stroke="black" stroke-width="2"/>
<line x1="488.8788146972656" y1="111.87531280517578" x2="488.8489685058594" y2="64.37532806396484" stroke="black" stroke-width="2"/>
<line x1="119.39080810546875" y1="73.89878845214844" x2="130.66986083984375" y2="74.27313995361328" stroke="black" stroke-width="2"/>
<line x1="380.07916259765625" y1="102.91706848144531" x2="377.10894775390625" y2="110.71411895751953" stroke="black" stroke-width="2"/>
<line x1="408.4593505859375" y1="109.37618255615234" x2="408.4157409667969" y2="75.62462615966797" stroke="black" stroke-width="2"/>
<line x1="340.626220703125" y1="25.040679931640625" x2="321.8736877441406" y2="25.001256942749023" stroke="black" stroke-width="2"/>
<line x1="464.35089111328125" y1="28.756916046142578" x2="471.88818359375" y2="28.462820053100586" stroke="black" stroke-width="2"/>
<line x1="276.8475036621094" y1="73.86995697021484" x2="288.1282653808594" y2="74.28630065917969" stroke="black" stroke-width="2"/>
<line x1="447.4224853515625" y1="109.37655639648438" x2="447.5184020996094" y2="75.62327575683594" stroke="black" stroke-width="2"/>
<line x1="94.62354278564453" y1="98.28665161132812" x2="86.10935974121094" y2="111.37701416015625" stroke="black" stroke-width="2"/>
<line x1="21.860532760620117" y1="28.81703758239746" x2="33.1353645324707" y2="28.524682998657227" stroke="black" stroke-width="2"/>
<line x1="103.6222152709961" y1="48.13197326660156" x2="103.79776000976562" y2="35.61690139770508" stroke="black" stroke-width="2"/>
<line x1="120.61763763427734" y1="62.214141845703125" x2="133.1388702392578" y2="62.48601150512695" stroke="black" stroke-width="2"/>
<line x1="255.31480407714844" y1="5.624366760253906" x2="255.29437255859375" y2="15.626877784729004" stroke="black" stroke-width="2"/>
<line x1="19.982513427734375" y1="18.13981056213379" x2="19.693838119506836" y2="5.617649555206299" stroke="black" stroke-width="2"/>
<line x1="174.02120971679688" y1="4.369725704193115" x2="173.85325622558594" y2="15.635856628417969" stroke="black" stroke-width="2"/>
<line x1="413.49493408203125" y1="16.874202728271484" x2="413.468017578125" y2="4.374261379241943" stroke="black" stroke-width="2"/>
<line x1="135.625" y1="74.375" x2="135.625" y2="109.375" stroke="black" stroke-width="2"/>
<line x1="242.76756286621094" y1="4.369632720947266" x2="242.5796356201172" y2="16.88558006286621" stroke="black" stroke-width="2"/>
<line x1="361.5187072753906" y1="15.625351905822754" x2="361.50762939453125" y2="4.374129295349121" stroke="black" stroke-width="2"/>
<line x1="463.4605712890625" y1="4.374364852905273" x2="463.4527587890625" y2="15.625227928161621" stroke="black" stroke-width="2"/>
<line x1="135.1667022705078" y1="4.354516983032227" x2="134.5509033203125" y2="18.132862091064453" stroke="black" stroke-width="2"/>
<line x1="403.0922546386719" y1="27.265947341918945" x2="416.85040283203125" y2="28.418516159057617" stroke="black" stroke-width="2"/>
<line x1="110.28289031982422" y1="48.12630081176758" x2="110.23055267333984" y2="34.37174606323242" stroke="black" stroke-width="2"/>
<line x1="453.04974365234375" y1="53.12519073486328" x2="453.0081787109375" y2="36.87210464477539" stroke="black" stroke-width="2"/>
<line x1="178.125" y1="53.125" x2="178.125" y2="36.875" stroke="black" stroke-width="2"/>
<line x1="116.88581848144531" y1="47.792083740234375" x2="130.62132263183594" y2="48.2382926940918" stroke="black" stroke-width="2"/>
<line x1="138.125" y1="109.375" x2="138.125" y2="75.625" stroke="black" stroke-width="2"/>
<line x1="322.9425964355469" y1="18.172592163085938" x2="322.52496337890625" y2="5.603404998779297" stroke="black" stroke-width="2"/>
<line x1="176.88290405273438" y1="25.109495162963867" x2="161.8672637939453" y2="24.87911605834961" stroke="black" stroke-width="2"/>
<line x1="102.78792572021484" y1="90.41352081298828" x2="112.57495880126953" y2="74.81415557861328" stroke="black" stroke-width="2"/>
<line x1="259.3499450683594" y1="4.164780139923096" x2="266.89178466796875" y2="3.2659006118774414" stroke="black" stroke-width="2"/>
<line x1="428.0969543457031" y1="4.120270252227783" x2="435.64306640625" y2="3.2889981269836426" stroke="black" stroke-width="2"/>
<line x1="121.68212127685547" y1="5.583611488342285" x2="121.35865020751953" y2="16.86018943786621" stroke="black" stroke-width="2"/>
<line x1="293.0992431640625" y1="73.82756805419922" x2="304.4256896972656" y2="74.24299621582031" stroke="black" stroke-width="2"/>
<line x1="155.15072631835938" y1="26.876399993896484" x2="155.08531188964844" y2="63.12628173828125" stroke="black" stroke-width="2"/>
<line x1="115.40705108642578" y1="75.63052368164062" x2="116.26229858398438" y2="109.39051818847656" stroke="black" stroke-width="2"/>
<line x1="450.6363220214844" y1="29.595291137695312" x2="443.0920104980469" y2="29.98272132873535" stroke="black" stroke-width="2"/>
<line x1="449.3569641113281" y1="73.88101959228516" x2="459.3810729980469" y2="74.1202621459961" stroke="black" stroke-width="2"/>
<line x1="445.1043395996094" y1="75.62411499023438" x2="445.046875" y2="109.37614440917969" stroke="black" stroke-width="2"/>
<line x1="385.2217102050781" y1="3.120079755783081" x2="385.06903076171875" y2="15.633467674255371" stroke="black" stroke-width="2"/>
<line x1="178.0982208251953" y1="3.5567986965179443" x2="185.64671325683594" y2="4.024862289428711" stroke="black" stroke-width="2"/>
<line x1="245.6151580810547" y1="4.081999778747559" x2="254.39723205566406" y2="3.7871646881103516" stroke="black" stroke-width="2"/>
<line x1="134.38189697265625" y1="110.79444122314453" x2="120.60384368896484" y2="111.35558319091797" stroke="black" stroke-width="2"/>
<line x1="434.37054443359375" y1="111.1685791015625" x2="418.12164306640625" y2="111.0355224609375" stroke="black" stroke-width="2"/>
<line x1="393.1297912597656" y1="73.96302795410156" x2="404.3782653808594" y2="74.09347534179688" stroke="black" stroke-width="2"/>
<line x1="155.14161682128906" y1="75.62496948242188" x2="155.13954162597656" y2="109.37504577636719" stroke="black" stroke-width="2"/>
<line x1="405.6698913574219" y1="75.62508392333984" x2="405.60516357421875" y2="109.37496185302734" stroke="black" stroke-width="2"/>
<line x1="281.51092529296875" y1="4.368824005126953" x2="281.3197937011719" y2="15.636786460876465" stroke="black" stroke-width="2"/>
<line x1="80.61880493164062" y1="28.861225128173828" x2="99.37799072265625" y2="29.01900291442871" stroke="black" stroke-width="2"/>
<line x1="444.7716064453125" y1="36.87284469604492" x2="444.7305603027344" y2="53.12590026855469" stroke="black" stroke-width="2"/>
<line x1="326.8731689453125" y1="111.1175537109375" x2="293.1236267089844" y2="110.99166870117188" stroke="black" stroke-width="2"/>
<line x1="345.6318054199219" y1="110.88700103759766" x2="331.8586120605469" y2="111.24541473388672" stroke="black" stroke-width="2"/>
<line x1="485.6305236816406" y1="111.17247009277344" x2="448.1328430175781" y2="110.87738800048828" stroke="black" stroke-width="2"/>
<line x1="411.0321960449219" y1="4.374974250793457" x2="411.0329284667969" y2="15.625052452087402" stroke="black" stroke-width="2"/>
<line x1="452.3884582519531" y1="15.6385498046875" x2="452.2041320800781" y2="5.618945121765137" stroke="black" stroke-width="2"/>
<line x1="188.6179656982422" y1="15.627949714660645" x2="188.67782592773438" y2="5.620828628540039" stroke="black" stroke-width="2"/>
<line x1="119.36849975585938" y1="27.207489013671875" x2="131.88815307617188" y2="27.452163696289062" stroke="black" stroke-width="2"/>
<line x1="138.12332153320312" y1="27.347225189208984" x2="150.62596130371094" y2="27.320209503173828" stroke="black" stroke-width="2"/>
<line x1="161.86781311035156" y1="27.42634391784668" x2="174.3793487548828" y2="27.297622680664062" stroke="black" stroke-width="2"/>
<line x1="301.8711242675781" y1="27.419240951538086" x2="316.8706970214844" y2="27.337182998657227" stroke="black" stroke-width="2"/>
<line x1="331.8652038574219" y1="27.15460205078125" x2="341.89666748046875" y2="27.505765914916992" stroke="black" stroke-width="2"/>
<line x1="386.8687438964844" y1="64.80386352539062" x2="405.63299560546875" y2="65.07743072509766" stroke="black" stroke-width="2"/>
<line x1="240.61634826660156" y1="78.73405456542969" x2="248.13185119628906" y2="78.63257598876953" stroke="black" stroke-width="2"/>
<line x1="197.73922729492188" y1="83.13151550292969" x2="197.59109497070312" y2="74.36289978027344" stroke="black" stroke-width="2"/>
<line x1="197.68186950683594" y1="95.62723541259766" x2="197.70269775390625" y2="88.12382507324219" stroke="black" stroke-width="2"/>
<line x1="154.3523712158203" y1="110.81689453125" x2="139.35922241210938" y2="111.13751220703125" stroke="black" stroke-width="2"/>
<line x1="191.87789916992188" y1="111.17249298095703" x2="158.12847900390625" y2="111.03311157226562" stroke="black" stroke-width="2"/>
<line x1="365.64093017578125" y1="111.12860870361328" x2="350.64776611328125" y2="110.80841827392578" stroke="black" stroke-width="2"/>
<line x1="476.41162109375" y1="4.369065284729004" x2="476.2673645019531" y2="15.633227348327637" stroke="black" stroke-width="2"/>
<line x1="346.25811767578125" y1="8.121477127075195" x2="346.3138122558594" y2="18.128122329711914" stroke="black" stroke-width="2"/>
<line x1="356.88433837890625" y1="24.629697799682617" x2="345.6036682128906" y2="25.043479919433594" stroke="black" stroke-width="2"/>
<line x1="440.624267578125" y1="3.9193813800811768" x2="448.12542724609375" y2="3.9263792037963867" stroke="black" stroke-width="2"/>
<line x1="157.5894012451172" y1="61.875160217285156" x2="157.57925415039062" y2="28.124788284301758" stroke="black" stroke-width="2"/>
<line x1="248.15216064453125" y1="76.41127014160156" x2="240.60484313964844" y2="75.96920776367188" stroke="black" stroke-width="2"/>
<line x1="382.9503479003906" y1="102.00665283203125" x2="373.771728515625" y2="89.82971954345703" stroke="black" stroke-width="2"/>
<line x1="404.3777770996094" y1="111.16809844970703" x2="390.6217346191406" y2="111.23866271972656" stroke="black" stroke-width="2"/>
<line x1="314.37652587890625" y1="73.92865753173828" x2="344.3761901855469" y2="74.03172302246094" stroke="black" stroke-width="2"/>
<line x1="34.3447265625" y1="3.7002785205841064" x2="41.88961410522461" y2="4.0973052978515625" stroke="black" stroke-width="2"/>
<line x1="471.87322998046875" y1="74.05460357666016" x2="485.6228332519531" y2="73.97917938232422" stroke="black" stroke-width="2"/>
<line x1="150.63177490234375" y1="24.89297866821289" x2="136.86778259277344" y2="25.072965621948242" stroke="black" stroke-width="2"/>
<line x1="143.12222290039062" y1="73.99822998046875" x2="153.1309051513672" y2="73.92430114746094" stroke="black" stroke-width="2"/>
<line x1="123.68555450439453" y1="18.130508422851562" x2="123.78392791748047" y2="8.119192123413086" stroke="black" stroke-width="2"/>
<line x1="109.3197250366211" y1="75.5892562866211" x2="100.47065734863281" y2="89.27520751953125" stroke="black" stroke-width="2"/>
<line x1="90.00601959228516" y1="109.78569793701172" x2="95.8661117553711" y2="100.78192901611328" stroke="black" stroke-width="2"/>
<line x1="216.6730499267578" y1="124.22325897216797" x2="226.8850555419922" y2="110.63255310058594" stroke="black" stroke-width="2"/>
<line x1="437.5546875" y1="4.37497615814209" x2="437.5550842285156" y2="15.625020027160645" stroke="black" stroke-width="2"/>
<line x1="307.5042419433594" y1="4.367187023162842" x2="307.36248779296875" y2="15.631135940551758" stroke="black" stroke-width="2"/>
<line x1="348.6172180175781" y1="15.63061809539795" x2="348.73150634765625" y2="5.617654800415039" stroke="black" stroke-width="2"/>
<line x1="288.1340026855469" y1="62.66705322265625" x2="275.6142578125" y2="62.42069625854492" stroke="black" stroke-width="2"/>
<line x1="271.8600158691406" y1="3.525726079940796" x2="280.5977783203125" y2="3.8527462482452393" stroke="black" stroke-width="2"/>
<line x1="186.44058227539062" y1="4.365571975708008" x2="186.19595336914062" y2="15.637391090393066" stroke="black" stroke-width="2"/>
<line x1="371.9399719238281" y1="91.82441711425781" x2="379.6166076660156" y2="101.68692779541016" stroke="black" stroke-width="2"/>
<line x1="370.61846923828125" y1="73.93838500976562" x2="381.8777770996094" y2="74.02887725830078" stroke="black" stroke-width="2"/>
<line x1="77.54231262207031" y1="75.62489318847656" x2="77.53627014160156" y2="109.3751220703125" stroke="black" stroke-width="2"/>
<line x1="53.97554016113281" y1="51.87738037109375" x2="53.90100860595703" y2="39.37037658691406" stroke="black" stroke-width="2"/>
<line x1="130.63514709472656" y1="24.85565948486328" x2="118.11433410644531" y2="25.12017059326172" stroke="black" stroke-width="2"/>
<line x1="398.8369445800781" y1="4.370728015899658" x2="398.74755859375" y2="15.629942893981934" stroke="black" stroke-width="2"/>
<line x1="69.93152618408203" y1="5.624696254730225" x2="69.93698120117188" y2="15.625374794006348" stroke="black" stroke-width="2"/>
<line x1="180.6265106201172" y1="73.96145629882812" x2="194.37632751464844" y2="74.01179504394531" stroke="black" stroke-width="2"/>
<line x1="478.6858215332031" y1="15.625800132751465" x2="478.69830322265625" y2="6.874034881591797" stroke="black" stroke-width="2"/>
<line x1="219.37625122070312" y1="24.799285888671875" x2="179.37290954589844" y2="24.917572021484375" stroke="black" stroke-width="2"/>
<line x1="159.3647918701172" y1="73.90415954589844" x2="170.62924194335938" y2="74.05180358886719" stroke="black" stroke-width="2"/>
<line x1="254.3651885986328" y1="73.90602111816406" x2="265.6291198730469" y2="74.04753875732422" stroke="black" stroke-width="2"/>
<line x1="157.58163452148438" y1="109.37504577636719" x2="157.58396911621094" y2="75.62496185302734" stroke="black" stroke-width="2"/>
<line x1="249.9414520263672" y1="80.62281036376953" x2="249.85348510742188" y2="108.12653350830078" stroke="black" stroke-width="2"/>
<line x1="108.6471176147461" y1="5.624505519866943" x2="108.64032745361328" y2="15.625349998474121" stroke="black" stroke-width="2"/>
<line x1="81.86560821533203" y1="73.90481567382812" x2="93.1290283203125" y2="74.04045867919922" stroke="black" stroke-width="2"/>
<line x1="431.8707275390625" y1="74.04828643798828" x2="443.1351318359375" y2="73.90132141113281" stroke="black" stroke-width="2"/>
<line x1="58.8794059753418" y1="15.625078201293945" x2="58.8778190612793" y2="5.624880313873291" stroke="black" stroke-width="2"/>
<line x1="199.8571014404297" y1="5.622930526733398" x2="199.8301544189453" y2="15.626226425170898" stroke="black" stroke-width="2"/>
<line x1="388.1249084472656" y1="24.767484664916992" x2="374.3749084472656" y2="24.76430320739746" stroke="black" stroke-width="2"/>
<line x1="235.642578125" y1="34.95606231689453" x2="228.11492919921875" y2="34.7582893371582" stroke="black" stroke-width="2"/>
<line x1="39.36823272705078" y1="73.90171813964844" x2="55.62788772583008" y2="74.04338073730469" stroke="black" stroke-width="2"/>
<line x1="64.37093353271484" y1="74.04375457763672" x2="75.63458251953125" y2="73.90544128417969" stroke="black" stroke-width="2"/>
<line x1="269.7756042480469" y1="74.37442779541016" x2="269.825439453125" y2="109.37613677978516" stroke="black" stroke-width="2"/>
<line x1="98.89163970947266" y1="109.37501525878906" x2="98.89229583740234" y2="79.37499237060547" stroke="black" stroke-width="2"/>
<line x1="388.9870910644531" y1="109.37789916992188" x2="388.73504638671875" y2="75.62044525146484" stroke="black" stroke-width="2"/>
<line x1="450.1499938964844" y1="4.365973472595215" x2="449.9358215332031" y2="15.63565731048584" stroke="black" stroke-width="2"/>
<line x1="387.48675537109375" y1="15.62597942352295" x2="387.4714050292969" y2="5.62408447265625" stroke="black" stroke-width="2"/>
<line x1="283.8022766113281" y1="15.6358642578125" x2="283.6121826171875" y2="5.615757942199707" stroke="black" stroke-width="2"/>
<line x1="316.8799133300781" y1="24.91710662841797" x2="303.1197204589844" y2="25.041973114013672" stroke="black" stroke-width="2"/>
</svg>