<svg width="1600" height="500" xmlns="http://www.w3.org/2000/svg">
<path d="M206,23 L211,23" style="stroke:red;stroke-width:2"/>
<path d="M421,66 L438,66" style="stroke:red;stroke-width:2"/>
<path d="M79,23 L93,23" style="stroke:red;stroke-width:2"/>
<path d="M327,7 L345,7" style="stroke:red;stroke-width:2"/>
<path d="M473,6 L480,6" style="stroke:red;stroke-width:2"/>
<path d="M31,30 L45,30" style="stroke:red;stroke-width:2"/>
<path d="M237,4 L250,4" style="stroke:red;stroke-width:2"/>
<path d="M262,90 L363,90" style="stroke:red;stroke-width:2"/>
<path d="M318,104 L346,104" style="stroke:red;stroke-width:2"/>
<path d="M377,29 L382,29" style="stroke:red;stroke-width:2"/>
<path d="M368,92 L406,92" style="stroke:red;stroke-width:2"/>
<path d="M264,6 L275,6" style="stroke:red;stroke-width:2"/>
<path d="M38,77 L47,76" style="stroke:red;stroke-width:2"/>
<path d="M434,102 L459,102" style="stroke:red;stroke-width:2"/>
<path d="M268,68 L290,68" style="stroke:red;stroke-width:2"/>
<path d="M31,4 L39,4" style="stroke:red;stroke-width:2"/>
<path d="M150,76 L168,76" style="stroke:red;stroke-width:2"/>
<path d="M282,29 L321,28" style="stroke:red;stroke-width:2"/>
<path d="M458,21 L464,20" style="stroke:red;stroke-width:2"/>
<path d="M231,52 L238,51" style="stroke:red;stroke-width:2"/>
<path d="M16,8 L23,8" style="stroke:red;stroke-width:2"/>
<path d="M446,56 L451,56" style="stroke:red;stroke-width:2"/>
<path d="M103,37 L111,37" style="stroke:red;stroke-width:2"/>
<path d="M289,48 L303,49" style="stroke:red;stroke-width:2"/>
<path d="M316,6 L326,6" style="stroke:red;stroke-width:2"/>
<path d="M380,23 L393,23" style="stroke:red;stroke-width:2"/>
<path d="M366,68 L384,68" style="stroke:red;stroke-width:2"/>
<path d="M136,21 L143,21" style="stroke:red;stroke-width:2"/>
<path d="M265,31 L270,31" style="stroke:red;stroke-width:2"/>
<path d="M430,32 L461,30" style="stroke:red;stroke-width:2"/>
<path d="M352,52 L362,53" style="stroke:red;stroke-width:2"/>
<path d="M230,5 L237,5" style="stroke:red;stroke-width:2"/>
<path d="M177,60 L189,60" style="stroke:red;stroke-width:2"/>
<path d="M96,32 L105,32" style="stroke:red;stroke-width:2"/>
<path d="M246,30 L252,30" style="stroke:red;stroke-width:2"/>
<path d="M65,78 L114,78" style="stroke:red;stroke-width:2"/>
<path d="M356,37 L361,37" style="stroke:red;stroke-width:2"/>
<path d="M413,90 L421,90" style="stroke:red;stroke-width:2"/>
<path d="M184,76 L199,77" style="stroke:red;stroke-width:2"/>
<path d="M435,24 L440,24" style="stroke:red;stroke-width:2"/>
<path d="M157,66 L180,66" style="stroke:red;stroke-width:2"/>
<path d="M361,66 L389,66" style="stroke:red;stroke-width:2"/>
<path d="M138,7 L143,7" style="stroke:red;stroke-width:2"/>
<path d="M302,23 L314,23" style="stroke:red;stroke-width:2"/>
<path d="M121,30 L130,30" style="stroke:red;stroke-width:2"/>
<path d="M53,21 L67,21" style="stroke:red;stroke-width:2"/>
<path d="M73,30 L90,30" style="stroke:red;stroke-width:2"/>
<path d="M137,5 L142,5" style="stroke:red;stroke-width:2"/>
<path d="M251,21 L257,19" style="stroke:red;stroke-width:2"/>
<path d="M122,114 L192,114" style="stroke:red;stroke-width:2"/>
<path d="M273,31 L278,31" style="stroke:red;stroke-width:2"/>
<path d="M370,28 L376,28" style="stroke:red;stroke-width:2"/>
<path d="M111,29 L120,29" style="stroke:red;stroke-width:2"/>
<path d="M289,57 L301,57" style="stroke:red;stroke-width:2"/>
<path d="M286,31 L293,31" style="stroke:red;stroke-width:2"/>
<path d="M139,53 L148,53" style="stroke:red;stroke-width:2"/>
<path d="M364,21 L374,21" style="stroke:red;stroke-width:2"/>
<path d="M41,116 L59,116" style="stroke:red;stroke-width:2"/>
<path d="M383,28 L398,28" style="stroke:red;stroke-width:2"/>
<path d="M441,64 L446,64" style="stroke:red;stroke-width:2"/>
<path d="M406,67 L413,68" style="stroke:red;stroke-width:2"/>
<path d="M103,35 L110,35" style="stroke:red;stroke-width:2"/>
<path d="M257,23 L262,23" style="stroke:red;stroke-width:2"/>
<path d="M345,73 L352,74" style="stroke:red;stroke-width:2"/>
<path d="M454,47 L460,46" style="stroke:red;stroke-width:2"/>
<path d="M432,23 L443,21" style="stroke:red;stroke-width:2"/>
<path d="M352,68 L359,69" style="stroke:red;stroke-width:2"/>
<path d="M354,102 L360,102" style="stroke:red;stroke-width:2"/>
<path d="M109,39 L119,39" style="stroke:red;stroke-width:2"/>
<path d="M407,84 L420,86" style="stroke:red;stroke-width:2"/>
<path d="M401,102 L431,102" style="stroke:red;stroke-width:2"/>
<path d="M247,47 L252,47" style="stroke:red;stroke-width:2"/>
<path d="M406,66 L417,66" style="stroke:red;stroke-width:2"/>
<path d="M318,57 L327,57" style="stroke:red;stroke-width:2"/>
<path d="M121,116 L171,116" style="stroke:red;stroke-width:2"/>
<path d="M105,6 L116,6" style="stroke:red;stroke-width:2"/>
<path d="M115,113 L122,113" style="stroke:red;stroke-width:2"/>
<path d="M342,61 L347,61" style="stroke:red;stroke-width:2"/>
<path d="M277,44 L284,44" style="stroke:red;stroke-width:2"/>
<path d="M204,60 L211,60" style="stroke:red;stroke-width:2"/>
<path d="M288,92 L344,92" style="stroke:red;stroke-width:2"/>
<path d="M317,49 L329,49" style="stroke:red;stroke-width:2"/>
<path d="M307,47 L317,47" style="stroke:red;stroke-width:2"/>
<path d="M447,6 L456,5" style="stroke:red;stroke-width:2"/>
<path d="M84,68 L101,68" style="stroke:red;stroke-width:2"/>
<path d="M117,21 L124,21" style="stroke:red;stroke-width:2"/>
<path d="M182,23 L194,23" style="stroke:red;stroke-width:2"/>
<path d="M380,21 L391,21" style="stroke:red;stroke-width:2"/>
<path d="M258,30 L264,30" style="stroke:red;stroke-width:2"/>
<path d="M405,4 L418,4" style="stroke:red;stroke-width:2"/>
<path d="M227,35 L233,35" style="stroke:red;stroke-width:2"/>
<path d="M444,58 L451,58" style="stroke:red;stroke-width:2"/>
<path d="M176,31 L192,29" style="stroke:red;stroke-width:2"/>
<path d="M392,30 L398,30" style="stroke:red;stroke-width:2"/>
<path d="M188,39 L193,39" style="stroke:red;stroke-width:2"/>
<path d="M314,102 L343,101" style="stroke:red;stroke-width:2"/>
<path d="M37,66 L53,66" style="stroke:red;stroke-width:2"/>
<path d="M231,56 L239,56" style="stroke:red;stroke-width:2"/>
<path d="M74,114 L81,113" style="stroke:red;stroke-width:2"/>
<path d="M115,75 L131,76" style="stroke:red;stroke-width:2"/>
<path d="M297,59 L305,60" style="stroke:red;stroke-width:2"/>
<path d="M86,66 L117,66" style="stroke:red;stroke-width:2"/>
<path d="M69,6 L75,6" style="stroke:red;stroke-width:2"/>
<path d="M370,8 L376,8" style="stroke:red;stroke-width:2"/>
<path d="M181,78 L200,78" style="stroke:red;stroke-width:2"/>
<path d="M415,32 L420,32" style="stroke:red;stroke-width:2"/>
<path d="M254,6 L260,6" style="stroke:red;stroke-width:2"/>
<path d="M391,104 L398,104" style="stroke:red;stroke-width:2"/>
<path d="M431,4 L444,4" style="stroke:red;stroke-width:2"/>
<path d="M117,79 L141,77" style="stroke:red;stroke-width:2"/>
<path d="M82,21 L90,21" style="stroke:red;stroke-width:2"/>
<path d="M103,57 L110,57" style="stroke:red;stroke-width:2"/>
<path d="M60,36 L68,35" style="stroke:red;stroke-width:2"/>
<path d="M272,102 L286,102" style="stroke:red;stroke-width:2"/>
<path d="M474,23 L484,23" style="stroke:red;stroke-width:2"/>
<path d="M306,57 L317,60" style="stroke:red;stroke-width:2"/>
<path d="M346,31 L356,30" style="stroke:red;stroke-width:2"/>
<path d="M228,68 L242,68" style="stroke:red;stroke-width:2"/>
<path d="M302,21 L309,20" style="stroke:red;stroke-width:2"/>
<path d="M441,33 L466,32" style="stroke:red;stroke-width:2"/>
<path d="M203,58 L213,58" style="stroke:red;stroke-width:2"/>
<path d="M365,30 L382,31" style="stroke:red;stroke-width:2"/>
<path d="M148,37 L153,36" style="stroke:red;stroke-width:2"/>
<path d="M345,75 L351,76" style="stroke:red;stroke-width:2"/>
<path d="M123,9 L137,9" style="stroke:red;stroke-width:2"/>
<path d="M251,23 L256,23" style="stroke:red;stroke-width:2"/>
<path d="M196,6 L206,6" style="stroke:red;stroke-width:2"/>
<path d="M227,44 L233,44" style="stroke:red;stroke-width:2"/>
<path d="M268,66 L291,66" style="stroke:red;stroke-width:2"/>
<path d="M229,7 L249,6" style="stroke:red;stroke-width:2"/>
<path d="M357,67 L365,68" style="stroke:red;stroke-width:2"/>
<path d="M144,6 L155,6" style="stroke:red;stroke-width:2"/>
<path d="M95,8 L100,8" style="stroke:red;stroke-width:2"/>
<path d="M226,58 L234,58" style="stroke:red;stroke-width:2"/>
<path d="M24,5 L34,7" style="stroke:red;stroke-width:2"/>
<path d="M158,29 L163,29" style="stroke:red;stroke-width:2"/>
<path d="M104,4 L113,4" style="stroke:red;stroke-width:2"/>
<path d="M435,50 L440,50" style="stroke:red;stroke-width:2"/>
<path d="M228,21 L236,21" style="stroke:red;stroke-width:2"/>
<path d="M290,6 L301,6" style="stroke:red;stroke-width:2"/>
<path d="M381,6 L391,6" style="stroke:red;stroke-width:2"/>
<path d="M187,31 L198,30" style="stroke:red;stroke-width:2"/>
<path d="M229,102 L245,102" style="stroke:red;stroke-width:2"/>
<path d="M103,44 L111,44" style="stroke:red;stroke-width:2"/>
<path d="M229,25 L234,25" style="stroke:red;stroke-width:2"/>
<path d="M331,85 L340,84" style="stroke:red;stroke-width:2"/>
<path d="M289,47 L306,47" style="stroke:red;stroke-width:2"/>
<path d="M117,53 L124,52" style="stroke:red;stroke-width:2"/>
<path d="M327,29 L334,29" style="stroke:red;stroke-width:2"/>
<path d="M103,23 L112,23" style="stroke:red;stroke-width:2"/>
<path d="M53,23 L67,23" style="stroke:red;stroke-width:2"/>
<path d="M289,4 L302,4" style="stroke:red;stroke-width:2"/>
<path d="M170,6 L184,5" style="stroke:red;stroke-width:2"/>
<path d="M118,5 L124,5" style="stroke:red;stroke-width:2"/>
<path d="M226,33 L235,32" style="stroke:red;stroke-width:2"/>
<path d="M457,4 L470,4" style="stroke:red;stroke-width:2"/>
<path d="M270,49 L275,48" style="stroke:red;stroke-width:2"/>
<path d="M33,32 L47,32" style="stroke:red;stroke-width:2"/>
<path d="M345,54 L354,54" style="stroke:red;stroke-width:2"/>
<path d="M390,90 L398,90" style="stroke:red;stroke-width:2"/>
<path d="M73,32 L78,32" style="stroke:red;stroke-width:2"/>
<path d="M201,92 L207,92" style="stroke:red;stroke-width:2"/>
<path d="M176,58 L190,58" style="stroke:red;stroke-width:2"/>
<path d="M81,114 L91,113" style="stroke:red;stroke-width:2"/>
<path d="M460,6 L469,6" style="stroke:red;stroke-width:2"/>
<path d="M11,5 L27,7" style="stroke:red;stroke-width:2"/>
<path d="M118,65 L127,65" style="stroke:red;stroke-width:2"/>
<path d="M349,66 L355,66" style="stroke:red;stroke-width:2"/>
<path d="M411,23 L417,23" style="stroke:red;stroke-width:2"/>
<path d="M260,104 L305,104" style="stroke:red;stroke-width:2"/>
<path d="M328,23 L334,23" style="stroke:red;stroke-width:2"/>
<path d="M330,83 L338,83" style="stroke:red;stroke-width:2"/>
<path d="M430,30 L437,30" style="stroke:red;stroke-width:2"/>
<path d="M256,83 L261,83" style="stroke:red;stroke-width:2"/>
<path d="M367,104 L375,104" style="stroke:red;stroke-width:2"/>
<path d="M456,66 L461,66" style="stroke:red;stroke-width:2"/>
<path d="M328,55 L341,55" style="stroke:red;stroke-width:2"/>
<path d="M47,114 L55,114" style="stroke:red;stroke-width:2"/>
<path d="M343,29 L351,28" style="stroke:red;stroke-width:2"/>
<path d="M399,68 L399,31" style="stroke:red;stroke-width:2"/>
<path d="M195,4 L205,4" style="stroke:red;stroke-width:2"/>
<path d="M339,9 L348,8" style="stroke:red;stroke-width:2"/>
<path d="M474,21 L485,21" style="stroke:red;stroke-width:2"/>
<path d="M167,68 L175,68" style="stroke:red;stroke-width:2"/>
<path d="M169,4 L182,4" style="stroke:red;stroke-width:2"/>
<path d="M373,101 L384,102" style="stroke:red;stroke-width:2"/>
<path d="M358,6 L365,6" style="stroke:red;stroke-width:2"/>
<path d="M98,96 L105,96" style="stroke:red;stroke-width:2"/>
<path d="M358,23 L375,23" style="stroke:red;stroke-width:2"/>
<path d="M107,31 L120,31" style="stroke:red;stroke-width:2"/>
<path d="M127,37 L133,37" style="stroke:red;stroke-width:2"/>
<path d="M103,52 L116,52" style="stroke:red;stroke-width:2"/>
<path d="M236,33 L243,32" style="stroke:red;stroke-width:2"/>
<path d="M109,49 L119,50" style="stroke:red;stroke-width:2"/>
<path d="M186,9 L191,9" style="stroke:red;stroke-width:2"/>
<path d="M38,82 L39,107" style="stroke:red;stroke-width:2"/>
<path d="M390,68 L408,68" style="stroke:red;stroke-width:2"/>
<path d="M302,58 L310,59" style="stroke:red;stroke-width:2"/>
<path d="M318,59 L329,59" style="stroke:red;stroke-width:2"/>
<path d="M132,53 L138,52" style="stroke:red;stroke-width:2"/>
<path d="M342,19 L348,19" style="stroke:red;stroke-width:2"/>
<path d="M109,42 L119,41" style="stroke:red;stroke-width:2"/>
<path d="M209,30 L215,30" style="stroke:red;stroke-width:2"/>
<path d="M41,64 L59,64" style="stroke:red;stroke-width:2"/>
<path d="M406,22 L413,21" style="stroke:red;stroke-width:2"/>
<path d="M259,68 L264,68" style="stroke:red;stroke-width:2"/>
<path d="M79,32 L90,32" style="stroke:red;stroke-width:2"/>
<path d="M156,80 L162,78" style="stroke:red;stroke-width:2"/>
<path d="M97,20 L103,20" style="stroke:red;stroke-width:2"/>
<path d="M435,52 L440,51" style="stroke:red;stroke-width:2"/>
<path d="M213,59 L218,58" style="stroke:red;stroke-width:2"/>
<path d="M61,89 L61,116" style="stroke:red;stroke-width:2"/>
<path d="M245,92 L255,92" style="stroke:red;stroke-width:2"/>
<path d="M126,51 L133,51" style="stroke:red;stroke-width:2"/>
<path d="M251,32 L259,32" style="stroke:red;stroke-width:2"/>
<path d="M422,68 L430,68" style="stroke:red;stroke-width:2"/>
<path d="M164,28 L175,28" style="stroke:red;stroke-width:2"/>
<path d="M170,30 L175,30" style="stroke:red;stroke-width:2"/>
<path d="M332,53 L341,53" style="stroke:red;stroke-width:2"/>
<path d="M117,23 L124,23" style="stroke:red;stroke-width:2"/>
<path d="M307,30 L321,30" style="stroke:red;stroke-width:2"/>
<path d="M60,55 L60,38" style="stroke:red;stroke-width:2"/>
<path d="M333,9 L338,9" style="stroke:red;stroke-width:2"/>
<path d="M121,28 L130,28" style="stroke:red;stroke-width:2"/>
<path d="M201,33 L211,32" style="stroke:red;stroke-width:2"/>
<path d="M49,78 L55,78" style="stroke:red;stroke-width:2"/>
<path d="M196,102 L208,100" style="stroke:red;stroke-width:2"/>
<path d="M174,80 L179,81" style="stroke:red;stroke-width:2"/>
<path d="M476,33 L483,33" style="stroke:red;stroke-width:2"/>
<path d="M245,49 L252,49" style="stroke:red;stroke-width:2"/>
<path d="M422,91 L428,91" style="stroke:red;stroke-width:2"/>
<path d="M353,4 L366,4" style="stroke:red;stroke-width:2"/>
<path d="M315,4 L325,4" style="stroke:red;stroke-width:2"/>
<path d="M351,36 L359,35" style="stroke:red;stroke-width:2"/>
<path d="M216,56 L221,56" style="stroke:red;stroke-width:2"/>
<path d="M23,31 L30,31" style="stroke:red;stroke-width:2"/>
<path d="M158,7 L164,13" style="stroke:red;stroke-width:2"/>
<path d="M57,28 L63,31" style="stroke:red;stroke-width:2"/>
<path d="M207,101 L216,101" style="stroke:red;stroke-width:2"/>
<path d="M255,85 L261,85" style="stroke:red;stroke-width:2"/>
<path d="M277,21 L289,21" style="stroke:red;stroke-width:2"/>
<path d="M400,31 L411,30" style="stroke:red;stroke-width:2"/>
<path d="M157,21 L168,21" style="stroke:red;stroke-width:2"/>
<path d="M401,104 L409,104" style="stroke:red;stroke-width:2"/>
<path d="M39,87 L53,87" style="stroke:red;stroke-width:2"/>
<path d="M352,28 L357,28" style="stroke:red;stroke-width:2"/>
<path d="M273,29 L281,30" style="stroke:red;stroke-width:2"/>
<path d="M413,92 L421,92" style="stroke:red;stroke-width:2"/>
<path d="M201,20 L206,20" style="stroke:red;stroke-width:2"/>
<path d="M131,31 L139,31" style="stroke:red;stroke-width:2"/>
<path d="M208,53 L218,53" style="stroke:red;stroke-width:2"/>
<path d="M238,64 L244,63" style="stroke:red;stroke-width:2"/>
<path d="M196,81 L205,78" style="stroke:red;stroke-width:2"/>
<path d="M97,76 L103,76" style="stroke:red;stroke-width:2"/>
<path d="M182,21 L194,21" style="stroke:red;stroke-width:2"/>
<path d="M271,92 L287,92" style="stroke:red;stroke-width:2"/>
<path d="M117,111 L124,110" style="stroke:red;stroke-width:2"/>
<path d="M153,78 L158,77" style="stroke:red;stroke-width:2"/>
<path d="M201,82 L208,80" style="stroke:red;stroke-width:2"/>
<path d="M160,23 L166,23" style="stroke:red;stroke-width:2"/>
<path d="M203,30 L208,30" style="stroke:red;stroke-width:2"/>
<path d="M346,21 L353,21" style="stroke:red;stroke-width:2"/>
<path d="M429,7 L440,6" style="stroke:red;stroke-width:2"/>
<path d="M234,66 L253,66" style="stroke:red;stroke-width:2"/>
<path d="M182,71 L190,68" style="stroke:red;stroke-width:2"/>
<path d="M142,51 L148,51" style="stroke:red;stroke-width:2"/>
<path d="M17,32 L22,32" style="stroke:red;stroke-width:2"/>
<path d="M254,8 L260,8" style="stroke:red;stroke-width:2"/>
<path d="M247,58 L252,59" style="stroke:red;stroke-width:2"/>
<path d="M54,6 L64,6" style="stroke:red;stroke-width:2"/>
<path d="M168,79 L174,79" style="stroke:red;stroke-width:2"/>
<path d="M203,54 L211,54" style="stroke:red;stroke-width:2"/>
<path d="M182,37 L188,36" style="stroke:red;stroke-width:2"/>
<path d="M48,76 L54,76" style="stroke:red;stroke-width:2"/>
<path d="M180,54 L185,54" style="stroke:red;stroke-width:2"/>
<path d="M150,67 L156,64" style="stroke:red;stroke-width:2"/>
<path d="M83,116 L88,115" style="stroke:red;stroke-width:2"/>
<path d="M377,5 L388,4" style="stroke:red;stroke-width:2"/>
<path d="M345,83 L357,84" style="stroke:red;stroke-width:2"/>
<path d="M184,35 L189,35" style="stroke:red;stroke-width:2"/>
<path d="M473,8 L480,8" style="stroke:red;stroke-width:2"/>
<path d="M117,109 L117,76" style="stroke:red;stroke-width:2"/>
<path d="M98,30 L106,31" style="stroke:red;stroke-width:2"/>
<path d="M59,104 L59,97" style="stroke:red;stroke-width:2"/>
<path d="M403,7 L413,6" style="stroke:red;stroke-width:2"/>
<path d="M125,7 L132,7" style="stroke:red;stroke-width:2"/>
<path d="M460,65 L460,54" style="stroke:red;stroke-width:2"/>
<path d="M254,21 L262,21" style="stroke:red;stroke-width:2"/>
<path d="M54,58 L61,58" style="stroke:red;stroke-width:2"/>
<path d="M104,21 L112,21" style="stroke:red;stroke-width:2"/>
<path d="M309,21 L314,21" style="stroke:red;stroke-width:2"/>
<path d="M80,6 L90,6" style="stroke:red;stroke-width:2"/>
<path d="M28,21 L39,21" style="stroke:red;stroke-width:2"/>
<path d="M368,90 L382,90" style="stroke:red;stroke-width:2"/>
<path d="M264,92 L270,92" style="stroke:red;stroke-width:2"/>
<path d="M340,38 L347,38" style="stroke:red;stroke-width:2"/>
<path d="M349,7 L354,7" style="stroke:red;stroke-width:2"/>
<path d="M148,4 L155,4" style="stroke:red;stroke-width:2"/>
<path d="M462,92 L462,69" style="stroke:red;stroke-width:2"/>
<path d="M67,68 L79,68" style="stroke:red;stroke-width:2"/>
<path d="M412,31 L420,30" style="stroke:red;stroke-width:2"/>
<path d="M478,31 L485,30" style="stroke:red;stroke-width:2"/>
<path d="M133,54 L139,54" style="stroke:red;stroke-width:2"/>
<path d="M243,91 L254,90" style="stroke:red;stroke-width:2"/>
<path d="M220,91 L223,101" style="stroke:red;stroke-width:2"/>
<path d="M55,67 L65,66" style="stroke:red;stroke-width:2"/>
<path d="M409,82 L420,84" style="stroke:red;stroke-width:2"/>
<path d="M26,23 L39,23" style="stroke:red;stroke-width:2"/>
<path d="M53,33 L58,34" style="stroke:red;stroke-width:2"/>
<path d="M218,103 L228,103" style="stroke:red;stroke-width:2"/>
<path d="M434,104 L460,104" style="stroke:red;stroke-width:2"/>
<path d="M143,79 L148,78" style="stroke:red;stroke-width:2"/>
<path d="M242,55 L247,56" style="stroke:red;stroke-width:2"/>
<path d="M360,45 L360,66" style="stroke:red;stroke-width:2"/>
<path d="M263,4 L272,4" style="stroke:red;stroke-width:2"/>
<path d="M103,45 L111,46" style="stroke:red;stroke-width:2"/>
<path d="M401,39 L401,66" style="stroke:red;stroke-width:2"/>
<path d="M119,109 L119,89" style="stroke:red;stroke-width:2"/>
<path d="M431,68 L439,68" style="stroke:red;stroke-width:2"/>
<path d="M352,78 L359,78" style="stroke:red;stroke-width:2"/>
<path d="M105,68 L111,68" style="stroke:red;stroke-width:2"/>
<path d="M243,31 L250,32" style="stroke:red;stroke-width:2"/>
<path d="M136,23 L143,23" style="stroke:red;stroke-width:2"/>
<path d="M131,29 L137,29" style="stroke:red;stroke-width:2"/>
<path d="M341,17 L348,17" style="stroke:red;stroke-width:2"/>
<path d="M294,102 L311,103" style="stroke:red;stroke-width:2"/>
<path d="M215,66 L219,79" style="stroke:red;stroke-width:2"/>
<path d="M176,52 L183,52" style="stroke:red;stroke-width:2"/>
<path d="M230,104 L259,104" style="stroke:red;stroke-width:2"/>
<path d="M248,56 L253,56" style="stroke:red;stroke-width:2"/>
<path d="M277,23 L284,23" style="stroke:red;stroke-width:2"/>
<path d="M178,78 L183,76" style="stroke:red;stroke-width:2"/>
<path d="M92,113 L99,112" style="stroke:red;stroke-width:2"/>
<path d="M157,68 L166,68" style="stroke:red;stroke-width:2"/>
<path d="M4,8 L10,8" style="stroke:red;stroke-width:2"/>
<path d="M275,45 L283,46" style="stroke:red;stroke-width:2"/>
<path d="M301,7 L306,7" style="stroke:red;stroke-width:2"/>
<path d="M91,29 L97,30" style="stroke:red;stroke-width:2"/>
<path d="M156,95 L156,86" style="stroke:red;stroke-width:2"/>
<path d="M142,77 L149,76" style="stroke:red;stroke-width:2"/>
<path d="M37,41 L47,41" style="stroke:red;stroke-width:2"/>
<path d="M59,4 L65,4" style="stroke:red;stroke-width:2"/>
<path d="M461,21 L466,21" style="stroke:red;stroke-width:2"/>
<path d="M424,29 L429,29" style="stroke:red;stroke-width:2"/>
<path d="M240,58 L246,58" style="stroke:red;stroke-width:2"/>
<path d="M248,68 L253,68" style="stroke:red;stroke-width:2"/>
<path d="M229,77 L229,69" style="stroke:red;stroke-width:2"/>
<path d="M334,68 L340,67" style="stroke:red;stroke-width:2"/>
<path d="M79,4 L91,4" style="stroke:red;stroke-width:2"/>
<path d="M354,46 L359,46" style="stroke:red;stroke-width:2"/>
<path d="M444,62 L452,62" style="stroke:red;stroke-width:2"/>
<path d="M39,85 L53,85" style="stroke:red;stroke-width:2"/>
<path d="M348,5 L353,5" style="stroke:red;stroke-width:2"/>
<path d="M351,104 L361,104" style="stroke:red;stroke-width:2"/>
<path d="M279,8 L286,8" style="stroke:red;stroke-width:2"/>
<path d="M383,30 L390,30" style="stroke:red;stroke-width:2"/>
<path d="M306,105 L312,105" style="stroke:red;stroke-width:2"/>
<path d="M351,92 L363,92" style="stroke:red;stroke-width:2"/>
<path d="M103,50 L112,50" style="stroke:red;stroke-width:2"/>
<path d="M307,57 L314,57" style="stroke:red;stroke-width:2"/>
<path d="M463,30 L471,29" style="stroke:red;stroke-width:2"/>
<path d="M138,113 L138,90" style="stroke:red;stroke-width:2"/>
<path d="M131,67 L136,66" style="stroke:red;stroke-width:2"/>
<path d="M256,66 L261,66" style="stroke:red;stroke-width:2"/>
<path d="M424,31 L429,31" style="stroke:red;stroke-width:2"/>
<path d="M207,39 L218,39" style="stroke:red;stroke-width:2"/>
<path d="M246,102 L259,102" style="stroke:red;stroke-width:2"/>
<path d="M103,60 L109,59" style="stroke:red;stroke-width:2"/>
<path d="M210,4 L215,4" style="stroke:red;stroke-width:2"/>
<path d="M136,113 L136,95" style="stroke:red;stroke-width:2"/>
<path d="M45,62 L56,61" style="stroke:red;stroke-width:2"/>
<path d="M130,79 L136,79" style="stroke:red;stroke-width:2"/>
<path d="M481,7 L487,7" style="stroke:red;stroke-width:2"/>
<path d="M117,7 L122,7" style="stroke:red;stroke-width:2"/>
<path d="M198,99 L198,93" style="stroke:red;stroke-width:2"/>
<path d="M328,5 L333,5" style="stroke:red;stroke-width:2"/>
<path d="M346,85 L353,85" style="stroke:red;stroke-width:2"/>
<path d="M58,78 L63,77" style="stroke:red;stroke-width:2"/>
<path d="M446,39 L451,39" style="stroke:red;stroke-width:2"/>
<path d="M180,69 L185,69" style="stroke:red;stroke-width:2"/>
<path d="M353,82 L359,83" style="stroke:red;stroke-width:2"/>
<path d="M460,75 L460,91" style="stroke:red;stroke-width:2"/>
<path d="M454,45 L460,45" style="stroke:red;stroke-width:2"/>
<path d="M327,31 L333,31" style="stroke:red;stroke-width:2"/>
<path d="M393,66 L405,66" style="stroke:red;stroke-width:2"/>
<path d="M216,11 L216,5" style="stroke:red;stroke-width:2"/>
<path d="M200,23 L206,22" style="stroke:red;stroke-width:2"/>
<path d="M197,116 L199,111" style="stroke:red;stroke-width:2"/>
<path d="M358,21 L363,21" style="stroke:red;stroke-width:2"/>
<path d="M32,6 L37,6" style="stroke:red;stroke-width:2"/>
<path d="M410,104 L423,104" style="stroke:red;stroke-width:2"/>
<path d="M195,116 L200,116" style="stroke:red;stroke-width:2"/>
<path d="M193,117 L197,109" style="stroke:red;stroke-width:2"/>
<path d="M177,116 L191,116" style="stroke:red;stroke-width:2"/>
<path d="M346,52 L351,52" style="stroke:red;stroke-width:2"/>
<path d="M57,27 L62,28" style="stroke:red;stroke-width:2"/>
<path d="M43,31 L56,31" style="stroke:red;stroke-width:2"/>
<path d="M232,111 L240,112" style="stroke:red;stroke-width:2"/>
<path d="M351,38 L356,38" style="stroke:red;stroke-width:2"/>
<path d="M328,21 L335,21" style="stroke:red;stroke-width:2"/>
<path d="M206,37 L213,37" style="stroke:red;stroke-width:2"/>
<path d="M38,78 L46,78" style="stroke:red;stroke-width:2"/>
<path d="M93,116 L98,115" style="stroke:red;stroke-width:2"/>
<path d="M158,113 L158,100" style="stroke:red;stroke-width:2"/>
<path d="M221,60 L228,60" style="stroke:red;stroke-width:2"/>
<path d="M403,30 L411,28" style="stroke:red;stroke-width:2"/>
<path d="M79,109 L79,104" style="stroke:red;stroke-width:2"/>
<path d="M458,54 L458,60" style="stroke:red;stroke-width:2"/>
<path d="M444,41 L451,41" style="stroke:red;stroke-width:2"/>
<path d="M222,91 L225,100" style="stroke:red;stroke-width:2"/>
<path d="M229,95 L229,101" style="stroke:red;stroke-width:2"/>
<path d="M394,102 L400,103" style="stroke:red;stroke-width:2"/>
<path d="M447,8 L453,8" style="stroke:red;stroke-width:2"/>
<path d="M444,86 L449,86" style="stroke:red;stroke-width:2"/>
<path d="M338,37 L343,36" style="stroke:red;stroke-width:2"/>
<path d="M81,110 L81,104" style="stroke:red;stroke-width:2"/>
<path d="M368,102 L375,102" style="stroke:red;stroke-width:2"/>
<path d="M199,105 L199,110" style="stroke:red;stroke-width:2"/>
<path d="M364,95 L366,101" style="stroke:red;stroke-width:2"/>
<path d="M231,92 L231,101" style="stroke:red;stroke-width:2"/>
<path d="M346,102 L353,102" style="stroke:red;stroke-width:2"/>
<path d="M156,113 L156,100" style="stroke:red;stroke-width:2"/>
<path d="M447,64 L453,64" style="stroke:red;stroke-width:2"/>
</svg>