<svg width="1600" height="800" xmlns="http://www.w3.org/2000/svg">
<line x1="81" y1="16" x2="148" y2="16" stroke="black" stroke-width="2"/>
<line x1="148" y1="16" x2="226" y2="16" stroke="black" stroke-width="2"/>
<line x1="226" y1="16" x2="278" y2="16" stroke="black" stroke-width="2"/>
<line x1="278" y1="16" x2="375" y2="16" stroke="black" stroke-width="2"/>
<line x1="375" y1="16" x2="454" y2="16" stroke="black" stroke-width="2"/>
<line x1="454" y1="16" x2="506" y2="16" stroke="black" stroke-width="2"/>
<line x1="506" y1="16" x2="690" y2="16" stroke="black" stroke-width="2"/>
<line x1="690" y1="16" x2="738" y2="16" stroke="black" stroke-width="2"/>
<line x1="738" y1="16" x2="806" y2="16" stroke="black" stroke-width="2"/>
<line x1="806" y1="16" x2="982" y2="16" stroke="black" stroke-width="2"/>
<line x1="982" y1="16" x2="1164" y2="16" stroke="black" stroke-width="2"/>
<line x1="1164" y1="16" x2="209" y2="17" stroke="black" stroke-width="2"/>
<line x1="209" y1="17" x2="260" y2="17" stroke="black" stroke-width="2"/>
<line x1="260" y1="17" x2="440" y2="17" stroke="black" stroke-width="2"/>
<line x1="440" y1="17" x2="542" y2="17" stroke="black" stroke-width="2"/>
<line x1="542" y1="17" x2="578" y2="17" stroke="black" stroke-width="2"/>
<line x1="578" y1="17" x2="613" y2="17" stroke="black" stroke-width="2"/>
<line x1="613" y1="17" x2="673" y2="17" stroke="black" stroke-width="2"/>
<line x1="673" y1="17" x2="970" y2="17" stroke="black" stroke-width="2"/>
<line x1="970" y1="17" x2="1032" y2="17" stroke="black" stroke-width="2"/>
<line x1="1032" y1="17" x2="1099" y2="17" stroke="black" stroke-width="2"/>
<line x1="1099" y1="17" x2="1147" y2="17" stroke="black" stroke-width="2"/>
<line x1="1147" y1="17" x2="14" y2="19" stroke="black" stroke-width="2"/>
<line x1="14" y1="19" x2="28" y2="19" stroke="black" stroke-width="2"/>
<line x1="28" y1="19" x2="41" y2="19" stroke="black" stroke-width="2"/>
<line x1="41" y1="19" x2="930" y2="19" stroke="black" stroke-width="2"/>
<line x1="930" y1="19" x2="311" y2="20" stroke="black" stroke-width="2"/>
<line x1="311" y1="20" x2="771" y2="20" stroke="black" stroke-width="2"/>
<line x1="771" y1="20" x2="886" y2="20" stroke="black" stroke-width="2"/>
<line x1="886" y1="20" x2="1210" y2="20" stroke="black" stroke-width="2"/>
<line x1="1210" y1="20" x2="51" y2="21" stroke="black" stroke-width="2"/>
<line x1="51" y1="21" x2="344" y2="21" stroke="black" stroke-width="2"/>
<line x1="344" y1="21" x2="639" y2="21" stroke="black" stroke-width="2"/>
<line x1="639" y1="21" x2="840" y2="21" stroke="black" stroke-width="2"/>
<line x1="840" y1="21" x2="1126" y2="21" stroke="black" stroke-width="2"/>
<line x1="1126" y1="21" x2="179" y2="22" stroke="black" stroke-width="2"/>
<line x1="179" y1="22" x2="1195" y2="22" stroke="black" stroke-width="2"/>
<line x1="1195" y1="22" x2="51" y2="29" stroke="black" stroke-width="2"/>
<line x1="51" y1="29" x2="247" y2="30" stroke="black" stroke-width="2"/>
<line x1="247" y1="30" x2="712" y2="30" stroke="black" stroke-width="2"/>
<line x1="712" y1="30" x2="21" y2="46" stroke="black" stroke-width="2"/>
<line x1="21" y1="46" x2="508" y2="46" stroke="black" stroke-width="2"/>
<line x1="508" y1="46" x2="1231" y2="47" stroke="black" stroke-width="2"/>
<line x1="1231" y1="47" x2="249" y2="55" stroke="black" stroke-width="2"/>
<line x1="249" y1="55" x2="507" y2="57" stroke="black" stroke-width="2"/>
<line x1="507" y1="57" x2="519" y2="57" stroke="black" stroke-width="2"/>
<line x1="519" y1="57" x2="540" y2="58" stroke="black" stroke-width="2"/>
<line x1="540" y1="58" x2="1197" y2="58" stroke="black" stroke-width="2"/>
<line x1="1197" y1="58" x2="1221" y2="58" stroke="black" stroke-width="2"/>
<line x1="1221" y1="58" x2="84" y2="59" stroke="black" stroke-width="2"/>
<line x1="84" y1="59" x2="147" y2="59" stroke="black" stroke-width="2"/>
<line x1="147" y1="59" x2="214" y2="59" stroke="black" stroke-width="2"/>
<line x1="214" y1="59" x2="278" y2="59" stroke="black" stroke-width="2"/>
<line x1="278" y1="59" x2="311" y2="59" stroke="black" stroke-width="2"/>
<line x1="311" y1="59" x2="345" y2="59" stroke="black" stroke-width="2"/>
<line x1="345" y1="59" x2="408" y2="59" stroke="black" stroke-width="2"/>
<line x1="408" y1="59" x2="473" y2="59" stroke="black" stroke-width="2"/>
<line x1="473" y1="59" x2="579" y2="59" stroke="black" stroke-width="2"/>
<line x1="579" y1="59" x2="645" y2="59" stroke="black" stroke-width="2"/>
<line x1="645" y1="59" x2="711" y2="59" stroke="black" stroke-width="2"/>
<line x1="711" y1="59" x2="775" y2="59" stroke="black" stroke-width="2"/>
<line x1="775" y1="59" x2="840" y2="59" stroke="black" stroke-width="2"/>
<line x1="840" y1="59" x2="873" y2="59" stroke="black" stroke-width="2"/>
<line x1="873" y1="59" x2="905" y2="59" stroke="black" stroke-width="2"/>
<line x1="905" y1="59" x2="970" y2="59" stroke="black" stroke-width="2"/>
<line x1="970" y1="59" x2="1034" y2="59" stroke="black" stroke-width="2"/>
<line x1="1034" y1="59" x2="1164" y2="59" stroke="black" stroke-width="2"/>
<line x1="1164" y1="59" x2="1114" y2="60" stroke="black" stroke-width="2"/>
<line x1="1114" y1="60" x2="310" y2="78" stroke="black" stroke-width="2"/>
<line x1="310" y1="78" x2="729" y2="78" stroke="black" stroke-width="2"/>
<line x1="729" y1="78" x2="907" y2="78" stroke="black" stroke-width="2"/>
<line x1="907" y1="78" x2="957" y2="78" stroke="black" stroke-width="2"/>
<line x1="957" y1="78" x2="1005" y2="78" stroke="black" stroke-width="2"/>
<line x1="1005" y1="78" x2="694" y2="80" stroke="black" stroke-width="2"/>
<line x1="694" y1="80" x2="681" y2="81" stroke="black" stroke-width="2"/>
<line x1="681" y1="81" x2="826" y2="81" stroke="black" stroke-width="2"/>
<line x1="826" y1="81" x2="295" y2="82" stroke="black" stroke-width="2"/>
<line x1="295" y1="82" x2="1218" y2="82" stroke="black" stroke-width="2"/>
<line x1="1218" y1="82" x2="620" y2="83" stroke="black" stroke-width="2"/>
<line x1="620" y1="83" x2="864" y2="83" stroke="black" stroke-width="2"/>
<line x1="864" y1="83" x2="158" y2="84" stroke="black" stroke-width="2"/>
<line x1="158" y1="84" x2="260" y2="84" stroke="black" stroke-width="2"/>
<line x1="260" y1="84" x2="1127" y2="84" stroke="black" stroke-width="2"/>
<line x1="1127" y1="84" x2="459" y2="87" stroke="black" stroke-width="2"/>
<line x1="459" y1="87" x2="111" y2="88" stroke="black" stroke-width="2"/>
<line x1="111" y1="88" x2="597" y2="93" stroke="black" stroke-width="2"/>
<line x1="597" y1="93" x2="906" y2="93" stroke="black" stroke-width="2"/>
<line x1="906" y1="93" x2="277" y2="94" stroke="black" stroke-width="2"/>
<line x1="277" y1="94" x2="892" y2="95" stroke="black" stroke-width="2"/>
<line x1="892" y1="95" x2="278" y2="104" stroke="black" stroke-width="2"/>
<line x1="278" y1="104" x2="298" y2="104" stroke="black" stroke-width="2"/>
<line x1="298" y1="104" x2="682" y2="119" stroke="black" stroke-width="2"/>
<line x1="682" y1="119" x2="500" y2="122" stroke="black" stroke-width="2"/>
<line x1="500" y1="122" x2="612" y2="123" stroke="black" stroke-width="2"/>
<line x1="612" y1="123" x2="631" y2="123" stroke="black" stroke-width="2"/>
<line x1="631" y1="123" x2="730" y2="123" stroke="black" stroke-width="2"/>
<line x1="730" y1="123" x2="778" y2="124" stroke="black" stroke-width="2"/>
<line x1="778" y1="124" x2="371" y2="127" stroke="black" stroke-width="2"/>
<line x1="371" y1="127" x2="573" y2="129" stroke="black" stroke-width="2"/>
<line x1="573" y1="129" x2="596" y2="129" stroke="black" stroke-width="2"/>
<line x1="596" y1="129" x2="262" y2="132" stroke="black" stroke-width="2"/>
<line x1="262" y1="132" x2="277" y2="132" stroke="black" stroke-width="2"/>
<line x1="277" y1="132" x2="545" y2="133" stroke="black" stroke-width="2"/>
<line x1="545" y1="133" x2="474" y2="134" stroke="black" stroke-width="2"/>
<line x1="474" y1="134" x2="878" y2="135" stroke="black" stroke-width="2"/>
<line x1="878" y1="135" x2="447" y2="137" stroke="black" stroke-width="2"/>
<line x1="447" y1="137" x2="907" y2="137" stroke="black" stroke-width="2"/>
<line x1="907" y1="137" x2="612" y2="144" stroke="black" stroke-width="2"/>
<line x1="612" y1="144" x2="572" y2="145" stroke="black" stroke-width="2"/>
<line x1="572" y1="145" x2="153" y2="146" stroke="black" stroke-width="2"/>
<line x1="153" y1="146" x2="1118" y2="146" stroke="black" stroke-width="2"/>
<line x1="1118" y1="146" x2="630" y2="147" stroke="black" stroke-width="2"/>
<line x1="630" y1="147" x2="448" y2="149" stroke="black" stroke-width="2"/>
<line x1="448" y1="149" x2="514" y2="149" stroke="black" stroke-width="2"/>
<line x1="514" y1="149" x2="730" y2="149" stroke="black" stroke-width="2"/>
<line x1="730" y1="149" x2="778" y2="149" stroke="black" stroke-width="2"/>
<line x1="778" y1="149" x2="828" y2="149" stroke="black" stroke-width="2"/>
<line x1="828" y1="149" x2="537" y2="150" stroke="black" stroke-width="2"/>
<line x1="537" y1="150" x2="612" y2="158" stroke="black" stroke-width="2"/>
<line x1="612" y1="158" x2="121" y2="164" stroke="black" stroke-width="2"/>
<line x1="121" y1="164" x2="97" y2="166" stroke="black" stroke-width="2"/>
<line x1="97" y1="166" x2="165" y2="166" stroke="black" stroke-width="2"/>
<line x1="165" y1="166" x2="636" y2="171" stroke="black" stroke-width="2"/>
<line x1="636" y1="171" x2="680" y2="171" stroke="black" stroke-width="2"/>
<line x1="680" y1="171" x2="261" y2="172" stroke="black" stroke-width="2"/>
<line x1="261" y1="172" x2="455" y2="172" stroke="black" stroke-width="2"/>
<line x1="455" y1="172" x2="729" y2="172" stroke="black" stroke-width="2"/>
<line x1="729" y1="172" x2="862" y2="172" stroke="black" stroke-width="2"/>
<line x1="862" y1="172" x2="908" y2="172" stroke="black" stroke-width="2"/>
<line x1="908" y1="172" x2="957" y2="172" stroke="black" stroke-width="2"/>
<line x1="957" y1="172" x2="1005" y2="172" stroke="black" stroke-width="2"/>
<line x1="1005" y1="172" x2="1024" y2="172" stroke="black" stroke-width="2"/>
<line x1="1024" y1="172" x2="1126" y2="172" stroke="black" stroke-width="2"/>
<line x1="1126" y1="172" x2="280" y2="173" stroke="black" stroke-width="2"/>
<line x1="280" y1="173" x2="669" y2="173" stroke="black" stroke-width="2"/>
<line x1="669" y1="173" x2="899" y2="173" stroke="black" stroke-width="2"/>
<line x1="899" y1="173" x2="1053" y2="173" stroke="black" stroke-width="2"/>
<line x1="1053" y1="173" x2="296" y2="177" stroke="black" stroke-width="2"/>
<line x1="296" y1="177" x2="670" y2="181" stroke="black" stroke-width="2"/>
<line x1="670" y1="181" x2="98" y2="194" stroke="black" stroke-width="2"/>
<line x1="98" y1="194" x2="460" y2="194" stroke="black" stroke-width="2"/>
<line x1="460" y1="194" x2="167" y2="195" stroke="black" stroke-width="2"/>
<line x1="167" y1="195" x2="239" y2="195" stroke="black" stroke-width="2"/>
<line x1="239" y1="195" x2="249" y2="195" stroke="black" stroke-width="2"/>
<line x1="249" y1="195" x2="151" y2="196" stroke="black" stroke-width="2"/>
<line x1="151" y1="196" x2="201" y2="196" stroke="black" stroke-width="2"/>
<line x1="201" y1="196" x2="395" y2="196" stroke="black" stroke-width="2"/>
<line x1="395" y1="196" x2="359" y2="199" stroke="black" stroke-width="2"/>
<line x1="359" y1="199" x2="583" y2="199" stroke="black" stroke-width="2"/>
<line x1="583" y1="199" x2="346" y2="202" stroke="black" stroke-width="2"/>
<line x1="346" y1="202" x2="249" y2="206" stroke="black" stroke-width="2"/>
<line x1="249" y1="206" x2="153" y2="210" stroke="black" stroke-width="2"/>
<line x1="153" y1="210" x2="896" y2="210" stroke="black" stroke-width="2"/>
<line x1="896" y1="210" x2="1025" y2="211" stroke="black" stroke-width="2"/>
<line x1="1025" y1="211" x2="640" y2="212" stroke="black" stroke-width="2"/>
<line x1="640" y1="212" x2="669" y2="212" stroke="black" stroke-width="2"/>
<line x1="669" y1="212" x2="825" y2="212" stroke="black" stroke-width="2"/>
<line x1="825" y1="212" x2="854" y2="212" stroke="black" stroke-width="2"/>
<line x1="854" y1="212" x2="870" y2="212" stroke="black" stroke-width="2"/>
<line x1="870" y1="212" x2="1053" y2="212" stroke="black" stroke-width="2"/>
<line x1="1053" y1="212" x2="99" y2="217" stroke="black" stroke-width="2"/>
<line x1="99" y1="217" x2="1127" y2="217" stroke="black" stroke-width="2"/>
<line x1="1127" y1="217" x2="276" y2="224" stroke="black" stroke-width="2"/>
<line x1="276" y1="224" x2="510" y2="227" stroke="black" stroke-width="2"/>
<line x1="510" y1="227" x2="1053" y2="231" stroke="black" stroke-width="2"/>
<line x1="1053" y1="231" x2="918" y2="232" stroke="black" stroke-width="2"/>
<line x1="918" y1="232" x2="250" y2="244" stroke="black" stroke-width="2"/>
<line x1="250" y1="244" x2="263" y2="244" stroke="black" stroke-width="2"/>
<line x1="263" y1="244" x2="914" y2="257" stroke="black" stroke-width="2"/>
<line x1="914" y1="257" x2="251" y2="258" stroke="black" stroke-width="2"/>
<line x1="251" y1="258" x2="924" y2="259" stroke="black" stroke-width="2"/>
<line x1="924" y1="259" x2="1158" y2="259" stroke="black" stroke-width="2"/>
<line x1="1158" y1="259" x2="497" y2="265" stroke="black" stroke-width="2"/>
<line x1="497" y1="265" x2="570" y2="265" stroke="black" stroke-width="2"/>
<line x1="570" y1="265" x2="302" y2="287" stroke="black" stroke-width="2"/>
<line x1="302" y1="287" x2="242" y2="290" stroke="black" stroke-width="2"/>
<line x1="242" y1="290" x2="99" y2="291" stroke="black" stroke-width="2"/>
<line x1="99" y1="291" x2="152" y2="291" stroke="black" stroke-width="2"/>
<line x1="152" y1="291" x2="201" y2="291" stroke="black" stroke-width="2"/>
<line x1="201" y1="291" x2="346" y2="291" stroke="black" stroke-width="2"/>
<line x1="346" y1="291" x2="395" y2="291" stroke="black" stroke-width="2"/>
<line x1="395" y1="291" x2="490" y2="291" stroke="black" stroke-width="2"/>
</svg>